%TF.GenerationSoftware,KiCad,Pcbnew,9.0.6*%
%TF.CreationDate,2026-07-02T20:55:55+08:00*%
%TF.ProjectId,PCB-Badge,5043422d-4261-4646-9765-2e6b69636164,rev?*%
%TF.SameCoordinates,Original*%
%TF.FileFunction,Copper,L2,Bot*%
%TF.FilePolarity,Positive*%
%FSLAX46Y46*%
G04 Gerber Fmt 4.6, Leading zero omitted, Abs format (unit mm)*
G04 Created by KiCad (PCBNEW 9.0.6) date 2026-07-02 20:55:55*
%MOMM*%
%LPD*%
G01*
G04 APERTURE LIST*
%ADD10C,0.300000*%
%TA.AperFunction,EtchedComponent*%
%ADD11C,0.000000*%
%TD*%
%TA.AperFunction,ComponentPad*%
%ADD12O,0.808000X0.808000*%
%TD*%
%TA.AperFunction,ViaPad*%
%ADD13C,0.600000*%
%TD*%
%TA.AperFunction,Conductor*%
%ADD14C,0.200000*%
%TD*%
G04 APERTURE END LIST*
D10*
G36*
X201111047Y-111245000D02*
G01*
X200943527Y-111245000D01*
X200943527Y-110483786D01*
X200952350Y-110273470D01*
X200960645Y-110158558D01*
X200966425Y-110079595D01*
X200963219Y-110079595D01*
X200854684Y-110384043D01*
X200587238Y-111105873D01*
X200484473Y-111105873D01*
X200219133Y-110384043D01*
X200108583Y-110079595D01*
X200105469Y-110079595D01*
X200120684Y-110280454D01*
X200128275Y-110483786D01*
X200128275Y-111245000D01*
X199956542Y-111245000D01*
X199956542Y-109861608D01*
X200167293Y-109861608D01*
X200432540Y-110602397D01*
X200528528Y-110881566D01*
X200532741Y-110881566D01*
X200632850Y-110602397D01*
X200900296Y-109861608D01*
X201111047Y-109861608D01*
X201111047Y-111245000D01*
G37*
G36*
X199315955Y-110206427D02*
G01*
X199430399Y-110238707D01*
X199546807Y-110292535D01*
X199609595Y-110330096D01*
X199537329Y-110454660D01*
X199468028Y-110411756D01*
X199390398Y-110375388D01*
X199336276Y-110358047D01*
X199279229Y-110347302D01*
X199231873Y-110344476D01*
X199190933Y-110347322D01*
X199155396Y-110355523D01*
X199125669Y-110368175D01*
X199100456Y-110384955D01*
X199061378Y-110430675D01*
X199035816Y-110494701D01*
X199024956Y-110580762D01*
X199024786Y-110594337D01*
X199152363Y-110611268D01*
X199264758Y-110632723D01*
X199349026Y-110654893D01*
X199422584Y-110680799D01*
X199478428Y-110706753D01*
X199526291Y-110735868D01*
X199562717Y-110764950D01*
X199592838Y-110796810D01*
X199615474Y-110829364D01*
X199632695Y-110864540D01*
X199651118Y-110942369D01*
X199652734Y-110976546D01*
X199649860Y-111022511D01*
X199641462Y-111064975D01*
X199628007Y-111103517D01*
X199609779Y-111138353D01*
X199560011Y-111196669D01*
X199493509Y-111239087D01*
X199411445Y-111263555D01*
X199349476Y-111268447D01*
X199260273Y-111257502D01*
X199167490Y-111223925D01*
X199067739Y-111164877D01*
X199010406Y-111121535D01*
X199009765Y-111121535D01*
X198995019Y-111245000D01*
X198846733Y-111245000D01*
X198846733Y-110989918D01*
X199024786Y-110989918D01*
X199090161Y-111043599D01*
X199152706Y-111084112D01*
X199196185Y-111104330D01*
X199240346Y-111117570D01*
X199301208Y-111124008D01*
X199342883Y-111121017D01*
X199380580Y-111111803D01*
X199409253Y-111098541D01*
X199433650Y-111080124D01*
X199451422Y-111058995D01*
X199464822Y-111033349D01*
X199476718Y-110969884D01*
X199476788Y-110963998D01*
X199473768Y-110929564D01*
X199464356Y-110897473D01*
X199450037Y-110870657D01*
X199429763Y-110845690D01*
X199369558Y-110801087D01*
X199272551Y-110761119D01*
X199120627Y-110726275D01*
X199024786Y-110712489D01*
X199024786Y-110989918D01*
X198846733Y-110989918D01*
X198846733Y-110617967D01*
X198849698Y-110547304D01*
X198858730Y-110481830D01*
X198872229Y-110427653D01*
X198890966Y-110378351D01*
X198912728Y-110337938D01*
X198939077Y-110302072D01*
X198968014Y-110272821D01*
X199001166Y-110247963D01*
X199037567Y-110228176D01*
X199078135Y-110212918D01*
X199173204Y-110196642D01*
X199204579Y-110195732D01*
X199315955Y-110206427D01*
G37*
G36*
X197881363Y-110141877D02*
G01*
X197873211Y-110309855D01*
X197938090Y-110261812D01*
X198004937Y-110225477D01*
X198049522Y-110209660D01*
X198097780Y-110199596D01*
X198155587Y-110195732D01*
X198250333Y-110207240D01*
X198340754Y-110241505D01*
X198423204Y-110297811D01*
X198460224Y-110333827D01*
X198493825Y-110374807D01*
X198523503Y-110420389D01*
X198549002Y-110470551D01*
X198569766Y-110524618D01*
X198585657Y-110582845D01*
X198596204Y-110644355D01*
X198601241Y-110709605D01*
X198601635Y-110734196D01*
X198598739Y-110809447D01*
X198590187Y-110879494D01*
X198576718Y-110942213D01*
X198558331Y-110999810D01*
X198536069Y-111050488D01*
X198509558Y-111096162D01*
X198479930Y-111135599D01*
X198446614Y-111170121D01*
X198410481Y-111199127D01*
X198371092Y-111223207D01*
X198283355Y-111256161D01*
X198182906Y-111268407D01*
X198176561Y-111268447D01*
X198091848Y-111257532D01*
X198004673Y-111224170D01*
X197916595Y-111167320D01*
X197866708Y-111123550D01*
X197864144Y-111123550D01*
X197849489Y-111245000D01*
X197701203Y-111245000D01*
X197701203Y-110451454D01*
X197881363Y-110451454D01*
X197881363Y-110979569D01*
X197926015Y-111025113D01*
X197970787Y-111061478D01*
X198010100Y-111085636D01*
X198050244Y-111103015D01*
X198088731Y-111113161D01*
X198128520Y-111117504D01*
X198138825Y-111117688D01*
X198180978Y-111114783D01*
X198219974Y-111106174D01*
X198254643Y-111092550D01*
X198286192Y-111073867D01*
X198339623Y-111021889D01*
X198380758Y-110948637D01*
X198407852Y-110850987D01*
X198417262Y-110732090D01*
X198414394Y-110673542D01*
X198406040Y-110618770D01*
X198392540Y-110567970D01*
X198374285Y-110521593D01*
X198351871Y-110480299D01*
X198325527Y-110443967D01*
X198296273Y-110413491D01*
X198263950Y-110388358D01*
X198229903Y-110369316D01*
X198193601Y-110355867D01*
X198126186Y-110346583D01*
X198080719Y-110349628D01*
X198036074Y-110359220D01*
X197995504Y-110374301D01*
X197954733Y-110395951D01*
X197881363Y-110451454D01*
X197701203Y-110451454D01*
X197701203Y-109744371D01*
X197881363Y-109744371D01*
X197881363Y-110141877D01*
G37*
G36*
X197074037Y-110207254D02*
G01*
X197167303Y-110241808D01*
X197211438Y-110267543D01*
X197253039Y-110298639D01*
X197291484Y-110334771D01*
X197326491Y-110375897D01*
X197357197Y-110421184D01*
X197383671Y-110471016D01*
X197405104Y-110524174D01*
X197421620Y-110581412D01*
X197432642Y-110641378D01*
X197438137Y-110704992D01*
X197438703Y-110733647D01*
X197435821Y-110798879D01*
X197427369Y-110860413D01*
X197413677Y-110917996D01*
X197395021Y-110971656D01*
X197371674Y-111021307D01*
X197343937Y-111066787D01*
X197311950Y-111108149D01*
X197276122Y-111145059D01*
X197193408Y-111205432D01*
X197097668Y-111246514D01*
X196991037Y-111266647D01*
X196946493Y-111268447D01*
X196834881Y-111257612D01*
X196729028Y-111225873D01*
X196624579Y-111172819D01*
X196606598Y-111161560D01*
X196670254Y-111043408D01*
X196726592Y-111075440D01*
X196784930Y-111100188D01*
X196834674Y-111114282D01*
X196886893Y-111122302D01*
X196925427Y-111124008D01*
X196973312Y-111121112D01*
X197018272Y-111112563D01*
X197059460Y-111098837D01*
X197097434Y-111080041D01*
X197162665Y-111028357D01*
X197213272Y-110958312D01*
X197247608Y-110870002D01*
X197262574Y-110772298D01*
X196574358Y-110772298D01*
X196567672Y-110674845D01*
X196568600Y-110652955D01*
X196724659Y-110652955D01*
X197264589Y-110652955D01*
X197256234Y-110600110D01*
X197242869Y-110551686D01*
X197224823Y-110507598D01*
X197202600Y-110468265D01*
X197176512Y-110433676D01*
X197147109Y-110404182D01*
X197114761Y-110379876D01*
X197079992Y-110360984D01*
X197043314Y-110347672D01*
X197005132Y-110340053D01*
X196973787Y-110338156D01*
X196931327Y-110341069D01*
X196892491Y-110349732D01*
X196859058Y-110363187D01*
X196829096Y-110381637D01*
X196780667Y-110432131D01*
X196746140Y-110502774D01*
X196727149Y-110597230D01*
X196724659Y-110652955D01*
X196568600Y-110652955D01*
X196570584Y-110606183D01*
X196579246Y-110541830D01*
X196592844Y-110484436D01*
X196611525Y-110431500D01*
X196634047Y-110385280D01*
X196661038Y-110343571D01*
X196691140Y-110307904D01*
X196725221Y-110276798D01*
X196762266Y-110251008D01*
X196802959Y-110229925D01*
X196894600Y-110202658D01*
X196978000Y-110195732D01*
X197074037Y-110207254D01*
G37*
G36*
X195394940Y-109755729D02*
G01*
X195445361Y-109738448D01*
X195501445Y-109726232D01*
X195568597Y-109720924D01*
X195619084Y-109723819D01*
X195664778Y-109732361D01*
X195703920Y-109745562D01*
X195738798Y-109763511D01*
X195794979Y-109811771D01*
X195835903Y-109877575D01*
X195861598Y-109963728D01*
X195869657Y-110061185D01*
X195869657Y-110219363D01*
X196008326Y-110229896D01*
X196008326Y-110365817D01*
X195869657Y-110365817D01*
X195869657Y-111245000D01*
X195691604Y-111245000D01*
X195691604Y-110365817D01*
X195475357Y-110365817D01*
X195475357Y-110219180D01*
X195691604Y-110219180D01*
X195691604Y-110061185D01*
X195688655Y-110008313D01*
X195679738Y-109963826D01*
X195667474Y-109932786D01*
X195650810Y-109907756D01*
X195632097Y-109890448D01*
X195609757Y-109877977D01*
X195551744Y-109867561D01*
X195512422Y-109870552D01*
X195471910Y-109879763D01*
X195434324Y-109893756D01*
X195394940Y-109755729D01*
G37*
G36*
X194959821Y-110198645D02*
G01*
X195011219Y-110207312D01*
X195060985Y-110221620D01*
X195108715Y-110241463D01*
X195153655Y-110266519D01*
X195195774Y-110296813D01*
X195234177Y-110331740D01*
X195269047Y-110371563D01*
X195299556Y-110415471D01*
X195325887Y-110463934D01*
X195347402Y-110516104D01*
X195364130Y-110572517D01*
X195375627Y-110632466D01*
X195381732Y-110696393D01*
X195382667Y-110734196D01*
X195379793Y-110799170D01*
X195371398Y-110860364D01*
X195357741Y-110917966D01*
X195339197Y-110971554D01*
X195315871Y-111021487D01*
X195288273Y-111067130D01*
X195220696Y-111146081D01*
X195138670Y-111206941D01*
X195044876Y-111247900D01*
X194942681Y-111267130D01*
X194907218Y-111268447D01*
X194854603Y-111265535D01*
X194803193Y-111256879D01*
X194753349Y-111242573D01*
X194705549Y-111222742D01*
X194660501Y-111197689D01*
X194618292Y-111167413D01*
X194579805Y-111132512D01*
X194544879Y-111092743D01*
X194514350Y-111048936D01*
X194488032Y-111000623D01*
X194466576Y-110948694D01*
X194449937Y-110892590D01*
X194438567Y-110833083D01*
X194432611Y-110769686D01*
X194431769Y-110734196D01*
X194616141Y-110734196D01*
X194619028Y-110795746D01*
X194627511Y-110853086D01*
X194640958Y-110904720D01*
X194659251Y-110951645D01*
X194681263Y-110992140D01*
X194707334Y-111027630D01*
X194735966Y-111056702D01*
X194767934Y-111080614D01*
X194801838Y-111098575D01*
X194838499Y-111111214D01*
X194907218Y-111119795D01*
X194947356Y-111116903D01*
X194985234Y-111108386D01*
X195053394Y-111075455D01*
X195111175Y-111021734D01*
X195156819Y-110946941D01*
X195187174Y-110851009D01*
X195198293Y-110735164D01*
X195198294Y-110734196D01*
X195195411Y-110672629D01*
X195186953Y-110615199D01*
X195173493Y-110563160D01*
X195155202Y-110515810D01*
X195133127Y-110474728D01*
X195107019Y-110438684D01*
X195078342Y-110409070D01*
X195046385Y-110384683D01*
X195012615Y-110366354D01*
X194976188Y-110353411D01*
X194907218Y-110344476D01*
X194866919Y-110347367D01*
X194828988Y-110355882D01*
X194761068Y-110388719D01*
X194703631Y-110442267D01*
X194658163Y-110517015D01*
X194627682Y-110613357D01*
X194616152Y-110730355D01*
X194616141Y-110734196D01*
X194431769Y-110734196D01*
X194434643Y-110668458D01*
X194443037Y-110606599D01*
X194456679Y-110548474D01*
X194475198Y-110494441D01*
X194498465Y-110444181D01*
X194525987Y-110398265D01*
X194593308Y-110318962D01*
X194674977Y-110257866D01*
X194768393Y-110216677D01*
X194870296Y-110197162D01*
X194907218Y-110195732D01*
X194959821Y-110198645D01*
G37*
G36*
X194169818Y-111245000D02*
G01*
X193991765Y-111245000D01*
X193991765Y-110589207D01*
X193966294Y-110533636D01*
X193938593Y-110486578D01*
X193909322Y-110447797D01*
X193878781Y-110416535D01*
X193847315Y-110392270D01*
X193815511Y-110374687D01*
X193751500Y-110357666D01*
X193736409Y-110357024D01*
X193693849Y-110359887D01*
X193656859Y-110368201D01*
X193635567Y-110374610D01*
X193600763Y-110214325D01*
X193652743Y-110200685D01*
X193710205Y-110195743D01*
X193713328Y-110195732D01*
X193787448Y-110207057D01*
X193860008Y-110241357D01*
X193929519Y-110299958D01*
X193992288Y-110383633D01*
X194004863Y-110405659D01*
X194006694Y-110405659D01*
X194021349Y-110219180D01*
X194169818Y-110219180D01*
X194169818Y-111245000D01*
G37*
G36*
X193001208Y-111245000D02*
G01*
X192821048Y-111245000D01*
X192821048Y-110594337D01*
X192186413Y-110594337D01*
X192186413Y-111245000D01*
X192004147Y-111245000D01*
X192004147Y-109861608D01*
X192186413Y-109861608D01*
X192186413Y-110437349D01*
X192821048Y-110437349D01*
X192821048Y-109861608D01*
X193001208Y-109861608D01*
X193001208Y-111245000D01*
G37*
G36*
X191362919Y-110206427D02*
G01*
X191477364Y-110238707D01*
X191593771Y-110292535D01*
X191656559Y-110330096D01*
X191584294Y-110454660D01*
X191514992Y-110411756D01*
X191437363Y-110375388D01*
X191383240Y-110358047D01*
X191326193Y-110347302D01*
X191278838Y-110344476D01*
X191237897Y-110347322D01*
X191202361Y-110355523D01*
X191172633Y-110368175D01*
X191147421Y-110384955D01*
X191108343Y-110430675D01*
X191082780Y-110494701D01*
X191071920Y-110580762D01*
X191071750Y-110594337D01*
X191199327Y-110611268D01*
X191311723Y-110632723D01*
X191395990Y-110654893D01*
X191469549Y-110680799D01*
X191525392Y-110706753D01*
X191573256Y-110735868D01*
X191609681Y-110764950D01*
X191639802Y-110796810D01*
X191662438Y-110829364D01*
X191679659Y-110864540D01*
X191698083Y-110942369D01*
X191699699Y-110976546D01*
X191696824Y-111022511D01*
X191688427Y-111064975D01*
X191674971Y-111103517D01*
X191656743Y-111138353D01*
X191606975Y-111196669D01*
X191540473Y-111239087D01*
X191458409Y-111263555D01*
X191396441Y-111268447D01*
X191307237Y-111257502D01*
X191214454Y-111223925D01*
X191114704Y-111164877D01*
X191057370Y-111121535D01*
X191056729Y-111121535D01*
X191041983Y-111245000D01*
X190893697Y-111245000D01*
X190893697Y-110989918D01*
X191071750Y-110989918D01*
X191137125Y-111043599D01*
X191199671Y-111084112D01*
X191243149Y-111104330D01*
X191287311Y-111117570D01*
X191348172Y-111124008D01*
X191389848Y-111121017D01*
X191427545Y-111111803D01*
X191456217Y-111098541D01*
X191480614Y-111080124D01*
X191498386Y-111058995D01*
X191511786Y-111033349D01*
X191523683Y-110969884D01*
X191523752Y-110963998D01*
X191520733Y-110929564D01*
X191511321Y-110897473D01*
X191497002Y-110870657D01*
X191476728Y-110845690D01*
X191416523Y-110801087D01*
X191319515Y-110761119D01*
X191167591Y-110726275D01*
X191071750Y-110712489D01*
X191071750Y-110989918D01*
X190893697Y-110989918D01*
X190893697Y-110617967D01*
X190896662Y-110547304D01*
X190905694Y-110481830D01*
X190919193Y-110427653D01*
X190937931Y-110378351D01*
X190959692Y-110337938D01*
X190986042Y-110302072D01*
X191014978Y-110272821D01*
X191048130Y-110247963D01*
X191084531Y-110228176D01*
X191125099Y-110212918D01*
X191220168Y-110196642D01*
X191251543Y-110195732D01*
X191362919Y-110206427D01*
G37*
G36*
X190650706Y-110734196D02*
G01*
X190647822Y-110801347D01*
X190639357Y-110864449D01*
X190625728Y-110922925D01*
X190607160Y-110977213D01*
X190584071Y-111026941D01*
X190556638Y-111072324D01*
X190525164Y-111113220D01*
X190489894Y-111149575D01*
X190408620Y-111208488D01*
X190314273Y-111248125D01*
X190208375Y-111267044D01*
X190168937Y-111268447D01*
X190068426Y-111257102D01*
X189968441Y-111222811D01*
X189872594Y-111165578D01*
X189833347Y-111133716D01*
X189914314Y-111016022D01*
X189960722Y-111053022D01*
X190012560Y-111084382D01*
X190056006Y-111102901D01*
X190102442Y-111115129D01*
X190154282Y-111119795D01*
X190197351Y-111116903D01*
X190237984Y-111108386D01*
X190275837Y-111094543D01*
X190310870Y-111075586D01*
X190372240Y-111022614D01*
X190420512Y-110949806D01*
X190452986Y-110857465D01*
X190466208Y-110746715D01*
X190466333Y-110734196D01*
X190463454Y-110676016D01*
X190455024Y-110621493D01*
X190441469Y-110571277D01*
X190423052Y-110525270D01*
X190400469Y-110484381D01*
X190373759Y-110448147D01*
X190343908Y-110417473D01*
X190310656Y-110391800D01*
X190275083Y-110371774D01*
X190236769Y-110357046D01*
X190196563Y-110347957D01*
X190154186Y-110344503D01*
X190150069Y-110344476D01*
X190076365Y-110355514D01*
X190006679Y-110388297D01*
X189943806Y-110435518D01*
X189854230Y-110320204D01*
X189901153Y-110280718D01*
X189954854Y-110246108D01*
X190000931Y-110224470D01*
X190051806Y-110208171D01*
X190101159Y-110199061D01*
X190154816Y-110195735D01*
X190156389Y-110195732D01*
X190211569Y-110198645D01*
X190265354Y-110207312D01*
X190317155Y-110221566D01*
X190366746Y-110241321D01*
X190413201Y-110266157D01*
X190456695Y-110296161D01*
X190496194Y-110330610D01*
X190532067Y-110369860D01*
X190563405Y-110412990D01*
X190590521Y-110460565D01*
X190612751Y-110511672D01*
X190630194Y-110566910D01*
X190642411Y-110625568D01*
X190649270Y-110688100D01*
X190650706Y-110734196D01*
G37*
G36*
X189618108Y-111245000D02*
G01*
X189442162Y-111245000D01*
X189442162Y-110974531D01*
X189254400Y-110755995D01*
X188957462Y-111245000D01*
X188761549Y-111245000D01*
X189151635Y-110631706D01*
X188806795Y-110219180D01*
X189005456Y-110219180D01*
X189440147Y-110756453D01*
X189442162Y-110756453D01*
X189442162Y-109744371D01*
X189618108Y-109744371D01*
X189618108Y-111245000D01*
G37*
G36*
X188218597Y-110553395D02*
G01*
X188215705Y-110634225D01*
X188207186Y-110710775D01*
X188193452Y-110782186D01*
X188174667Y-110849184D01*
X188151344Y-110910993D01*
X188123524Y-110968266D01*
X188091764Y-111020399D01*
X188056025Y-111067874D01*
X188016807Y-111110303D01*
X187974084Y-111147931D01*
X187879212Y-111208244D01*
X187772576Y-111248295D01*
X187655173Y-111267120D01*
X187612997Y-111268447D01*
X187553599Y-111265546D01*
X187497338Y-111256965D01*
X187444609Y-111243064D01*
X187394640Y-111223956D01*
X187300778Y-111169686D01*
X187212414Y-111091872D01*
X187189022Y-111066122D01*
X187291695Y-110955022D01*
X187337218Y-111001288D01*
X187384496Y-111039593D01*
X187426576Y-111065687D01*
X187471036Y-111085805D01*
X187515159Y-111099092D01*
X187562223Y-111106968D01*
X187608784Y-111109353D01*
X187659745Y-111106449D01*
X187708012Y-111097842D01*
X187752753Y-111083960D01*
X187794639Y-111064863D01*
X187869311Y-111011670D01*
X187932009Y-110938142D01*
X187981608Y-110843255D01*
X188015820Y-110725850D01*
X188031499Y-110585365D01*
X188032117Y-110549182D01*
X188029221Y-110474206D01*
X188020672Y-110403861D01*
X188007092Y-110339942D01*
X187988530Y-110280831D01*
X187965948Y-110228281D01*
X187939038Y-110180625D01*
X187908987Y-110139273D01*
X187875193Y-110102858D01*
X187838792Y-110072264D01*
X187799135Y-110046675D01*
X187756957Y-110026482D01*
X187711896Y-110011462D01*
X187613564Y-109997528D01*
X187600357Y-109997346D01*
X187553653Y-110000223D01*
X187509988Y-110008635D01*
X187430159Y-110041158D01*
X187355962Y-110095830D01*
X187325309Y-110126581D01*
X187222636Y-110011176D01*
X187262040Y-109971251D01*
X187307618Y-109934209D01*
X187354982Y-109903694D01*
X187407175Y-109877805D01*
X187458901Y-109859080D01*
X187514320Y-109845878D01*
X187602464Y-109838161D01*
X187665065Y-109841070D01*
X187725466Y-109849710D01*
X187782990Y-109863812D01*
X187837919Y-109883297D01*
X187889753Y-109907881D01*
X187938600Y-109937535D01*
X187984158Y-109972056D01*
X188026322Y-110011374D01*
X188064953Y-110055454D01*
X188099757Y-110104099D01*
X188130678Y-110157482D01*
X188157305Y-110215224D01*
X188179576Y-110277693D01*
X188197050Y-110344329D01*
X188209594Y-110415631D01*
X188216810Y-110490904D01*
X188218597Y-110553395D01*
G37*
G36*
X186956838Y-111034157D02*
G01*
X186953849Y-111091236D01*
X186944646Y-111140838D01*
X186931906Y-111176427D01*
X186914358Y-111206441D01*
X186894578Y-111228298D01*
X186870700Y-111245533D01*
X186812051Y-111265405D01*
X186771275Y-111268447D01*
X186723315Y-111265577D01*
X186686305Y-111257213D01*
X186669242Y-111250495D01*
X186693239Y-111115123D01*
X186733448Y-111119795D01*
X186749056Y-111116698D01*
X186762547Y-111106747D01*
X186771604Y-111091698D01*
X186777263Y-111070022D01*
X186778785Y-111047254D01*
X186778785Y-109744371D01*
X186956838Y-109744371D01*
X186956838Y-111034157D01*
G37*
G36*
X186436693Y-110867186D02*
G01*
X186433740Y-110941653D01*
X186424795Y-111008816D01*
X186411683Y-111062370D01*
X186393625Y-111109949D01*
X186372873Y-111147894D01*
X186347900Y-111180779D01*
X186320469Y-111207061D01*
X186289179Y-111228745D01*
X186215676Y-111257892D01*
X186120887Y-111268447D01*
X186073658Y-111265573D01*
X186029276Y-111257182D01*
X185946464Y-111224440D01*
X185866429Y-111168525D01*
X185783465Y-111083799D01*
X185781175Y-111083799D01*
X185766521Y-111245000D01*
X185618143Y-111245000D01*
X185618143Y-110219180D01*
X185796196Y-110219180D01*
X185796196Y-110943756D01*
X185852058Y-111007615D01*
X185904909Y-111055777D01*
X185942069Y-111080823D01*
X185980090Y-111098618D01*
X186054073Y-111113233D01*
X186068313Y-111113566D01*
X186109637Y-111110594D01*
X186145434Y-111101513D01*
X186172115Y-111088520D01*
X186194905Y-111070598D01*
X186228359Y-111021394D01*
X186249542Y-110946153D01*
X186256533Y-110844197D01*
X186256533Y-110219180D01*
X186436693Y-110219180D01*
X186436693Y-110867186D01*
G37*
G36*
X185280355Y-111245000D02*
G01*
X185136283Y-111245000D01*
X185121628Y-111142509D01*
X185118972Y-111142509D01*
X185026051Y-111209368D01*
X184977110Y-111234074D01*
X184927697Y-111252395D01*
X184880576Y-111263634D01*
X184834502Y-111268323D01*
X184825972Y-111268447D01*
X184730840Y-111256887D01*
X184640965Y-111222608D01*
X184599008Y-111197176D01*
X184559631Y-111166406D01*
X184523220Y-111130436D01*
X184490136Y-111089382D01*
X184460842Y-111043526D01*
X184435598Y-110992868D01*
X184414866Y-110937820D01*
X184398876Y-110878264D01*
X184388037Y-110814680D01*
X184382611Y-110746880D01*
X184382069Y-110717527D01*
X184566403Y-110717527D01*
X184569278Y-110782043D01*
X184577681Y-110841587D01*
X184590978Y-110894977D01*
X184608960Y-110943161D01*
X184630654Y-110984850D01*
X184656194Y-111021221D01*
X184684358Y-111051233D01*
X184715600Y-111075890D01*
X184748793Y-111094620D01*
X184784415Y-111107924D01*
X184855373Y-111117688D01*
X184894493Y-111114645D01*
X184937579Y-111105065D01*
X184982729Y-111088664D01*
X185029778Y-111064687D01*
X185102302Y-111012725D01*
X185102302Y-110482779D01*
X185047643Y-110435962D01*
X184994248Y-110398683D01*
X184948740Y-110374211D01*
X184904061Y-110357338D01*
X184832292Y-110346583D01*
X184787941Y-110349474D01*
X184748084Y-110357992D01*
X184714049Y-110371180D01*
X184683877Y-110389090D01*
X184634604Y-110438307D01*
X184597808Y-110508077D01*
X184574057Y-110603737D01*
X184566403Y-110717527D01*
X184382069Y-110717527D01*
X184382030Y-110715420D01*
X184384951Y-110639539D01*
X184393672Y-110568478D01*
X184407245Y-110505843D01*
X184425927Y-110448123D01*
X184448190Y-110398423D01*
X184474911Y-110353586D01*
X184504321Y-110315782D01*
X184537660Y-110282764D01*
X184573452Y-110255674D01*
X184612822Y-110233392D01*
X184655102Y-110216308D01*
X184700793Y-110204245D01*
X184790252Y-110195732D01*
X184876189Y-110206730D01*
X184968285Y-110240993D01*
X185063669Y-110300017D01*
X185106332Y-110334859D01*
X185102302Y-110156531D01*
X185102302Y-109744371D01*
X185280355Y-109744371D01*
X185280355Y-111245000D01*
G37*
G36*
X183675039Y-111245000D02*
G01*
X183494879Y-111245000D01*
X183494879Y-110629508D01*
X182969879Y-110629508D01*
X182969879Y-110476734D01*
X183494879Y-110476734D01*
X183494879Y-110014474D01*
X182875357Y-110014474D01*
X182875357Y-109861608D01*
X183675039Y-109861608D01*
X183675039Y-111245000D01*
G37*
G36*
X182439751Y-110206427D02*
G01*
X182554196Y-110238707D01*
X182670603Y-110292535D01*
X182733391Y-110330096D01*
X182661126Y-110454660D01*
X182591824Y-110411756D01*
X182514195Y-110375388D01*
X182460072Y-110358047D01*
X182403025Y-110347302D01*
X182355669Y-110344476D01*
X182314729Y-110347322D01*
X182279192Y-110355523D01*
X182249465Y-110368175D01*
X182224253Y-110384955D01*
X182185174Y-110430675D01*
X182159612Y-110494701D01*
X182148752Y-110580762D01*
X182148582Y-110594337D01*
X182276159Y-110611268D01*
X182388555Y-110632723D01*
X182472822Y-110654893D01*
X182546381Y-110680799D01*
X182602224Y-110706753D01*
X182650087Y-110735868D01*
X182686513Y-110764950D01*
X182716634Y-110796810D01*
X182739270Y-110829364D01*
X182756491Y-110864540D01*
X182774915Y-110942369D01*
X182776530Y-110976546D01*
X182773656Y-111022511D01*
X182765258Y-111064975D01*
X182751803Y-111103517D01*
X182733575Y-111138353D01*
X182683807Y-111196669D01*
X182617305Y-111239087D01*
X182535241Y-111263555D01*
X182473272Y-111268447D01*
X182384069Y-111257502D01*
X182291286Y-111223925D01*
X182191535Y-111164877D01*
X182134202Y-111121535D01*
X182133561Y-111121535D01*
X182118815Y-111245000D01*
X181970529Y-111245000D01*
X181970529Y-110989918D01*
X182148582Y-110989918D01*
X182213957Y-111043599D01*
X182276502Y-111084112D01*
X182319981Y-111104330D01*
X182364142Y-111117570D01*
X182425004Y-111124008D01*
X182466679Y-111121017D01*
X182504377Y-111111803D01*
X182533049Y-111098541D01*
X182557446Y-111080124D01*
X182575218Y-111058995D01*
X182588618Y-111033349D01*
X182600515Y-110969884D01*
X182600584Y-110963998D01*
X182597565Y-110929564D01*
X182588153Y-110897473D01*
X182573833Y-110870657D01*
X182553559Y-110845690D01*
X182493355Y-110801087D01*
X182396347Y-110761119D01*
X182244423Y-110726275D01*
X182148582Y-110712489D01*
X182148582Y-110989918D01*
X181970529Y-110989918D01*
X181970529Y-110617967D01*
X181973494Y-110547304D01*
X181982526Y-110481830D01*
X181996025Y-110427653D01*
X182014762Y-110378351D01*
X182036524Y-110337938D01*
X182062874Y-110302072D01*
X182091810Y-110272821D01*
X182124962Y-110247963D01*
X182161363Y-110228176D01*
X182201931Y-110212918D01*
X182297000Y-110196642D01*
X182328375Y-110195732D01*
X182439751Y-110206427D01*
G37*
G36*
X181651884Y-111034157D02*
G01*
X181648894Y-111091236D01*
X181639691Y-111140838D01*
X181626951Y-111176427D01*
X181609403Y-111206441D01*
X181589623Y-111228298D01*
X181565745Y-111245533D01*
X181507096Y-111265405D01*
X181466320Y-111268447D01*
X181418361Y-111265577D01*
X181381350Y-111257213D01*
X181364288Y-111250495D01*
X181388285Y-111115123D01*
X181428493Y-111119795D01*
X181444101Y-111116698D01*
X181457593Y-111106747D01*
X181466649Y-111091698D01*
X181472308Y-111070022D01*
X181473831Y-111047254D01*
X181473831Y-109744371D01*
X181651884Y-109744371D01*
X181651884Y-111034157D01*
G37*
G36*
X181116992Y-111034157D02*
G01*
X181114002Y-111091236D01*
X181104799Y-111140838D01*
X181092059Y-111176427D01*
X181074511Y-111206441D01*
X181054732Y-111228298D01*
X181030853Y-111245533D01*
X180972204Y-111265405D01*
X180931428Y-111268447D01*
X180883469Y-111265577D01*
X180846459Y-111257213D01*
X180829396Y-111250495D01*
X180853393Y-111115123D01*
X180893601Y-111119795D01*
X180909209Y-111116698D01*
X180922701Y-111106747D01*
X180931757Y-111091698D01*
X180937416Y-111070022D01*
X180938939Y-111047254D01*
X180938939Y-109744371D01*
X181116992Y-109744371D01*
X181116992Y-111034157D01*
G37*
G36*
X180234908Y-110198645D02*
G01*
X180286306Y-110207312D01*
X180336072Y-110221620D01*
X180383802Y-110241463D01*
X180428742Y-110266519D01*
X180470862Y-110296813D01*
X180509264Y-110331740D01*
X180544134Y-110371563D01*
X180574643Y-110415471D01*
X180600974Y-110463934D01*
X180622489Y-110516104D01*
X180639217Y-110572517D01*
X180650714Y-110632466D01*
X180656819Y-110696393D01*
X180657754Y-110734196D01*
X180654880Y-110799170D01*
X180646485Y-110860364D01*
X180632828Y-110917966D01*
X180614284Y-110971554D01*
X180590958Y-111021487D01*
X180563360Y-111067130D01*
X180495783Y-111146081D01*
X180413758Y-111206941D01*
X180319963Y-111247900D01*
X180217769Y-111267130D01*
X180182305Y-111268447D01*
X180129690Y-111265535D01*
X180078281Y-111256879D01*
X180028436Y-111242573D01*
X179980636Y-111222742D01*
X179935588Y-111197689D01*
X179893379Y-111167413D01*
X179854893Y-111132512D01*
X179819966Y-111092743D01*
X179789438Y-111048936D01*
X179763119Y-111000623D01*
X179741664Y-110948694D01*
X179725024Y-110892590D01*
X179713655Y-110833083D01*
X179707699Y-110769686D01*
X179706856Y-110734196D01*
X179891229Y-110734196D01*
X179894115Y-110795746D01*
X179902598Y-110853086D01*
X179916045Y-110904720D01*
X179934338Y-110951645D01*
X179956351Y-110992140D01*
X179982421Y-111027630D01*
X180011053Y-111056702D01*
X180043021Y-111080614D01*
X180076925Y-111098575D01*
X180113587Y-111111214D01*
X180182305Y-111119795D01*
X180222443Y-111116903D01*
X180260322Y-111108386D01*
X180328481Y-111075455D01*
X180386262Y-111021734D01*
X180431906Y-110946941D01*
X180462261Y-110851009D01*
X180473381Y-110735164D01*
X180473381Y-110734196D01*
X180470498Y-110672629D01*
X180462040Y-110615199D01*
X180448580Y-110563160D01*
X180430289Y-110515810D01*
X180408214Y-110474728D01*
X180382106Y-110438684D01*
X180353429Y-110409070D01*
X180321472Y-110384683D01*
X180287702Y-110366354D01*
X180251276Y-110353411D01*
X180182305Y-110344476D01*
X180142007Y-110347367D01*
X180104075Y-110355882D01*
X180036155Y-110388719D01*
X179978718Y-110442267D01*
X179933250Y-110517015D01*
X179902769Y-110613357D01*
X179891239Y-110730355D01*
X179891229Y-110734196D01*
X179706856Y-110734196D01*
X179709730Y-110668458D01*
X179718125Y-110606599D01*
X179731766Y-110548474D01*
X179750285Y-110494441D01*
X179773552Y-110444181D01*
X179801074Y-110398265D01*
X179868395Y-110318962D01*
X179950064Y-110257866D01*
X180043480Y-110216677D01*
X180145383Y-110197162D01*
X180182305Y-110195732D01*
X180234908Y-110198645D01*
G37*
G36*
X179459651Y-110867186D02*
G01*
X179456699Y-110941653D01*
X179447754Y-111008816D01*
X179434642Y-111062370D01*
X179416584Y-111109949D01*
X179395831Y-111147894D01*
X179370859Y-111180779D01*
X179343428Y-111207061D01*
X179312137Y-111228745D01*
X179238635Y-111257892D01*
X179143845Y-111268447D01*
X179096617Y-111265573D01*
X179052235Y-111257182D01*
X178969423Y-111224440D01*
X178889387Y-111168525D01*
X178806424Y-111083799D01*
X178804134Y-111083799D01*
X178789480Y-111245000D01*
X178641102Y-111245000D01*
X178641102Y-110219180D01*
X178819155Y-110219180D01*
X178819155Y-110943756D01*
X178875017Y-111007615D01*
X178927867Y-111055777D01*
X178965028Y-111080823D01*
X179003049Y-111098618D01*
X179077032Y-111113233D01*
X179091272Y-111113566D01*
X179132595Y-111110594D01*
X179168393Y-111101513D01*
X179195074Y-111088520D01*
X179217864Y-111070598D01*
X179251318Y-111021394D01*
X179272501Y-110946153D01*
X179279492Y-110844197D01*
X179279492Y-110219180D01*
X179459651Y-110219180D01*
X179459651Y-110867186D01*
G37*
G36*
X178273913Y-110925988D02*
G01*
X178270876Y-110992696D01*
X178261341Y-111053904D01*
X178247854Y-111100512D01*
X178228962Y-111142315D01*
X178207600Y-111174747D01*
X178181519Y-111202851D01*
X178152764Y-111224877D01*
X178119490Y-111242669D01*
X178039513Y-111264491D01*
X177979082Y-111268447D01*
X177890445Y-111258420D01*
X177786649Y-111229704D01*
X177821728Y-111093783D01*
X177880965Y-111112960D01*
X177939240Y-111121901D01*
X177977393Y-111118992D01*
X178009374Y-111110354D01*
X178033066Y-111097884D01*
X178052412Y-111081033D01*
X178079132Y-111034706D01*
X178092593Y-110963330D01*
X178093754Y-110928094D01*
X178093754Y-110365817D01*
X177818706Y-110365817D01*
X177818706Y-110219180D01*
X178093754Y-110219180D01*
X178093754Y-109933599D01*
X178244330Y-109933599D01*
X178265396Y-110219363D01*
X178425130Y-110229896D01*
X178425130Y-110365817D01*
X178273913Y-110365817D01*
X178273913Y-110925988D01*
G37*
D11*
%TA.AperFunction,EtchedComponent*%
%TO.C,G\u002A\u002A\u002A*%
G36*
X185427854Y-96324876D02*
G01*
X185628793Y-96420190D01*
X185949374Y-96606774D01*
X186085409Y-96690977D01*
X186334896Y-96855724D01*
X186498486Y-96978825D01*
X186545995Y-97038441D01*
X186531447Y-97051291D01*
X186410640Y-97143912D01*
X186223660Y-97279013D01*
X186163955Y-97320506D01*
X185988663Y-97433239D01*
X185892835Y-97480522D01*
X185885555Y-97478858D01*
X185809120Y-97390311D01*
X185692995Y-97200513D01*
X185561078Y-96955664D01*
X185437265Y-96701964D01*
X185345453Y-96485613D01*
X185309539Y-96352813D01*
X185328436Y-96313637D01*
X185427854Y-96324876D01*
G37*
%TD.AperFunction*%
%TA.AperFunction,EtchedComponent*%
G36*
X170000720Y-103837223D02*
G01*
X170106343Y-103872325D01*
X170147328Y-103985517D01*
X170154206Y-104222401D01*
X170154206Y-104610129D01*
X169879039Y-104551051D01*
X169556513Y-104457707D01*
X169366560Y-104334812D01*
X169307539Y-104173341D01*
X169379314Y-104000226D01*
X169585274Y-103879031D01*
X169894640Y-103834674D01*
X170000720Y-103837223D01*
G37*
%TD.AperFunction*%
%TA.AperFunction,EtchedComponent*%
G36*
X170021509Y-105105136D02*
G01*
X170213679Y-105125122D01*
X170306494Y-105201154D01*
X170355289Y-105369258D01*
X170391560Y-105597046D01*
X170408206Y-105803602D01*
X170407205Y-105838288D01*
X170374302Y-105922577D01*
X170262258Y-105948426D01*
X170027252Y-105930424D01*
X169993729Y-105926431D01*
X169650662Y-105845969D01*
X169454598Y-105704305D01*
X169392206Y-105492241D01*
X169392236Y-105485742D01*
X169450752Y-105267021D01*
X169631264Y-105143507D01*
X169948889Y-105104674D01*
X170021509Y-105105136D01*
G37*
%TD.AperFunction*%
%TA.AperFunction,EtchedComponent*%
G36*
X191053346Y-98425571D02*
G01*
X190223458Y-99093202D01*
X189298621Y-99861328D01*
X189024202Y-100094680D01*
X188266157Y-100739284D01*
X187498001Y-101395327D01*
X186817316Y-101968200D01*
X186625972Y-102129238D01*
X185845563Y-102770935D01*
X185138986Y-103333598D01*
X184488456Y-103830410D01*
X183876188Y-104274552D01*
X183850915Y-104291833D01*
X183284395Y-104679207D01*
X182695292Y-105057557D01*
X182091093Y-105422783D01*
X181760125Y-105612550D01*
X181454011Y-105788067D01*
X180681833Y-106208324D01*
X179652962Y-106720274D01*
X178707130Y-107127027D01*
X177822378Y-107436906D01*
X176976751Y-107658234D01*
X176148291Y-107799334D01*
X175579168Y-107856289D01*
X174414202Y-107899992D01*
X173136001Y-107863752D01*
X171766875Y-107749690D01*
X170329135Y-107559928D01*
X168845093Y-107296585D01*
X167337058Y-106961783D01*
X166921599Y-106857408D01*
X166366455Y-106710663D01*
X165807727Y-106555982D01*
X165269332Y-106400607D01*
X164775191Y-106251778D01*
X164349222Y-106116736D01*
X164015344Y-106002721D01*
X163797477Y-105916973D01*
X163719539Y-105866733D01*
X163720081Y-105864973D01*
X163805567Y-105809519D01*
X164020408Y-105698496D01*
X164340878Y-105543407D01*
X164743255Y-105355754D01*
X165203815Y-105147042D01*
X165253370Y-105124832D01*
X165703430Y-104918082D01*
X166087723Y-104732693D01*
X166383847Y-104580158D01*
X166569401Y-104471966D01*
X166621982Y-104419608D01*
X166553101Y-104361517D01*
X166369936Y-104212306D01*
X166096745Y-103991957D01*
X165879773Y-103817886D01*
X168745502Y-103817886D01*
X168753619Y-104109080D01*
X168918549Y-104449845D01*
X168970459Y-104527521D01*
X169066943Y-104703659D01*
X169075613Y-104836973D01*
X169007776Y-104996779D01*
X168892549Y-105361845D01*
X168917013Y-105719893D01*
X169074079Y-106026458D01*
X169353233Y-106243594D01*
X169414161Y-106268570D01*
X169691295Y-106334113D01*
X170030694Y-106367870D01*
X170375406Y-106368883D01*
X170668479Y-106336193D01*
X170852959Y-106268841D01*
X170863905Y-106260167D01*
X170911792Y-106204536D01*
X170938411Y-106115884D01*
X170943094Y-105967309D01*
X170925174Y-105731906D01*
X170883986Y-105382773D01*
X170818862Y-104893008D01*
X170806235Y-104800436D01*
X170729473Y-104274753D01*
X170655362Y-103891527D01*
X170588544Y-103686227D01*
X171268681Y-103686227D01*
X171297446Y-103947397D01*
X171368181Y-104329801D01*
X171519756Y-104932299D01*
X171715428Y-105457568D01*
X171940207Y-105860879D01*
X172040599Y-105967309D01*
X172183337Y-106118631D01*
X172310641Y-106194069D01*
X172651907Y-106275295D01*
X172996409Y-106209472D01*
X173310876Y-106007209D01*
X173339499Y-105969818D01*
X174153809Y-105969818D01*
X174197959Y-106040423D01*
X174377190Y-106118789D01*
X174691179Y-106128114D01*
X175150310Y-106069436D01*
X175390456Y-106023628D01*
X175796583Y-105924159D01*
X176123071Y-105815435D01*
X176340522Y-105708038D01*
X176419539Y-105612550D01*
X176411185Y-105564546D01*
X176362344Y-105377027D01*
X176279568Y-105090917D01*
X176174081Y-104745853D01*
X176146183Y-104656695D01*
X175995901Y-104175681D01*
X175835786Y-103662255D01*
X175696090Y-103213410D01*
X175586828Y-102881585D01*
X175477172Y-102615317D01*
X175426043Y-102536980D01*
X176259570Y-102536980D01*
X176372295Y-102729932D01*
X176429117Y-102766561D01*
X176537314Y-102753280D01*
X176683897Y-102613299D01*
X176749316Y-102546111D01*
X177003682Y-102409727D01*
X177274396Y-102437593D01*
X177543410Y-102629374D01*
X177550994Y-102637363D01*
X177768660Y-102942493D01*
X177920110Y-103302873D01*
X178003875Y-103683992D01*
X178018485Y-104051344D01*
X177962471Y-104370418D01*
X177834363Y-104606708D01*
X177632691Y-104725704D01*
X177477567Y-104757544D01*
X177223872Y-104809954D01*
X177186636Y-104819644D01*
X177038842Y-104933498D01*
X177022745Y-105111707D01*
X177145253Y-105310293D01*
X177146961Y-105311984D01*
X177354703Y-105413715D01*
X177651089Y-105439540D01*
X177975204Y-105391551D01*
X178266134Y-105271837D01*
X178488568Y-105087803D01*
X178692030Y-104738802D01*
X178769477Y-104291833D01*
X178719583Y-103757168D01*
X178541018Y-103145079D01*
X178390274Y-102794862D01*
X178110671Y-102325273D01*
X177795312Y-101969326D01*
X177460264Y-101736966D01*
X177121599Y-101638134D01*
X176795385Y-101682774D01*
X176497693Y-101880828D01*
X176387636Y-102014030D01*
X176267110Y-102281920D01*
X176259570Y-102536980D01*
X175426043Y-102536980D01*
X175373120Y-102455894D01*
X175258152Y-102371558D01*
X175253962Y-102369666D01*
X175060125Y-102337933D01*
X174948530Y-102450673D01*
X174919063Y-102704464D01*
X174971608Y-103095885D01*
X175106049Y-103621514D01*
X175322273Y-104277929D01*
X175472180Y-104717047D01*
X175560824Y-105027787D01*
X175585980Y-105193724D01*
X175590512Y-105223620D01*
X175565934Y-105324701D01*
X175485830Y-105378322D01*
X175272872Y-105459961D01*
X174994866Y-105531109D01*
X174680684Y-105609779D01*
X174380362Y-105725505D01*
X174196012Y-105850069D01*
X174153809Y-105969818D01*
X173339499Y-105969818D01*
X173562039Y-105679110D01*
X173613182Y-105575970D01*
X173673090Y-105400067D01*
X173699549Y-105193724D01*
X173692985Y-104922968D01*
X173653825Y-104553827D01*
X173582498Y-104052328D01*
X173568693Y-103963198D01*
X173468188Y-103448591D01*
X173354219Y-103092469D01*
X173222944Y-102885581D01*
X173070526Y-102818674D01*
X172957426Y-102857955D01*
X172887738Y-102995718D01*
X172868921Y-103248072D01*
X172899894Y-103630988D01*
X172979574Y-104160433D01*
X173055681Y-104660033D01*
X173093012Y-105078140D01*
X173079522Y-105369575D01*
X173014159Y-105553013D01*
X172895872Y-105647129D01*
X172758734Y-105655524D01*
X172570339Y-105527443D01*
X172387617Y-105245766D01*
X172216034Y-104819589D01*
X172061058Y-104258008D01*
X172053453Y-104225414D01*
X171967741Y-103888386D01*
X171882257Y-103597272D01*
X171814451Y-103411940D01*
X171772028Y-103334384D01*
X171618534Y-103190573D01*
X171458751Y-103202030D01*
X171323102Y-103371272D01*
X171279897Y-103503996D01*
X171268681Y-103686227D01*
X170588544Y-103686227D01*
X170569696Y-103628316D01*
X170458266Y-103462679D01*
X170306865Y-103372176D01*
X170101288Y-103334365D01*
X169827326Y-103326806D01*
X169584816Y-103337142D01*
X169168821Y-103422375D01*
X168886476Y-103585804D01*
X168745502Y-103817886D01*
X165879773Y-103817886D01*
X165756092Y-103718660D01*
X165370539Y-103410608D01*
X165027886Y-103134784D01*
X164686317Y-102853994D01*
X164412308Y-102622296D01*
X164227714Y-102458207D01*
X164154393Y-102380245D01*
X164185322Y-102345257D01*
X164367271Y-102333539D01*
X164704726Y-102360680D01*
X165010432Y-102386013D01*
X165519503Y-102407905D01*
X166124044Y-102418505D01*
X166782894Y-102418225D01*
X167454894Y-102407475D01*
X168098886Y-102386664D01*
X168673710Y-102356203D01*
X169138206Y-102316502D01*
X170777351Y-102067133D01*
X172500838Y-101654462D01*
X174152372Y-101098222D01*
X175635174Y-100439072D01*
X179405836Y-100439072D01*
X179533348Y-100634860D01*
X179825652Y-100853346D01*
X180281128Y-101093095D01*
X180883050Y-101373462D01*
X180926169Y-102129710D01*
X180945366Y-102383831D01*
X181018277Y-102870923D01*
X181128580Y-103212149D01*
X181219104Y-103375096D01*
X181359962Y-103513085D01*
X181557414Y-103564452D01*
X181678913Y-103569097D01*
X181845445Y-103526574D01*
X181939563Y-103401283D01*
X181965558Y-103173899D01*
X181927724Y-102825098D01*
X181830352Y-102335553D01*
X181767140Y-102043664D01*
X181709189Y-101737793D01*
X181689258Y-101545146D01*
X181704941Y-101435632D01*
X181753830Y-101379161D01*
X181817246Y-101363354D01*
X181979655Y-101429690D01*
X182220509Y-101625503D01*
X182309079Y-101703275D01*
X182649651Y-101943967D01*
X182991469Y-102108480D01*
X183295383Y-102181151D01*
X183522245Y-102146315D01*
X183571532Y-102116861D01*
X183687296Y-101968200D01*
X183640232Y-101784521D01*
X183429765Y-101562201D01*
X182918577Y-101117989D01*
X182390609Y-100594651D01*
X181981277Y-100097424D01*
X181669950Y-99603342D01*
X181473697Y-99251747D01*
X181243058Y-98891212D01*
X181052221Y-98674168D01*
X180889633Y-98591879D01*
X180743743Y-98635613D01*
X180602998Y-98796634D01*
X180522881Y-98978297D01*
X180517609Y-99259662D01*
X180630027Y-99609655D01*
X180864685Y-100050081D01*
X180866661Y-100053357D01*
X181014939Y-100302453D01*
X181120596Y-100486019D01*
X181160872Y-100564527D01*
X181159964Y-100565538D01*
X181071968Y-100546711D01*
X180868434Y-100485245D01*
X180589372Y-100393140D01*
X180181127Y-100271299D01*
X179799336Y-100204326D01*
X179538958Y-100221707D01*
X179412280Y-100324161D01*
X179405836Y-100439072D01*
X175635174Y-100439072D01*
X175716570Y-100402889D01*
X175751581Y-100385215D01*
X176709140Y-99867981D01*
X177575039Y-99325191D01*
X178381616Y-98731123D01*
X179161208Y-98060052D01*
X179202096Y-98019745D01*
X181715292Y-98019745D01*
X181777255Y-98253946D01*
X181901268Y-98417662D01*
X182061354Y-98487495D01*
X182231532Y-98440048D01*
X182385825Y-98251922D01*
X182415841Y-98200008D01*
X182607303Y-98032961D01*
X182861734Y-98011205D01*
X183166876Y-98130453D01*
X183510472Y-98386416D01*
X183880264Y-98774804D01*
X183945038Y-98853997D01*
X184261504Y-99315699D01*
X184437882Y-99728871D01*
X184472917Y-100083822D01*
X184365356Y-100370866D01*
X184113946Y-100580313D01*
X183927690Y-100718027D01*
X183882206Y-100886215D01*
X184003253Y-101076960D01*
X184139075Y-101170284D01*
X184416023Y-101214316D01*
X184727735Y-101128994D01*
X185035616Y-100920180D01*
X185054845Y-100902517D01*
X185220552Y-100736648D01*
X185309400Y-100588201D01*
X185345228Y-100394953D01*
X185351872Y-100094680D01*
X185351281Y-100021272D01*
X185323419Y-99678758D01*
X185239361Y-99359879D01*
X185079109Y-98983138D01*
X185058772Y-98941073D01*
X184774113Y-98467241D01*
X184414485Y-98025085D01*
X184008889Y-97639104D01*
X183586326Y-97333797D01*
X183175799Y-97133663D01*
X182806308Y-97063200D01*
X182744215Y-97067382D01*
X182483594Y-97123664D01*
X182207347Y-97224227D01*
X182090313Y-97282425D01*
X181878708Y-97449638D01*
X181757074Y-97685630D01*
X181741359Y-97738458D01*
X181715292Y-98019745D01*
X179202096Y-98019745D01*
X179946154Y-97286255D01*
X180768791Y-96384008D01*
X181300046Y-95803183D01*
X184456050Y-95803183D01*
X184530520Y-96221810D01*
X184699763Y-96709207D01*
X184746442Y-96814712D01*
X184947424Y-97208560D01*
X185209049Y-97662475D01*
X185504141Y-98134101D01*
X185805522Y-98581088D01*
X186086014Y-98961082D01*
X186318441Y-99231730D01*
X186533575Y-99413427D01*
X186845356Y-99541293D01*
X187158737Y-99505087D01*
X187287119Y-99422398D01*
X187328804Y-99247405D01*
X187219134Y-98998860D01*
X186957916Y-98675963D01*
X186574293Y-98265839D01*
X186957916Y-98041021D01*
X187341539Y-97816203D01*
X187718991Y-98037405D01*
X188014671Y-98174395D01*
X188292541Y-98229419D01*
X188497554Y-98188840D01*
X188596640Y-98052107D01*
X188602251Y-98016052D01*
X188599338Y-97941365D01*
X188563983Y-97859043D01*
X188481490Y-97755636D01*
X188337160Y-97617696D01*
X188116293Y-97431772D01*
X187804192Y-97184416D01*
X187386157Y-96862178D01*
X186847490Y-96451608D01*
X186521518Y-96205407D01*
X185996989Y-95820414D01*
X185578775Y-95533554D01*
X185251947Y-95337383D01*
X185001580Y-95224457D01*
X184812746Y-95187330D01*
X184670519Y-95218557D01*
X184559972Y-95310694D01*
X184478789Y-95477689D01*
X184456050Y-95803183D01*
X181300046Y-95803183D01*
X181923042Y-95122058D01*
X183018771Y-94043061D01*
X186579539Y-94043061D01*
X186588062Y-94101016D01*
X186689801Y-94329228D01*
X186896467Y-94652005D01*
X187195430Y-95052956D01*
X187574059Y-95515690D01*
X188019724Y-96023817D01*
X188519796Y-96560946D01*
X188534648Y-96576446D01*
X188822147Y-96870335D01*
X189028974Y-97060954D01*
X189186226Y-97170088D01*
X189325000Y-97219518D01*
X189476394Y-97231028D01*
X189508860Y-97230655D01*
X189749040Y-97187979D01*
X189881539Y-97061341D01*
X189921032Y-96956584D01*
X189914685Y-96823515D01*
X189839633Y-96649620D01*
X189682501Y-96405265D01*
X189429912Y-96060817D01*
X189090602Y-95610627D01*
X189520993Y-95180236D01*
X189951384Y-94749845D01*
X190475184Y-95143593D01*
X190588358Y-95227079D01*
X190875214Y-95413880D01*
X191103263Y-95510084D01*
X191318895Y-95537341D01*
X191515942Y-95523592D01*
X191734991Y-95437346D01*
X191812989Y-95269619D01*
X191782145Y-95146895D01*
X196316206Y-95146895D01*
X196365103Y-95230847D01*
X196397428Y-95269619D01*
X196513845Y-95409253D01*
X196738487Y-95651921D01*
X197014706Y-95931528D01*
X197328779Y-96234087D01*
X197561529Y-96437594D01*
X197743359Y-96562200D01*
X197906875Y-96630227D01*
X198084688Y-96663998D01*
X198243248Y-96689800D01*
X198393183Y-96745018D01*
X198528119Y-96794712D01*
X198655633Y-96956557D01*
X198631712Y-97121993D01*
X198624215Y-97173846D01*
X198615122Y-97194433D01*
X198586553Y-97308518D01*
X198622282Y-97422898D01*
X198742910Y-97575148D01*
X198969033Y-97802842D01*
X199125398Y-97953614D01*
X199307660Y-98110271D01*
X199456869Y-98186169D01*
X199627046Y-98204331D01*
X199872206Y-98187780D01*
X200060278Y-98178248D01*
X200436935Y-98209071D01*
X200713363Y-98306224D01*
X200825293Y-98425565D01*
X200858665Y-98461146D01*
X200864795Y-98502772D01*
X200825644Y-98645993D01*
X200815807Y-98681979D01*
X200688069Y-98904636D01*
X200466687Y-99215780D01*
X200811777Y-99567401D01*
X201156867Y-99919023D01*
X201543993Y-99802515D01*
X201577824Y-99792595D01*
X201993702Y-99710468D01*
X202385361Y-99698490D01*
X202718370Y-99751491D01*
X202958296Y-99864301D01*
X203070708Y-100031752D01*
X203053266Y-100122987D01*
X203029766Y-100169993D01*
X202954948Y-100319646D01*
X202796248Y-100553768D01*
X202672043Y-100732789D01*
X202581218Y-100908686D01*
X202578221Y-100996290D01*
X202610836Y-101010153D01*
X202785016Y-101061931D01*
X203063522Y-101132825D01*
X203403764Y-101211720D01*
X203700390Y-101273651D01*
X204502792Y-101395417D01*
X205188773Y-101426024D01*
X205751432Y-101366000D01*
X206183864Y-101215874D01*
X206479169Y-100976175D01*
X206601071Y-100719870D01*
X206630305Y-100337103D01*
X206545527Y-99881526D01*
X206348848Y-99379005D01*
X206212939Y-99136746D01*
X205840223Y-98638413D01*
X205335244Y-98106624D01*
X204716399Y-97555313D01*
X204002087Y-96998411D01*
X203210705Y-96449853D01*
X202360650Y-95923570D01*
X201470322Y-95433497D01*
X200558116Y-94993565D01*
X200385311Y-94917971D01*
X199627216Y-94627434D01*
X198916981Y-94421167D01*
X198276525Y-94303481D01*
X197727762Y-94278690D01*
X197292612Y-94351104D01*
X197276527Y-94356634D01*
X197044701Y-94470372D01*
X196790047Y-94641075D01*
X196555274Y-94833936D01*
X196383091Y-95014145D01*
X196316206Y-95146895D01*
X191782145Y-95146895D01*
X191749685Y-95017739D01*
X191544829Y-94679036D01*
X191198170Y-94250838D01*
X191019551Y-94044202D01*
X190691577Y-93652192D01*
X190345114Y-93226264D01*
X190030699Y-92828008D01*
X189986781Y-92771441D01*
X189699225Y-92415503D01*
X189482396Y-92180338D01*
X189317213Y-92047213D01*
X189184594Y-91997395D01*
X189177487Y-91996613D01*
X188950571Y-92041327D01*
X188798320Y-92210683D01*
X188724013Y-92476489D01*
X188730931Y-92810555D01*
X188822352Y-93184689D01*
X189001556Y-93570698D01*
X189221556Y-93946100D01*
X188899365Y-94276054D01*
X188766897Y-94406035D01*
X188601545Y-94550020D01*
X188508998Y-94606008D01*
X188475507Y-94591468D01*
X188330566Y-94492194D01*
X188106553Y-94319576D01*
X187835798Y-94098008D01*
X187695776Y-93984471D01*
X187308483Y-93721995D01*
X186997755Y-93596377D01*
X186769051Y-93607856D01*
X186627827Y-93756671D01*
X186579539Y-94043061D01*
X183018771Y-94043061D01*
X183119628Y-93943744D01*
X184297024Y-92921384D01*
X185461448Y-92049600D01*
X186619118Y-91323013D01*
X186953089Y-91143251D01*
X187675483Y-90808864D01*
X188422979Y-90526619D01*
X189155652Y-90309168D01*
X189833580Y-90169166D01*
X190416841Y-90119267D01*
X190909809Y-90118674D01*
X193377546Y-92481259D01*
X195845284Y-94843845D01*
X196067254Y-94182280D01*
X196113125Y-94051886D01*
X196239600Y-93737217D01*
X196408382Y-93371076D01*
X196628970Y-92935046D01*
X196910863Y-92410709D01*
X197263563Y-91779648D01*
X197696566Y-91023446D01*
X197827300Y-90784693D01*
X198081896Y-90218417D01*
X198280612Y-89601125D01*
X198427724Y-88909863D01*
X198527509Y-88121678D01*
X198584244Y-87213618D01*
X198602206Y-86162729D01*
X198602206Y-84700008D01*
X198866737Y-84700008D01*
X199131267Y-84700008D01*
X199084408Y-86710841D01*
X199067804Y-87306009D01*
X199032522Y-88074224D01*
X198978158Y-88723567D01*
X198897347Y-89284193D01*
X198782728Y-89786258D01*
X198626937Y-90259917D01*
X198422613Y-90735325D01*
X198162392Y-91242637D01*
X197838913Y-91812008D01*
X197749793Y-91964749D01*
X197408142Y-92563326D01*
X197130896Y-93071373D01*
X196923238Y-93478349D01*
X196790349Y-93773712D01*
X196737410Y-93946920D01*
X196769603Y-93987431D01*
X196951423Y-93924836D01*
X197580513Y-93804674D01*
X198281958Y-93809214D01*
X199061037Y-93939937D01*
X199923032Y-94198329D01*
X200873224Y-94585873D01*
X201916894Y-95104052D01*
X203059323Y-95754349D01*
X203856629Y-96260975D01*
X204778578Y-96933864D01*
X205556814Y-97612078D01*
X206186488Y-98290245D01*
X206662751Y-98962992D01*
X206980753Y-99624946D01*
X207135647Y-100270736D01*
X207143132Y-100337103D01*
X207195872Y-100804714D01*
X207721782Y-100417267D01*
X208255664Y-99953872D01*
X208836724Y-99257941D01*
X209347242Y-98416008D01*
X209412188Y-98288310D01*
X209669967Y-97711097D01*
X209873465Y-97110328D01*
X210037168Y-96437526D01*
X210175564Y-95644214D01*
X210179353Y-95618432D01*
X210230054Y-95151034D01*
X210270482Y-94541305D01*
X210300645Y-93814248D01*
X210320549Y-92994866D01*
X210330202Y-92108161D01*
X210329609Y-91179137D01*
X210318778Y-90232798D01*
X210297715Y-89294145D01*
X210266426Y-88388183D01*
X210224919Y-87539914D01*
X210173201Y-86774341D01*
X210154173Y-86537439D01*
X210110035Y-86008942D01*
X210069036Y-85545614D01*
X210033598Y-85173375D01*
X210006146Y-84918145D01*
X209989104Y-84805841D01*
X210031658Y-84726582D01*
X210234035Y-84700008D01*
X210515217Y-84700008D01*
X210615833Y-85948841D01*
X210733051Y-87560335D01*
X210832240Y-89419226D01*
X210880462Y-91124051D01*
X210877764Y-92673738D01*
X210824190Y-94067211D01*
X210719787Y-95303399D01*
X210564601Y-96381225D01*
X210358675Y-97299618D01*
X210102057Y-98057503D01*
X209656087Y-98946905D01*
X209084261Y-99770389D01*
X208413352Y-100487554D01*
X207659568Y-101083522D01*
X206839117Y-101543413D01*
X205968206Y-101852350D01*
X205485255Y-101931392D01*
X204856918Y-101949146D01*
X204178438Y-101896139D01*
X203503315Y-101774070D01*
X203202430Y-101722460D01*
X202925305Y-101740239D01*
X202780980Y-101851740D01*
X202774928Y-102054852D01*
X202787612Y-102120947D01*
X202760939Y-102435532D01*
X202624226Y-102759259D01*
X202403233Y-103024899D01*
X202342278Y-103071834D01*
X201994356Y-103223145D01*
X201596545Y-103247559D01*
X201181389Y-103159389D01*
X200781428Y-102972946D01*
X200429203Y-102702543D01*
X200157256Y-102362492D01*
X199998129Y-101967104D01*
X199969147Y-101856791D01*
X199904056Y-101762975D01*
X199767746Y-101725071D01*
X199511210Y-101718008D01*
X199150811Y-101678960D01*
X198682884Y-101510101D01*
X198664914Y-101497695D01*
X200465004Y-101497695D01*
X200465080Y-101508639D01*
X200545056Y-101892948D01*
X200751460Y-102258441D01*
X201048893Y-102541820D01*
X201274986Y-102655171D01*
X201595952Y-102726738D01*
X201893720Y-102709754D01*
X202109825Y-102600960D01*
X202164046Y-102536757D01*
X202245579Y-102293759D01*
X202181915Y-102037050D01*
X201980094Y-101809572D01*
X201830157Y-101683826D01*
X201755454Y-101543028D01*
X201770523Y-101349149D01*
X201824995Y-101185305D01*
X201956479Y-100912062D01*
X202126805Y-100626500D01*
X202429880Y-100169993D01*
X202043882Y-100213501D01*
X201995677Y-100219490D01*
X201792833Y-100270665D01*
X201519387Y-100339652D01*
X201100090Y-100550396D01*
X200765871Y-100828880D01*
X200544814Y-101152261D01*
X200465004Y-101497695D01*
X198664914Y-101497695D01*
X198278510Y-101230936D01*
X197971783Y-100866819D01*
X197796796Y-100443104D01*
X197764836Y-100324364D01*
X197697823Y-100235983D01*
X197557728Y-100200511D01*
X197296462Y-100194008D01*
X197006602Y-100169949D01*
X196530670Y-100016443D01*
X196467698Y-99973695D01*
X198263671Y-99973695D01*
X198263747Y-99984639D01*
X198343723Y-100368948D01*
X198550126Y-100734441D01*
X198847560Y-101017820D01*
X199073653Y-101131171D01*
X199394618Y-101202738D01*
X199692386Y-101185754D01*
X199908492Y-101076960D01*
X199962713Y-101012757D01*
X200044245Y-100769759D01*
X199980582Y-100513050D01*
X199778761Y-100285572D01*
X199628824Y-100159826D01*
X199554121Y-100019028D01*
X199568482Y-99834261D01*
X200103494Y-99834261D01*
X200146836Y-99930749D01*
X200286273Y-100072203D01*
X200304295Y-100087270D01*
X200500878Y-100234062D01*
X200594085Y-100270665D01*
X200572679Y-100200674D01*
X200425423Y-100027685D01*
X200367213Y-99970250D01*
X200210376Y-99848416D01*
X200112928Y-99821214D01*
X200103494Y-99834261D01*
X199568482Y-99834261D01*
X199569190Y-99825149D01*
X199623662Y-99661305D01*
X199755146Y-99388062D01*
X199925472Y-99102500D01*
X200228547Y-98645993D01*
X199842549Y-98689501D01*
X199794343Y-98695490D01*
X199318054Y-98815652D01*
X198898757Y-99026396D01*
X198564538Y-99304880D01*
X198343481Y-99628261D01*
X198263671Y-99973695D01*
X196467698Y-99973695D01*
X196128048Y-99743128D01*
X195817899Y-99375688D01*
X195619381Y-98939807D01*
X195551656Y-98461167D01*
X195553559Y-98449695D01*
X196062337Y-98449695D01*
X196062413Y-98460639D01*
X196142389Y-98844948D01*
X196348793Y-99210441D01*
X196646227Y-99493820D01*
X196872320Y-99607171D01*
X197193285Y-99678738D01*
X197491053Y-99661754D01*
X197707158Y-99552960D01*
X197761380Y-99488757D01*
X197842912Y-99245759D01*
X197779248Y-98989050D01*
X197577427Y-98761572D01*
X197427491Y-98635826D01*
X197352788Y-98495028D01*
X197367857Y-98301149D01*
X197368431Y-98299422D01*
X197904888Y-98299422D01*
X197941840Y-98413918D01*
X198093724Y-98555595D01*
X198229816Y-98669609D01*
X198343273Y-98735031D01*
X198444089Y-98706410D01*
X198602206Y-98588237D01*
X198813872Y-98425565D01*
X198522097Y-98124453D01*
X198418765Y-98021413D01*
X198260156Y-97879152D01*
X198172839Y-97823341D01*
X198165301Y-97825137D01*
X198087008Y-97912263D01*
X197986244Y-98089928D01*
X197964919Y-98134334D01*
X197904888Y-98299422D01*
X197368431Y-98299422D01*
X197422329Y-98137305D01*
X197553813Y-97864062D01*
X197724139Y-97578500D01*
X198027213Y-97121993D01*
X197641216Y-97165501D01*
X197593010Y-97171490D01*
X197116720Y-97291652D01*
X196697424Y-97502396D01*
X196363205Y-97780880D01*
X196142148Y-98104261D01*
X196062337Y-98449695D01*
X195553559Y-98449695D01*
X195633885Y-97965452D01*
X195683554Y-97756407D01*
X195676299Y-97526616D01*
X195601376Y-97220548D01*
X195551592Y-97013079D01*
X195492558Y-96620250D01*
X195471760Y-96278174D01*
X195981358Y-96278174D01*
X195990561Y-96479843D01*
X196029274Y-96773406D01*
X196087191Y-96976674D01*
X196189206Y-97188341D01*
X196626284Y-96966679D01*
X197063362Y-96745018D01*
X196581495Y-96268179D01*
X196517596Y-96205470D01*
X196293897Y-95994588D01*
X196123302Y-95846950D01*
X196038584Y-95791341D01*
X196012463Y-95839912D01*
X195988929Y-96016627D01*
X195981358Y-96278174D01*
X195471760Y-96278174D01*
X195469539Y-96241640D01*
X195463398Y-95985162D01*
X195445402Y-95783809D01*
X195419702Y-95706674D01*
X195370720Y-95723227D01*
X195194055Y-95799619D01*
X194923657Y-95923947D01*
X194594202Y-96080507D01*
X194222335Y-96268125D01*
X193677000Y-96573302D01*
X193100113Y-96932300D01*
X192478995Y-97354454D01*
X191800966Y-97849100D01*
X191584447Y-98016052D01*
X191053346Y-98425571D01*
G37*
%TD.AperFunction*%
%TD*%
D12*
%TO.P,1,P$2,P$2*%
%TO.N,Net-(U1-LA)*%
X181235000Y-89075000D03*
%TD*%
D13*
%TO.N,Net-(U1-LA)*%
X184800000Y-78500000D03*
%TO.N,Net-(U1-LB)*%
X179950000Y-78450000D03*
X179965000Y-85265000D03*
%TD*%
D14*
%TO.N,Net-(U1-LA)*%
X181235000Y-82065000D02*
X184800000Y-78500000D01*
X181235000Y-89075000D02*
X181235000Y-82065000D01*
%TO.N,Net-(U1-LB)*%
X179965000Y-78465000D02*
X179950000Y-78450000D01*
X179965000Y-85265000D02*
X179965000Y-78465000D01*
%TD*%
M02*
