%TF.GenerationSoftware,KiCad,Pcbnew,9.0.6*%
%TF.CreationDate,2026-07-02T20:55:59+08:00*%
%TF.ProjectId,PCB-Badge,5043422d-4261-4646-9765-2e6b69636164,rev?*%
%TF.SameCoordinates,Original*%
%TF.FileFunction,Drillmap*%
%TF.FilePolarity,Positive*%
%FSLAX45Y45*%
G04 Gerber Fmt 4.5, Leading zero omitted, Abs format (unit mm)*
G04 Created by KiCad (PCBNEW 9.0.6) date 2026-07-02 20:55:59*
%MOMM*%
%LPD*%
G01*
G04 APERTURE LIST*
%ADD10C,0.050000*%
%ADD11C,0.200000*%
G04 APERTURE END LIST*
D10*
X17120000Y-15670000D02*
X18525000Y-11250000D01*
X22310000Y-8470000D02*
X17120000Y-15670000D01*
X16010000Y-6110000D02*
X19940000Y-6110000D01*
X18925000Y-8470000D02*
X22310000Y-8470000D01*
X15210000Y-11270000D02*
X18525000Y-11250000D01*
X19940000Y-6110000D02*
X18925000Y-8470000D01*
X16010000Y-6110000D02*
X15210000Y-11270000D01*
D11*
X15468277Y-15983984D02*
X15468277Y-15783984D01*
X15468277Y-15783984D02*
X15515896Y-15783984D01*
X15515896Y-15783984D02*
X15544467Y-15793508D01*
X15544467Y-15793508D02*
X15563515Y-15812555D01*
X15563515Y-15812555D02*
X15573039Y-15831603D01*
X15573039Y-15831603D02*
X15582562Y-15869698D01*
X15582562Y-15869698D02*
X15582562Y-15898269D01*
X15582562Y-15898269D02*
X15573039Y-15936365D01*
X15573039Y-15936365D02*
X15563515Y-15955412D01*
X15563515Y-15955412D02*
X15544467Y-15974460D01*
X15544467Y-15974460D02*
X15515896Y-15983984D01*
X15515896Y-15983984D02*
X15468277Y-15983984D01*
X15668277Y-15983984D02*
X15668277Y-15850650D01*
X15668277Y-15888746D02*
X15677801Y-15869698D01*
X15677801Y-15869698D02*
X15687324Y-15860174D01*
X15687324Y-15860174D02*
X15706372Y-15850650D01*
X15706372Y-15850650D02*
X15725420Y-15850650D01*
X15792086Y-15983984D02*
X15792086Y-15850650D01*
X15792086Y-15783984D02*
X15782562Y-15793508D01*
X15782562Y-15793508D02*
X15792086Y-15803031D01*
X15792086Y-15803031D02*
X15801610Y-15793508D01*
X15801610Y-15793508D02*
X15792086Y-15783984D01*
X15792086Y-15783984D02*
X15792086Y-15803031D01*
X15915896Y-15983984D02*
X15896848Y-15974460D01*
X15896848Y-15974460D02*
X15887324Y-15955412D01*
X15887324Y-15955412D02*
X15887324Y-15783984D01*
X16020658Y-15983984D02*
X16001610Y-15974460D01*
X16001610Y-15974460D02*
X15992086Y-15955412D01*
X15992086Y-15955412D02*
X15992086Y-15783984D01*
X16249229Y-15983984D02*
X16249229Y-15783984D01*
X16249229Y-15783984D02*
X16315896Y-15926841D01*
X16315896Y-15926841D02*
X16382562Y-15783984D01*
X16382562Y-15783984D02*
X16382562Y-15983984D01*
X16563515Y-15983984D02*
X16563515Y-15879222D01*
X16563515Y-15879222D02*
X16553991Y-15860174D01*
X16553991Y-15860174D02*
X16534943Y-15850650D01*
X16534943Y-15850650D02*
X16496848Y-15850650D01*
X16496848Y-15850650D02*
X16477801Y-15860174D01*
X16563515Y-15974460D02*
X16544467Y-15983984D01*
X16544467Y-15983984D02*
X16496848Y-15983984D01*
X16496848Y-15983984D02*
X16477801Y-15974460D01*
X16477801Y-15974460D02*
X16468277Y-15955412D01*
X16468277Y-15955412D02*
X16468277Y-15936365D01*
X16468277Y-15936365D02*
X16477801Y-15917317D01*
X16477801Y-15917317D02*
X16496848Y-15907793D01*
X16496848Y-15907793D02*
X16544467Y-15907793D01*
X16544467Y-15907793D02*
X16563515Y-15898269D01*
X16658753Y-15850650D02*
X16658753Y-16050650D01*
X16658753Y-15860174D02*
X16677801Y-15850650D01*
X16677801Y-15850650D02*
X16715896Y-15850650D01*
X16715896Y-15850650D02*
X16734943Y-15860174D01*
X16734943Y-15860174D02*
X16744467Y-15869698D01*
X16744467Y-15869698D02*
X16753991Y-15888746D01*
X16753991Y-15888746D02*
X16753991Y-15945888D01*
X16753991Y-15945888D02*
X16744467Y-15964936D01*
X16744467Y-15964936D02*
X16734943Y-15974460D01*
X16734943Y-15974460D02*
X16715896Y-15983984D01*
X16715896Y-15983984D02*
X16677801Y-15983984D01*
X16677801Y-15983984D02*
X16658753Y-15974460D01*
X16839705Y-15964936D02*
X16849229Y-15974460D01*
X16849229Y-15974460D02*
X16839705Y-15983984D01*
X16839705Y-15983984D02*
X16830182Y-15974460D01*
X16830182Y-15974460D02*
X16839705Y-15964936D01*
X16839705Y-15964936D02*
X16839705Y-15983984D01*
X16839705Y-15860174D02*
X16849229Y-15869698D01*
X16849229Y-15869698D02*
X16839705Y-15879222D01*
X16839705Y-15879222D02*
X16830182Y-15869698D01*
X16830182Y-15869698D02*
X16839705Y-15860174D01*
X16839705Y-15860174D02*
X16839705Y-15879222D01*
M02*
