%TF.GenerationSoftware,KiCad,Pcbnew,9.0.6*%
%TF.CreationDate,2026-07-02T20:55:59+08:00*%
%TF.ProjectId,PCB-Badge,5043422d-4261-4646-9765-2e6b69636164,rev?*%
%TF.SameCoordinates,Original*%
%TF.FileFunction,Drillmap*%
%TF.FilePolarity,Positive*%
%FSLAX45Y45*%
G04 Gerber Fmt 4.5, Leading zero omitted, Abs format (unit mm)*
G04 Created by KiCad (PCBNEW 9.0.6) date 2026-07-02 20:55:59*
%MOMM*%
%LPD*%
G01*
G04 APERTURE LIST*
%ADD10C,0.050000*%
%ADD11C,0.200000*%
%ADD12C,0.100000*%
G04 APERTURE END LIST*
D10*
X17120000Y-15670000D02*
X18525000Y-11250000D01*
X22310000Y-8470000D02*
X17120000Y-15670000D01*
X16010000Y-6110000D02*
X19940000Y-6110000D01*
X18925000Y-8470000D02*
X22310000Y-8470000D01*
X15210000Y-11270000D02*
X18525000Y-11250000D01*
X19940000Y-6110000D02*
X18925000Y-8470000D01*
X16010000Y-6110000D02*
X15210000Y-11270000D01*
D11*
D12*
X17980000Y-7830000D02*
X18010000Y-7860000D01*
X18010000Y-7830000D02*
X17980000Y-7860000D01*
X17981500Y-8511500D02*
X18011500Y-8541500D01*
X18011500Y-8511500D02*
X17981500Y-8541500D01*
X18465000Y-7835000D02*
X18495000Y-7865000D01*
X18495000Y-7835000D02*
X18465000Y-7865000D01*
X18138510Y-8907500D02*
G75*
G02*
X18108490Y-8907500I-15010J0D01*
G01*
X18108490Y-8907500D02*
G75*
G02*
X18138510Y-8907500I15010J0D01*
G01*
X18123485Y-8922510D02*
X18123515Y-8922510D01*
X18123515Y-8892490D02*
G75*
G02*
X18123515Y-8922510I0J-15010D01*
G01*
X18123515Y-8892490D02*
X18123485Y-8892490D01*
X18123485Y-8892490D02*
G75*
G03*
X18123485Y-8922510I0J-15010D01*
G01*
D11*
X15468277Y-15983984D02*
X15468277Y-15783984D01*
X15468277Y-15783984D02*
X15515896Y-15783984D01*
X15515896Y-15783984D02*
X15544467Y-15793508D01*
X15544467Y-15793508D02*
X15563515Y-15812555D01*
X15563515Y-15812555D02*
X15573039Y-15831603D01*
X15573039Y-15831603D02*
X15582562Y-15869698D01*
X15582562Y-15869698D02*
X15582562Y-15898269D01*
X15582562Y-15898269D02*
X15573039Y-15936365D01*
X15573039Y-15936365D02*
X15563515Y-15955412D01*
X15563515Y-15955412D02*
X15544467Y-15974460D01*
X15544467Y-15974460D02*
X15515896Y-15983984D01*
X15515896Y-15983984D02*
X15468277Y-15983984D01*
X15668277Y-15983984D02*
X15668277Y-15850650D01*
X15668277Y-15888746D02*
X15677801Y-15869698D01*
X15677801Y-15869698D02*
X15687324Y-15860174D01*
X15687324Y-15860174D02*
X15706372Y-15850650D01*
X15706372Y-15850650D02*
X15725420Y-15850650D01*
X15792086Y-15983984D02*
X15792086Y-15850650D01*
X15792086Y-15783984D02*
X15782562Y-15793508D01*
X15782562Y-15793508D02*
X15792086Y-15803031D01*
X15792086Y-15803031D02*
X15801610Y-15793508D01*
X15801610Y-15793508D02*
X15792086Y-15783984D01*
X15792086Y-15783984D02*
X15792086Y-15803031D01*
X15915896Y-15983984D02*
X15896848Y-15974460D01*
X15896848Y-15974460D02*
X15887324Y-15955412D01*
X15887324Y-15955412D02*
X15887324Y-15783984D01*
X16020658Y-15983984D02*
X16001610Y-15974460D01*
X16001610Y-15974460D02*
X15992086Y-15955412D01*
X15992086Y-15955412D02*
X15992086Y-15783984D01*
X16249229Y-15983984D02*
X16249229Y-15783984D01*
X16249229Y-15783984D02*
X16315896Y-15926841D01*
X16315896Y-15926841D02*
X16382562Y-15783984D01*
X16382562Y-15783984D02*
X16382562Y-15983984D01*
X16563515Y-15983984D02*
X16563515Y-15879222D01*
X16563515Y-15879222D02*
X16553991Y-15860174D01*
X16553991Y-15860174D02*
X16534943Y-15850650D01*
X16534943Y-15850650D02*
X16496848Y-15850650D01*
X16496848Y-15850650D02*
X16477801Y-15860174D01*
X16563515Y-15974460D02*
X16544467Y-15983984D01*
X16544467Y-15983984D02*
X16496848Y-15983984D01*
X16496848Y-15983984D02*
X16477801Y-15974460D01*
X16477801Y-15974460D02*
X16468277Y-15955412D01*
X16468277Y-15955412D02*
X16468277Y-15936365D01*
X16468277Y-15936365D02*
X16477801Y-15917317D01*
X16477801Y-15917317D02*
X16496848Y-15907793D01*
X16496848Y-15907793D02*
X16544467Y-15907793D01*
X16544467Y-15907793D02*
X16563515Y-15898269D01*
X16658753Y-15850650D02*
X16658753Y-16050650D01*
X16658753Y-15860174D02*
X16677801Y-15850650D01*
X16677801Y-15850650D02*
X16715896Y-15850650D01*
X16715896Y-15850650D02*
X16734943Y-15860174D01*
X16734943Y-15860174D02*
X16744467Y-15869698D01*
X16744467Y-15869698D02*
X16753991Y-15888746D01*
X16753991Y-15888746D02*
X16753991Y-15945888D01*
X16753991Y-15945888D02*
X16744467Y-15964936D01*
X16744467Y-15964936D02*
X16734943Y-15974460D01*
X16734943Y-15974460D02*
X16715896Y-15983984D01*
X16715896Y-15983984D02*
X16677801Y-15983984D01*
X16677801Y-15983984D02*
X16658753Y-15974460D01*
X16839705Y-15964936D02*
X16849229Y-15974460D01*
X16849229Y-15974460D02*
X16839705Y-15983984D01*
X16839705Y-15983984D02*
X16830182Y-15974460D01*
X16830182Y-15974460D02*
X16839705Y-15964936D01*
X16839705Y-15964936D02*
X16839705Y-15983984D01*
X16839705Y-15860174D02*
X16849229Y-15869698D01*
X16849229Y-15869698D02*
X16839705Y-15879222D01*
X16839705Y-15879222D02*
X16830182Y-15869698D01*
X16830182Y-15869698D02*
X16839705Y-15860174D01*
X16839705Y-15860174D02*
X16839705Y-15879222D01*
D12*
X15177500Y-16297500D02*
X15207500Y-16327500D01*
X15207500Y-16297500D02*
X15177500Y-16327500D01*
D11*
X15506372Y-16203984D02*
X15525420Y-16203984D01*
X15525420Y-16203984D02*
X15544467Y-16213508D01*
X15544467Y-16213508D02*
X15553991Y-16223031D01*
X15553991Y-16223031D02*
X15563515Y-16242079D01*
X15563515Y-16242079D02*
X15573039Y-16280174D01*
X15573039Y-16280174D02*
X15573039Y-16327793D01*
X15573039Y-16327793D02*
X15563515Y-16365888D01*
X15563515Y-16365888D02*
X15553991Y-16384936D01*
X15553991Y-16384936D02*
X15544467Y-16394460D01*
X15544467Y-16394460D02*
X15525420Y-16403984D01*
X15525420Y-16403984D02*
X15506372Y-16403984D01*
X15506372Y-16403984D02*
X15487324Y-16394460D01*
X15487324Y-16394460D02*
X15477801Y-16384936D01*
X15477801Y-16384936D02*
X15468277Y-16365888D01*
X15468277Y-16365888D02*
X15458753Y-16327793D01*
X15458753Y-16327793D02*
X15458753Y-16280174D01*
X15458753Y-16280174D02*
X15468277Y-16242079D01*
X15468277Y-16242079D02*
X15477801Y-16223031D01*
X15477801Y-16223031D02*
X15487324Y-16213508D01*
X15487324Y-16213508D02*
X15506372Y-16203984D01*
X15658753Y-16384936D02*
X15668277Y-16394460D01*
X15668277Y-16394460D02*
X15658753Y-16403984D01*
X15658753Y-16403984D02*
X15649229Y-16394460D01*
X15649229Y-16394460D02*
X15658753Y-16384936D01*
X15658753Y-16384936D02*
X15658753Y-16403984D01*
X15734943Y-16203984D02*
X15858753Y-16203984D01*
X15858753Y-16203984D02*
X15792086Y-16280174D01*
X15792086Y-16280174D02*
X15820658Y-16280174D01*
X15820658Y-16280174D02*
X15839705Y-16289698D01*
X15839705Y-16289698D02*
X15849229Y-16299222D01*
X15849229Y-16299222D02*
X15858753Y-16318269D01*
X15858753Y-16318269D02*
X15858753Y-16365888D01*
X15858753Y-16365888D02*
X15849229Y-16384936D01*
X15849229Y-16384936D02*
X15839705Y-16394460D01*
X15839705Y-16394460D02*
X15820658Y-16403984D01*
X15820658Y-16403984D02*
X15763515Y-16403984D01*
X15763515Y-16403984D02*
X15744467Y-16394460D01*
X15744467Y-16394460D02*
X15734943Y-16384936D01*
X15982562Y-16203984D02*
X16001610Y-16203984D01*
X16001610Y-16203984D02*
X16020658Y-16213508D01*
X16020658Y-16213508D02*
X16030182Y-16223031D01*
X16030182Y-16223031D02*
X16039705Y-16242079D01*
X16039705Y-16242079D02*
X16049229Y-16280174D01*
X16049229Y-16280174D02*
X16049229Y-16327793D01*
X16049229Y-16327793D02*
X16039705Y-16365888D01*
X16039705Y-16365888D02*
X16030182Y-16384936D01*
X16030182Y-16384936D02*
X16020658Y-16394460D01*
X16020658Y-16394460D02*
X16001610Y-16403984D01*
X16001610Y-16403984D02*
X15982562Y-16403984D01*
X15982562Y-16403984D02*
X15963515Y-16394460D01*
X15963515Y-16394460D02*
X15953991Y-16384936D01*
X15953991Y-16384936D02*
X15944467Y-16365888D01*
X15944467Y-16365888D02*
X15934943Y-16327793D01*
X15934943Y-16327793D02*
X15934943Y-16280174D01*
X15934943Y-16280174D02*
X15944467Y-16242079D01*
X15944467Y-16242079D02*
X15953991Y-16223031D01*
X15953991Y-16223031D02*
X15963515Y-16213508D01*
X15963515Y-16213508D02*
X15982562Y-16203984D01*
X16173039Y-16203984D02*
X16192086Y-16203984D01*
X16192086Y-16203984D02*
X16211134Y-16213508D01*
X16211134Y-16213508D02*
X16220658Y-16223031D01*
X16220658Y-16223031D02*
X16230182Y-16242079D01*
X16230182Y-16242079D02*
X16239705Y-16280174D01*
X16239705Y-16280174D02*
X16239705Y-16327793D01*
X16239705Y-16327793D02*
X16230182Y-16365888D01*
X16230182Y-16365888D02*
X16220658Y-16384936D01*
X16220658Y-16384936D02*
X16211134Y-16394460D01*
X16211134Y-16394460D02*
X16192086Y-16403984D01*
X16192086Y-16403984D02*
X16173039Y-16403984D01*
X16173039Y-16403984D02*
X16153991Y-16394460D01*
X16153991Y-16394460D02*
X16144467Y-16384936D01*
X16144467Y-16384936D02*
X16134943Y-16365888D01*
X16134943Y-16365888D02*
X16125420Y-16327793D01*
X16125420Y-16327793D02*
X16125420Y-16280174D01*
X16125420Y-16280174D02*
X16134943Y-16242079D01*
X16134943Y-16242079D02*
X16144467Y-16223031D01*
X16144467Y-16223031D02*
X16153991Y-16213508D01*
X16153991Y-16213508D02*
X16173039Y-16203984D01*
X16325420Y-16403984D02*
X16325420Y-16270650D01*
X16325420Y-16289698D02*
X16334943Y-16280174D01*
X16334943Y-16280174D02*
X16353991Y-16270650D01*
X16353991Y-16270650D02*
X16382563Y-16270650D01*
X16382563Y-16270650D02*
X16401610Y-16280174D01*
X16401610Y-16280174D02*
X16411134Y-16299222D01*
X16411134Y-16299222D02*
X16411134Y-16403984D01*
X16411134Y-16299222D02*
X16420658Y-16280174D01*
X16420658Y-16280174D02*
X16439705Y-16270650D01*
X16439705Y-16270650D02*
X16468277Y-16270650D01*
X16468277Y-16270650D02*
X16487324Y-16280174D01*
X16487324Y-16280174D02*
X16496848Y-16299222D01*
X16496848Y-16299222D02*
X16496848Y-16403984D01*
X16592086Y-16403984D02*
X16592086Y-16270650D01*
X16592086Y-16289698D02*
X16601610Y-16280174D01*
X16601610Y-16280174D02*
X16620658Y-16270650D01*
X16620658Y-16270650D02*
X16649229Y-16270650D01*
X16649229Y-16270650D02*
X16668277Y-16280174D01*
X16668277Y-16280174D02*
X16677801Y-16299222D01*
X16677801Y-16299222D02*
X16677801Y-16403984D01*
X16677801Y-16299222D02*
X16687324Y-16280174D01*
X16687324Y-16280174D02*
X16706372Y-16270650D01*
X16706372Y-16270650D02*
X16734943Y-16270650D01*
X16734943Y-16270650D02*
X16753991Y-16280174D01*
X16753991Y-16280174D02*
X16763515Y-16299222D01*
X16763515Y-16299222D02*
X16763515Y-16403984D01*
X17153991Y-16194460D02*
X16982563Y-16451603D01*
X17411134Y-16203984D02*
X17430182Y-16203984D01*
X17430182Y-16203984D02*
X17449229Y-16213508D01*
X17449229Y-16213508D02*
X17458753Y-16223031D01*
X17458753Y-16223031D02*
X17468277Y-16242079D01*
X17468277Y-16242079D02*
X17477801Y-16280174D01*
X17477801Y-16280174D02*
X17477801Y-16327793D01*
X17477801Y-16327793D02*
X17468277Y-16365888D01*
X17468277Y-16365888D02*
X17458753Y-16384936D01*
X17458753Y-16384936D02*
X17449229Y-16394460D01*
X17449229Y-16394460D02*
X17430182Y-16403984D01*
X17430182Y-16403984D02*
X17411134Y-16403984D01*
X17411134Y-16403984D02*
X17392087Y-16394460D01*
X17392087Y-16394460D02*
X17382563Y-16384936D01*
X17382563Y-16384936D02*
X17373039Y-16365888D01*
X17373039Y-16365888D02*
X17363515Y-16327793D01*
X17363515Y-16327793D02*
X17363515Y-16280174D01*
X17363515Y-16280174D02*
X17373039Y-16242079D01*
X17373039Y-16242079D02*
X17382563Y-16223031D01*
X17382563Y-16223031D02*
X17392087Y-16213508D01*
X17392087Y-16213508D02*
X17411134Y-16203984D01*
X17563515Y-16384936D02*
X17573039Y-16394460D01*
X17573039Y-16394460D02*
X17563515Y-16403984D01*
X17563515Y-16403984D02*
X17553991Y-16394460D01*
X17553991Y-16394460D02*
X17563515Y-16384936D01*
X17563515Y-16384936D02*
X17563515Y-16403984D01*
X17696848Y-16203984D02*
X17715896Y-16203984D01*
X17715896Y-16203984D02*
X17734944Y-16213508D01*
X17734944Y-16213508D02*
X17744468Y-16223031D01*
X17744468Y-16223031D02*
X17753991Y-16242079D01*
X17753991Y-16242079D02*
X17763515Y-16280174D01*
X17763515Y-16280174D02*
X17763515Y-16327793D01*
X17763515Y-16327793D02*
X17753991Y-16365888D01*
X17753991Y-16365888D02*
X17744468Y-16384936D01*
X17744468Y-16384936D02*
X17734944Y-16394460D01*
X17734944Y-16394460D02*
X17715896Y-16403984D01*
X17715896Y-16403984D02*
X17696848Y-16403984D01*
X17696848Y-16403984D02*
X17677801Y-16394460D01*
X17677801Y-16394460D02*
X17668277Y-16384936D01*
X17668277Y-16384936D02*
X17658753Y-16365888D01*
X17658753Y-16365888D02*
X17649229Y-16327793D01*
X17649229Y-16327793D02*
X17649229Y-16280174D01*
X17649229Y-16280174D02*
X17658753Y-16242079D01*
X17658753Y-16242079D02*
X17668277Y-16223031D01*
X17668277Y-16223031D02*
X17677801Y-16213508D01*
X17677801Y-16213508D02*
X17696848Y-16203984D01*
X17953991Y-16403984D02*
X17839706Y-16403984D01*
X17896848Y-16403984D02*
X17896848Y-16203984D01*
X17896848Y-16203984D02*
X17877801Y-16232555D01*
X17877801Y-16232555D02*
X17858753Y-16251603D01*
X17858753Y-16251603D02*
X17839706Y-16261127D01*
X18144468Y-16403984D02*
X18030182Y-16403984D01*
X18087325Y-16403984D02*
X18087325Y-16203984D01*
X18087325Y-16203984D02*
X18068277Y-16232555D01*
X18068277Y-16232555D02*
X18049229Y-16251603D01*
X18049229Y-16251603D02*
X18030182Y-16261127D01*
X18258753Y-16289698D02*
X18239706Y-16280174D01*
X18239706Y-16280174D02*
X18230182Y-16270650D01*
X18230182Y-16270650D02*
X18220658Y-16251603D01*
X18220658Y-16251603D02*
X18220658Y-16242079D01*
X18220658Y-16242079D02*
X18230182Y-16223031D01*
X18230182Y-16223031D02*
X18239706Y-16213508D01*
X18239706Y-16213508D02*
X18258753Y-16203984D01*
X18258753Y-16203984D02*
X18296849Y-16203984D01*
X18296849Y-16203984D02*
X18315896Y-16213508D01*
X18315896Y-16213508D02*
X18325420Y-16223031D01*
X18325420Y-16223031D02*
X18334944Y-16242079D01*
X18334944Y-16242079D02*
X18334944Y-16251603D01*
X18334944Y-16251603D02*
X18325420Y-16270650D01*
X18325420Y-16270650D02*
X18315896Y-16280174D01*
X18315896Y-16280174D02*
X18296849Y-16289698D01*
X18296849Y-16289698D02*
X18258753Y-16289698D01*
X18258753Y-16289698D02*
X18239706Y-16299222D01*
X18239706Y-16299222D02*
X18230182Y-16308746D01*
X18230182Y-16308746D02*
X18220658Y-16327793D01*
X18220658Y-16327793D02*
X18220658Y-16365888D01*
X18220658Y-16365888D02*
X18230182Y-16384936D01*
X18230182Y-16384936D02*
X18239706Y-16394460D01*
X18239706Y-16394460D02*
X18258753Y-16403984D01*
X18258753Y-16403984D02*
X18296849Y-16403984D01*
X18296849Y-16403984D02*
X18315896Y-16394460D01*
X18315896Y-16394460D02*
X18325420Y-16384936D01*
X18325420Y-16384936D02*
X18334944Y-16365888D01*
X18334944Y-16365888D02*
X18334944Y-16327793D01*
X18334944Y-16327793D02*
X18325420Y-16308746D01*
X18325420Y-16308746D02*
X18315896Y-16299222D01*
X18315896Y-16299222D02*
X18296849Y-16289698D01*
X18411134Y-16203984D02*
X18411134Y-16242079D01*
X18487325Y-16203984D02*
X18487325Y-16242079D01*
X18782563Y-16480174D02*
X18773039Y-16470650D01*
X18773039Y-16470650D02*
X18753991Y-16442079D01*
X18753991Y-16442079D02*
X18744468Y-16423031D01*
X18744468Y-16423031D02*
X18734944Y-16394460D01*
X18734944Y-16394460D02*
X18725420Y-16346841D01*
X18725420Y-16346841D02*
X18725420Y-16308746D01*
X18725420Y-16308746D02*
X18734944Y-16261127D01*
X18734944Y-16261127D02*
X18744468Y-16232555D01*
X18744468Y-16232555D02*
X18753991Y-16213508D01*
X18753991Y-16213508D02*
X18773039Y-16184936D01*
X18773039Y-16184936D02*
X18782563Y-16175412D01*
X18839706Y-16203984D02*
X18963515Y-16203984D01*
X18963515Y-16203984D02*
X18896849Y-16280174D01*
X18896849Y-16280174D02*
X18925420Y-16280174D01*
X18925420Y-16280174D02*
X18944468Y-16289698D01*
X18944468Y-16289698D02*
X18953991Y-16299222D01*
X18953991Y-16299222D02*
X18963515Y-16318269D01*
X18963515Y-16318269D02*
X18963515Y-16365888D01*
X18963515Y-16365888D02*
X18953991Y-16384936D01*
X18953991Y-16384936D02*
X18944468Y-16394460D01*
X18944468Y-16394460D02*
X18925420Y-16403984D01*
X18925420Y-16403984D02*
X18868277Y-16403984D01*
X18868277Y-16403984D02*
X18849230Y-16394460D01*
X18849230Y-16394460D02*
X18839706Y-16384936D01*
X19201611Y-16403984D02*
X19201611Y-16203984D01*
X19287325Y-16403984D02*
X19287325Y-16299222D01*
X19287325Y-16299222D02*
X19277801Y-16280174D01*
X19277801Y-16280174D02*
X19258753Y-16270650D01*
X19258753Y-16270650D02*
X19230182Y-16270650D01*
X19230182Y-16270650D02*
X19211134Y-16280174D01*
X19211134Y-16280174D02*
X19201611Y-16289698D01*
X19411134Y-16403984D02*
X19392087Y-16394460D01*
X19392087Y-16394460D02*
X19382563Y-16384936D01*
X19382563Y-16384936D02*
X19373039Y-16365888D01*
X19373039Y-16365888D02*
X19373039Y-16308746D01*
X19373039Y-16308746D02*
X19382563Y-16289698D01*
X19382563Y-16289698D02*
X19392087Y-16280174D01*
X19392087Y-16280174D02*
X19411134Y-16270650D01*
X19411134Y-16270650D02*
X19439706Y-16270650D01*
X19439706Y-16270650D02*
X19458753Y-16280174D01*
X19458753Y-16280174D02*
X19468277Y-16289698D01*
X19468277Y-16289698D02*
X19477801Y-16308746D01*
X19477801Y-16308746D02*
X19477801Y-16365888D01*
X19477801Y-16365888D02*
X19468277Y-16384936D01*
X19468277Y-16384936D02*
X19458753Y-16394460D01*
X19458753Y-16394460D02*
X19439706Y-16403984D01*
X19439706Y-16403984D02*
X19411134Y-16403984D01*
X19592087Y-16403984D02*
X19573039Y-16394460D01*
X19573039Y-16394460D02*
X19563515Y-16375412D01*
X19563515Y-16375412D02*
X19563515Y-16203984D01*
X19744468Y-16394460D02*
X19725420Y-16403984D01*
X19725420Y-16403984D02*
X19687325Y-16403984D01*
X19687325Y-16403984D02*
X19668277Y-16394460D01*
X19668277Y-16394460D02*
X19658753Y-16375412D01*
X19658753Y-16375412D02*
X19658753Y-16299222D01*
X19658753Y-16299222D02*
X19668277Y-16280174D01*
X19668277Y-16280174D02*
X19687325Y-16270650D01*
X19687325Y-16270650D02*
X19725420Y-16270650D01*
X19725420Y-16270650D02*
X19744468Y-16280174D01*
X19744468Y-16280174D02*
X19753992Y-16299222D01*
X19753992Y-16299222D02*
X19753992Y-16318269D01*
X19753992Y-16318269D02*
X19658753Y-16337317D01*
X19830182Y-16394460D02*
X19849230Y-16403984D01*
X19849230Y-16403984D02*
X19887325Y-16403984D01*
X19887325Y-16403984D02*
X19906373Y-16394460D01*
X19906373Y-16394460D02*
X19915896Y-16375412D01*
X19915896Y-16375412D02*
X19915896Y-16365888D01*
X19915896Y-16365888D02*
X19906373Y-16346841D01*
X19906373Y-16346841D02*
X19887325Y-16337317D01*
X19887325Y-16337317D02*
X19858753Y-16337317D01*
X19858753Y-16337317D02*
X19839706Y-16327793D01*
X19839706Y-16327793D02*
X19830182Y-16308746D01*
X19830182Y-16308746D02*
X19830182Y-16299222D01*
X19830182Y-16299222D02*
X19839706Y-16280174D01*
X19839706Y-16280174D02*
X19858753Y-16270650D01*
X19858753Y-16270650D02*
X19887325Y-16270650D01*
X19887325Y-16270650D02*
X19906373Y-16280174D01*
X19982563Y-16480174D02*
X19992087Y-16470650D01*
X19992087Y-16470650D02*
X20011134Y-16442079D01*
X20011134Y-16442079D02*
X20020658Y-16423031D01*
X20020658Y-16423031D02*
X20030182Y-16394460D01*
X20030182Y-16394460D02*
X20039706Y-16346841D01*
X20039706Y-16346841D02*
X20039706Y-16308746D01*
X20039706Y-16308746D02*
X20030182Y-16261127D01*
X20030182Y-16261127D02*
X20020658Y-16232555D01*
X20020658Y-16232555D02*
X20011134Y-16213508D01*
X20011134Y-16213508D02*
X19992087Y-16184936D01*
X19992087Y-16184936D02*
X19982563Y-16175412D01*
D12*
X15207500Y-16576500D02*
G75*
G02*
X15177480Y-16576500I-15010J0D01*
G01*
X15177480Y-16576500D02*
G75*
G02*
X15207500Y-16576500I15010J0D01*
G01*
D11*
X15506372Y-16467984D02*
X15525420Y-16467984D01*
X15525420Y-16467984D02*
X15544467Y-16477508D01*
X15544467Y-16477508D02*
X15553991Y-16487031D01*
X15553991Y-16487031D02*
X15563515Y-16506079D01*
X15563515Y-16506079D02*
X15573039Y-16544174D01*
X15573039Y-16544174D02*
X15573039Y-16591793D01*
X15573039Y-16591793D02*
X15563515Y-16629888D01*
X15563515Y-16629888D02*
X15553991Y-16648936D01*
X15553991Y-16648936D02*
X15544467Y-16658460D01*
X15544467Y-16658460D02*
X15525420Y-16667984D01*
X15525420Y-16667984D02*
X15506372Y-16667984D01*
X15506372Y-16667984D02*
X15487324Y-16658460D01*
X15487324Y-16658460D02*
X15477801Y-16648936D01*
X15477801Y-16648936D02*
X15468277Y-16629888D01*
X15468277Y-16629888D02*
X15458753Y-16591793D01*
X15458753Y-16591793D02*
X15458753Y-16544174D01*
X15458753Y-16544174D02*
X15468277Y-16506079D01*
X15468277Y-16506079D02*
X15477801Y-16487031D01*
X15477801Y-16487031D02*
X15487324Y-16477508D01*
X15487324Y-16477508D02*
X15506372Y-16467984D01*
X15658753Y-16648936D02*
X15668277Y-16658460D01*
X15668277Y-16658460D02*
X15658753Y-16667984D01*
X15658753Y-16667984D02*
X15649229Y-16658460D01*
X15649229Y-16658460D02*
X15658753Y-16648936D01*
X15658753Y-16648936D02*
X15658753Y-16667984D01*
X15734943Y-16467984D02*
X15858753Y-16467984D01*
X15858753Y-16467984D02*
X15792086Y-16544174D01*
X15792086Y-16544174D02*
X15820658Y-16544174D01*
X15820658Y-16544174D02*
X15839705Y-16553698D01*
X15839705Y-16553698D02*
X15849229Y-16563222D01*
X15849229Y-16563222D02*
X15858753Y-16582269D01*
X15858753Y-16582269D02*
X15858753Y-16629888D01*
X15858753Y-16629888D02*
X15849229Y-16648936D01*
X15849229Y-16648936D02*
X15839705Y-16658460D01*
X15839705Y-16658460D02*
X15820658Y-16667984D01*
X15820658Y-16667984D02*
X15763515Y-16667984D01*
X15763515Y-16667984D02*
X15744467Y-16658460D01*
X15744467Y-16658460D02*
X15734943Y-16648936D01*
X15982562Y-16467984D02*
X16001610Y-16467984D01*
X16001610Y-16467984D02*
X16020658Y-16477508D01*
X16020658Y-16477508D02*
X16030182Y-16487031D01*
X16030182Y-16487031D02*
X16039705Y-16506079D01*
X16039705Y-16506079D02*
X16049229Y-16544174D01*
X16049229Y-16544174D02*
X16049229Y-16591793D01*
X16049229Y-16591793D02*
X16039705Y-16629888D01*
X16039705Y-16629888D02*
X16030182Y-16648936D01*
X16030182Y-16648936D02*
X16020658Y-16658460D01*
X16020658Y-16658460D02*
X16001610Y-16667984D01*
X16001610Y-16667984D02*
X15982562Y-16667984D01*
X15982562Y-16667984D02*
X15963515Y-16658460D01*
X15963515Y-16658460D02*
X15953991Y-16648936D01*
X15953991Y-16648936D02*
X15944467Y-16629888D01*
X15944467Y-16629888D02*
X15934943Y-16591793D01*
X15934943Y-16591793D02*
X15934943Y-16544174D01*
X15934943Y-16544174D02*
X15944467Y-16506079D01*
X15944467Y-16506079D02*
X15953991Y-16487031D01*
X15953991Y-16487031D02*
X15963515Y-16477508D01*
X15963515Y-16477508D02*
X15982562Y-16467984D01*
X16173039Y-16467984D02*
X16192086Y-16467984D01*
X16192086Y-16467984D02*
X16211134Y-16477508D01*
X16211134Y-16477508D02*
X16220658Y-16487031D01*
X16220658Y-16487031D02*
X16230182Y-16506079D01*
X16230182Y-16506079D02*
X16239705Y-16544174D01*
X16239705Y-16544174D02*
X16239705Y-16591793D01*
X16239705Y-16591793D02*
X16230182Y-16629888D01*
X16230182Y-16629888D02*
X16220658Y-16648936D01*
X16220658Y-16648936D02*
X16211134Y-16658460D01*
X16211134Y-16658460D02*
X16192086Y-16667984D01*
X16192086Y-16667984D02*
X16173039Y-16667984D01*
X16173039Y-16667984D02*
X16153991Y-16658460D01*
X16153991Y-16658460D02*
X16144467Y-16648936D01*
X16144467Y-16648936D02*
X16134943Y-16629888D01*
X16134943Y-16629888D02*
X16125420Y-16591793D01*
X16125420Y-16591793D02*
X16125420Y-16544174D01*
X16125420Y-16544174D02*
X16134943Y-16506079D01*
X16134943Y-16506079D02*
X16144467Y-16487031D01*
X16144467Y-16487031D02*
X16153991Y-16477508D01*
X16153991Y-16477508D02*
X16173039Y-16467984D01*
X16325420Y-16667984D02*
X16325420Y-16534650D01*
X16325420Y-16553698D02*
X16334943Y-16544174D01*
X16334943Y-16544174D02*
X16353991Y-16534650D01*
X16353991Y-16534650D02*
X16382563Y-16534650D01*
X16382563Y-16534650D02*
X16401610Y-16544174D01*
X16401610Y-16544174D02*
X16411134Y-16563222D01*
X16411134Y-16563222D02*
X16411134Y-16667984D01*
X16411134Y-16563222D02*
X16420658Y-16544174D01*
X16420658Y-16544174D02*
X16439705Y-16534650D01*
X16439705Y-16534650D02*
X16468277Y-16534650D01*
X16468277Y-16534650D02*
X16487324Y-16544174D01*
X16487324Y-16544174D02*
X16496848Y-16563222D01*
X16496848Y-16563222D02*
X16496848Y-16667984D01*
X16592086Y-16667984D02*
X16592086Y-16534650D01*
X16592086Y-16553698D02*
X16601610Y-16544174D01*
X16601610Y-16544174D02*
X16620658Y-16534650D01*
X16620658Y-16534650D02*
X16649229Y-16534650D01*
X16649229Y-16534650D02*
X16668277Y-16544174D01*
X16668277Y-16544174D02*
X16677801Y-16563222D01*
X16677801Y-16563222D02*
X16677801Y-16667984D01*
X16677801Y-16563222D02*
X16687324Y-16544174D01*
X16687324Y-16544174D02*
X16706372Y-16534650D01*
X16706372Y-16534650D02*
X16734943Y-16534650D01*
X16734943Y-16534650D02*
X16753991Y-16544174D01*
X16753991Y-16544174D02*
X16763515Y-16563222D01*
X16763515Y-16563222D02*
X16763515Y-16667984D01*
X17153991Y-16458460D02*
X16982563Y-16715603D01*
X17411134Y-16467984D02*
X17430182Y-16467984D01*
X17430182Y-16467984D02*
X17449229Y-16477508D01*
X17449229Y-16477508D02*
X17458753Y-16487031D01*
X17458753Y-16487031D02*
X17468277Y-16506079D01*
X17468277Y-16506079D02*
X17477801Y-16544174D01*
X17477801Y-16544174D02*
X17477801Y-16591793D01*
X17477801Y-16591793D02*
X17468277Y-16629888D01*
X17468277Y-16629888D02*
X17458753Y-16648936D01*
X17458753Y-16648936D02*
X17449229Y-16658460D01*
X17449229Y-16658460D02*
X17430182Y-16667984D01*
X17430182Y-16667984D02*
X17411134Y-16667984D01*
X17411134Y-16667984D02*
X17392087Y-16658460D01*
X17392087Y-16658460D02*
X17382563Y-16648936D01*
X17382563Y-16648936D02*
X17373039Y-16629888D01*
X17373039Y-16629888D02*
X17363515Y-16591793D01*
X17363515Y-16591793D02*
X17363515Y-16544174D01*
X17363515Y-16544174D02*
X17373039Y-16506079D01*
X17373039Y-16506079D02*
X17382563Y-16487031D01*
X17382563Y-16487031D02*
X17392087Y-16477508D01*
X17392087Y-16477508D02*
X17411134Y-16467984D01*
X17563515Y-16648936D02*
X17573039Y-16658460D01*
X17573039Y-16658460D02*
X17563515Y-16667984D01*
X17563515Y-16667984D02*
X17553991Y-16658460D01*
X17553991Y-16658460D02*
X17563515Y-16648936D01*
X17563515Y-16648936D02*
X17563515Y-16667984D01*
X17696848Y-16467984D02*
X17715896Y-16467984D01*
X17715896Y-16467984D02*
X17734944Y-16477508D01*
X17734944Y-16477508D02*
X17744468Y-16487031D01*
X17744468Y-16487031D02*
X17753991Y-16506079D01*
X17753991Y-16506079D02*
X17763515Y-16544174D01*
X17763515Y-16544174D02*
X17763515Y-16591793D01*
X17763515Y-16591793D02*
X17753991Y-16629888D01*
X17753991Y-16629888D02*
X17744468Y-16648936D01*
X17744468Y-16648936D02*
X17734944Y-16658460D01*
X17734944Y-16658460D02*
X17715896Y-16667984D01*
X17715896Y-16667984D02*
X17696848Y-16667984D01*
X17696848Y-16667984D02*
X17677801Y-16658460D01*
X17677801Y-16658460D02*
X17668277Y-16648936D01*
X17668277Y-16648936D02*
X17658753Y-16629888D01*
X17658753Y-16629888D02*
X17649229Y-16591793D01*
X17649229Y-16591793D02*
X17649229Y-16544174D01*
X17649229Y-16544174D02*
X17658753Y-16506079D01*
X17658753Y-16506079D02*
X17668277Y-16487031D01*
X17668277Y-16487031D02*
X17677801Y-16477508D01*
X17677801Y-16477508D02*
X17696848Y-16467984D01*
X17953991Y-16667984D02*
X17839706Y-16667984D01*
X17896848Y-16667984D02*
X17896848Y-16467984D01*
X17896848Y-16467984D02*
X17877801Y-16496555D01*
X17877801Y-16496555D02*
X17858753Y-16515603D01*
X17858753Y-16515603D02*
X17839706Y-16525127D01*
X18144468Y-16667984D02*
X18030182Y-16667984D01*
X18087325Y-16667984D02*
X18087325Y-16467984D01*
X18087325Y-16467984D02*
X18068277Y-16496555D01*
X18068277Y-16496555D02*
X18049229Y-16515603D01*
X18049229Y-16515603D02*
X18030182Y-16525127D01*
X18258753Y-16553698D02*
X18239706Y-16544174D01*
X18239706Y-16544174D02*
X18230182Y-16534650D01*
X18230182Y-16534650D02*
X18220658Y-16515603D01*
X18220658Y-16515603D02*
X18220658Y-16506079D01*
X18220658Y-16506079D02*
X18230182Y-16487031D01*
X18230182Y-16487031D02*
X18239706Y-16477508D01*
X18239706Y-16477508D02*
X18258753Y-16467984D01*
X18258753Y-16467984D02*
X18296849Y-16467984D01*
X18296849Y-16467984D02*
X18315896Y-16477508D01*
X18315896Y-16477508D02*
X18325420Y-16487031D01*
X18325420Y-16487031D02*
X18334944Y-16506079D01*
X18334944Y-16506079D02*
X18334944Y-16515603D01*
X18334944Y-16515603D02*
X18325420Y-16534650D01*
X18325420Y-16534650D02*
X18315896Y-16544174D01*
X18315896Y-16544174D02*
X18296849Y-16553698D01*
X18296849Y-16553698D02*
X18258753Y-16553698D01*
X18258753Y-16553698D02*
X18239706Y-16563222D01*
X18239706Y-16563222D02*
X18230182Y-16572746D01*
X18230182Y-16572746D02*
X18220658Y-16591793D01*
X18220658Y-16591793D02*
X18220658Y-16629888D01*
X18220658Y-16629888D02*
X18230182Y-16648936D01*
X18230182Y-16648936D02*
X18239706Y-16658460D01*
X18239706Y-16658460D02*
X18258753Y-16667984D01*
X18258753Y-16667984D02*
X18296849Y-16667984D01*
X18296849Y-16667984D02*
X18315896Y-16658460D01*
X18315896Y-16658460D02*
X18325420Y-16648936D01*
X18325420Y-16648936D02*
X18334944Y-16629888D01*
X18334944Y-16629888D02*
X18334944Y-16591793D01*
X18334944Y-16591793D02*
X18325420Y-16572746D01*
X18325420Y-16572746D02*
X18315896Y-16563222D01*
X18315896Y-16563222D02*
X18296849Y-16553698D01*
X18411134Y-16467984D02*
X18411134Y-16506079D01*
X18487325Y-16467984D02*
X18487325Y-16506079D01*
X18782563Y-16744174D02*
X18773039Y-16734650D01*
X18773039Y-16734650D02*
X18753991Y-16706079D01*
X18753991Y-16706079D02*
X18744468Y-16687031D01*
X18744468Y-16687031D02*
X18734944Y-16658460D01*
X18734944Y-16658460D02*
X18725420Y-16610841D01*
X18725420Y-16610841D02*
X18725420Y-16572746D01*
X18725420Y-16572746D02*
X18734944Y-16525127D01*
X18734944Y-16525127D02*
X18744468Y-16496555D01*
X18744468Y-16496555D02*
X18753991Y-16477508D01*
X18753991Y-16477508D02*
X18773039Y-16448936D01*
X18773039Y-16448936D02*
X18782563Y-16439412D01*
X18963515Y-16667984D02*
X18849230Y-16667984D01*
X18906372Y-16667984D02*
X18906372Y-16467984D01*
X18906372Y-16467984D02*
X18887325Y-16496555D01*
X18887325Y-16496555D02*
X18868277Y-16515603D01*
X18868277Y-16515603D02*
X18849230Y-16525127D01*
X19192087Y-16658460D02*
X19211134Y-16667984D01*
X19211134Y-16667984D02*
X19249230Y-16667984D01*
X19249230Y-16667984D02*
X19268277Y-16658460D01*
X19268277Y-16658460D02*
X19277801Y-16639412D01*
X19277801Y-16639412D02*
X19277801Y-16629888D01*
X19277801Y-16629888D02*
X19268277Y-16610841D01*
X19268277Y-16610841D02*
X19249230Y-16601317D01*
X19249230Y-16601317D02*
X19220658Y-16601317D01*
X19220658Y-16601317D02*
X19201611Y-16591793D01*
X19201611Y-16591793D02*
X19192087Y-16572746D01*
X19192087Y-16572746D02*
X19192087Y-16563222D01*
X19192087Y-16563222D02*
X19201611Y-16544174D01*
X19201611Y-16544174D02*
X19220658Y-16534650D01*
X19220658Y-16534650D02*
X19249230Y-16534650D01*
X19249230Y-16534650D02*
X19268277Y-16544174D01*
X19392087Y-16667984D02*
X19373039Y-16658460D01*
X19373039Y-16658460D02*
X19363515Y-16639412D01*
X19363515Y-16639412D02*
X19363515Y-16467984D01*
X19496849Y-16667984D02*
X19477801Y-16658460D01*
X19477801Y-16658460D02*
X19468277Y-16648936D01*
X19468277Y-16648936D02*
X19458753Y-16629888D01*
X19458753Y-16629888D02*
X19458753Y-16572746D01*
X19458753Y-16572746D02*
X19468277Y-16553698D01*
X19468277Y-16553698D02*
X19477801Y-16544174D01*
X19477801Y-16544174D02*
X19496849Y-16534650D01*
X19496849Y-16534650D02*
X19525420Y-16534650D01*
X19525420Y-16534650D02*
X19544468Y-16544174D01*
X19544468Y-16544174D02*
X19553992Y-16553698D01*
X19553992Y-16553698D02*
X19563515Y-16572746D01*
X19563515Y-16572746D02*
X19563515Y-16629888D01*
X19563515Y-16629888D02*
X19553992Y-16648936D01*
X19553992Y-16648936D02*
X19544468Y-16658460D01*
X19544468Y-16658460D02*
X19525420Y-16667984D01*
X19525420Y-16667984D02*
X19496849Y-16667984D01*
X19620658Y-16534650D02*
X19696849Y-16534650D01*
X19649230Y-16467984D02*
X19649230Y-16639412D01*
X19649230Y-16639412D02*
X19658753Y-16658460D01*
X19658753Y-16658460D02*
X19677801Y-16667984D01*
X19677801Y-16667984D02*
X19696849Y-16667984D01*
X19744468Y-16744174D02*
X19753992Y-16734650D01*
X19753992Y-16734650D02*
X19773039Y-16706079D01*
X19773039Y-16706079D02*
X19782563Y-16687031D01*
X19782563Y-16687031D02*
X19792087Y-16658460D01*
X19792087Y-16658460D02*
X19801611Y-16610841D01*
X19801611Y-16610841D02*
X19801611Y-16572746D01*
X19801611Y-16572746D02*
X19792087Y-16525127D01*
X19792087Y-16525127D02*
X19782563Y-16496555D01*
X19782563Y-16496555D02*
X19773039Y-16477508D01*
X19773039Y-16477508D02*
X19753992Y-16448936D01*
X19753992Y-16448936D02*
X19744468Y-16439412D01*
M02*
