%TF.GenerationSoftware,KiCad,Pcbnew,9.0.6*%
%TF.CreationDate,2026-07-02T20:55:55+08:00*%
%TF.ProjectId,PCB-Badge,5043422d-4261-4646-9765-2e6b69636164,rev?*%
%TF.SameCoordinates,Original*%
%TF.FileFunction,Legend,Bot*%
%TF.FilePolarity,Positive*%
%FSLAX46Y46*%
G04 Gerber Fmt 4.6, Leading zero omitted, Abs format (unit mm)*
G04 Created by KiCad (PCBNEW 9.0.6) date 2026-07-02 20:55:55*
%MOMM*%
%LPD*%
G01*
G04 APERTURE LIST*
%ADD10C,0.000000*%
G04 APERTURE END LIST*
D10*
%TO.C,G\u002A\u002A\u002A*%
G36*
X161232871Y-88547711D02*
G01*
X161243340Y-88568916D01*
X161262094Y-88611574D01*
X161287353Y-88671263D01*
X161317336Y-88743568D01*
X161350262Y-88824070D01*
X161384355Y-88908352D01*
X161417833Y-88991995D01*
X161448916Y-89070583D01*
X161475824Y-89139698D01*
X161496777Y-89194921D01*
X161509997Y-89231837D01*
X161513703Y-89246025D01*
X161512483Y-89246622D01*
X161491453Y-89255430D01*
X161446395Y-89273811D01*
X161379903Y-89300723D01*
X161294570Y-89335122D01*
X161192986Y-89375963D01*
X161077744Y-89422202D01*
X160951438Y-89472796D01*
X160816658Y-89526702D01*
X160781288Y-89540846D01*
X160648161Y-89594212D01*
X160524019Y-89644184D01*
X160411477Y-89689696D01*
X160313158Y-89729679D01*
X160231679Y-89763065D01*
X160169659Y-89788786D01*
X160129719Y-89805773D01*
X160114476Y-89812961D01*
X160114968Y-89815920D01*
X160123531Y-89841172D01*
X160141661Y-89890057D01*
X160168344Y-89960036D01*
X160202569Y-90048569D01*
X160243327Y-90153119D01*
X160289606Y-90271146D01*
X160340394Y-90400111D01*
X160394681Y-90537475D01*
X160451453Y-90680700D01*
X160509702Y-90827245D01*
X160568415Y-90974574D01*
X160626580Y-91120147D01*
X160683189Y-91261425D01*
X160737227Y-91395867D01*
X160787684Y-91520938D01*
X160833550Y-91634096D01*
X160873814Y-91732802D01*
X160907462Y-91814518D01*
X160933486Y-91876708D01*
X160950873Y-91916828D01*
X160958611Y-91932342D01*
X160960470Y-91932119D01*
X160983288Y-91924479D01*
X161029940Y-91907146D01*
X161097853Y-91881124D01*
X161184458Y-91847418D01*
X161287179Y-91807033D01*
X161403447Y-91760972D01*
X161530687Y-91710243D01*
X161666330Y-91655852D01*
X161711564Y-91637681D01*
X161844802Y-91584412D01*
X161968848Y-91535185D01*
X162081122Y-91490997D01*
X162179045Y-91452851D01*
X162260037Y-91421747D01*
X162321520Y-91398685D01*
X162360914Y-91384667D01*
X162375640Y-91380691D01*
X162376574Y-91381846D01*
X162387080Y-91402646D01*
X162405712Y-91444960D01*
X162430714Y-91504362D01*
X162460325Y-91576424D01*
X162492789Y-91656721D01*
X162526347Y-91740824D01*
X162559244Y-91824307D01*
X162589722Y-91902745D01*
X162616023Y-91971711D01*
X162636389Y-92026774D01*
X162649062Y-92063513D01*
X162652286Y-92077496D01*
X162651738Y-92077743D01*
X162632952Y-92085491D01*
X162588794Y-92103494D01*
X162520886Y-92131095D01*
X162430849Y-92167637D01*
X162320302Y-92212464D01*
X162190865Y-92264921D01*
X162044159Y-92324350D01*
X161881806Y-92390096D01*
X161705425Y-92461499D01*
X161516635Y-92537907D01*
X161317060Y-92618660D01*
X161108318Y-92703105D01*
X160892029Y-92790584D01*
X160856367Y-92805004D01*
X160641129Y-92891964D01*
X160433636Y-92975676D01*
X160235510Y-93055487D01*
X160048377Y-93130748D01*
X159873864Y-93200811D01*
X159713595Y-93265025D01*
X159569196Y-93322740D01*
X159442291Y-93373307D01*
X159334505Y-93416075D01*
X159247464Y-93450397D01*
X159182793Y-93475621D01*
X159142118Y-93491098D01*
X159127063Y-93496176D01*
X159125869Y-93495060D01*
X159115111Y-93475058D01*
X159095816Y-93433425D01*
X159069819Y-93374579D01*
X159038959Y-93302940D01*
X159005075Y-93222927D01*
X158970002Y-93138962D01*
X158935576Y-93055461D01*
X158903638Y-92976847D01*
X158876023Y-92907537D01*
X158854569Y-92851952D01*
X158841115Y-92814513D01*
X158837495Y-92799635D01*
X158838961Y-92798901D01*
X158860674Y-92789711D01*
X158906318Y-92770935D01*
X158973321Y-92743614D01*
X159059113Y-92708791D01*
X159161122Y-92667505D01*
X159276782Y-92620802D01*
X159403518Y-92569722D01*
X159538760Y-92515310D01*
X159580336Y-92498589D01*
X159713406Y-92444974D01*
X159837260Y-92394926D01*
X159949315Y-92349500D01*
X160046990Y-92309746D01*
X160127704Y-92276718D01*
X160188874Y-92251467D01*
X160227917Y-92235047D01*
X160242252Y-92228510D01*
X160241968Y-92226764D01*
X160234086Y-92204087D01*
X160216255Y-92156897D01*
X160189293Y-92087260D01*
X160154015Y-91997247D01*
X160111243Y-91888921D01*
X160061795Y-91764354D01*
X160006487Y-91625611D01*
X159946137Y-91474759D01*
X159881565Y-91313868D01*
X159813587Y-91145005D01*
X159797626Y-91105384D01*
X159729236Y-90934958D01*
X159663861Y-90770990D01*
X159602397Y-90615789D01*
X159545739Y-90471662D01*
X159494784Y-90340920D01*
X159450427Y-90225866D01*
X159413566Y-90128813D01*
X159385097Y-90052068D01*
X159365914Y-89997938D01*
X159356913Y-89968733D01*
X159342625Y-89870366D01*
X159346497Y-89733908D01*
X159375381Y-89598784D01*
X159427223Y-89469778D01*
X159499977Y-89351676D01*
X159591595Y-89249260D01*
X159700029Y-89167316D01*
X159715612Y-89159020D01*
X159758902Y-89138704D01*
X159822865Y-89110366D01*
X159904511Y-89075221D01*
X160000856Y-89034476D01*
X160108912Y-88989344D01*
X160225691Y-88941035D01*
X160348209Y-88890762D01*
X160473476Y-88839733D01*
X160598507Y-88789160D01*
X160720315Y-88740254D01*
X160835911Y-88694227D01*
X160942310Y-88652290D01*
X161036524Y-88615650D01*
X161115568Y-88585523D01*
X161176454Y-88563118D01*
X161216195Y-88549646D01*
X161231803Y-88546315D01*
X161232871Y-88547711D01*
G37*
G36*
X165556445Y-88017751D02*
G01*
X165618162Y-88170726D01*
X165692376Y-88355001D01*
X165756652Y-88515365D01*
X165811612Y-88653735D01*
X165857877Y-88772031D01*
X165896069Y-88872177D01*
X165926810Y-88956095D01*
X165950721Y-89025701D01*
X165968425Y-89082920D01*
X165980540Y-89129669D01*
X165987691Y-89167873D01*
X165990498Y-89199451D01*
X165989585Y-89226323D01*
X165985571Y-89250410D01*
X165979078Y-89273635D01*
X165970728Y-89297916D01*
X165960639Y-89320514D01*
X165938201Y-89366844D01*
X165904686Y-89434377D01*
X165861334Y-89520657D01*
X165809390Y-89623234D01*
X165750093Y-89739650D01*
X165684688Y-89867454D01*
X165614418Y-90004192D01*
X165540524Y-90147413D01*
X165503396Y-90219192D01*
X165421491Y-90377144D01*
X165351212Y-90511920D01*
X165291356Y-90625671D01*
X165240721Y-90720551D01*
X165198106Y-90798710D01*
X165162304Y-90862302D01*
X165132116Y-90913478D01*
X165106339Y-90954393D01*
X165083770Y-90987196D01*
X165063206Y-91014042D01*
X165043445Y-91037081D01*
X164968024Y-91110302D01*
X164851036Y-91190727D01*
X164721453Y-91244598D01*
X164641756Y-91263691D01*
X164546374Y-91271903D01*
X164439598Y-91264526D01*
X164431286Y-91263117D01*
X164389651Y-91252861D01*
X164324678Y-91234279D01*
X164239385Y-91208386D01*
X164136793Y-91176202D01*
X164019922Y-91138745D01*
X163891788Y-91097035D01*
X163755415Y-91052087D01*
X163613820Y-91004924D01*
X163470022Y-90956563D01*
X163327040Y-90908023D01*
X163187896Y-90860321D01*
X163055607Y-90814476D01*
X162933195Y-90771509D01*
X162823677Y-90732437D01*
X162730074Y-90698278D01*
X162655404Y-90670051D01*
X162602689Y-90648776D01*
X162574946Y-90635470D01*
X162552028Y-90619261D01*
X162504658Y-90576450D01*
X162469138Y-90532650D01*
X162466349Y-90527433D01*
X162452343Y-90496929D01*
X162429074Y-90443411D01*
X162397566Y-90369384D01*
X162358846Y-90277361D01*
X162313942Y-90169846D01*
X162263877Y-90049347D01*
X162209683Y-89918378D01*
X162152382Y-89779443D01*
X162093005Y-89635053D01*
X162032575Y-89487715D01*
X161972120Y-89339937D01*
X161912668Y-89194229D01*
X161855244Y-89053098D01*
X161800876Y-88919054D01*
X161750589Y-88794605D01*
X161705413Y-88682260D01*
X161666371Y-88584525D01*
X161634492Y-88503911D01*
X161610802Y-88442927D01*
X161596328Y-88404079D01*
X161592097Y-88389879D01*
X161592665Y-88389439D01*
X161613182Y-88379091D01*
X161655522Y-88360859D01*
X161715222Y-88336450D01*
X161787816Y-88307574D01*
X161868834Y-88275935D01*
X161953812Y-88243241D01*
X162038284Y-88211200D01*
X162117781Y-88181519D01*
X162187839Y-88155907D01*
X162243990Y-88136069D01*
X162281768Y-88123712D01*
X162296707Y-88120546D01*
X162300028Y-88127020D01*
X162313668Y-88158168D01*
X162336765Y-88212961D01*
X162368404Y-88289162D01*
X162407666Y-88384536D01*
X162453638Y-88496849D01*
X162505401Y-88623864D01*
X162562038Y-88763346D01*
X162622636Y-88913060D01*
X162686276Y-89070769D01*
X163064736Y-90010065D01*
X163776657Y-90252629D01*
X163914488Y-90299444D01*
X164062831Y-90349365D01*
X164186494Y-90390337D01*
X164287147Y-90422878D01*
X164366461Y-90447505D01*
X164426106Y-90464730D01*
X164467756Y-90475071D01*
X164493078Y-90479045D01*
X164503745Y-90477168D01*
X164504552Y-90476031D01*
X164516441Y-90455125D01*
X164540128Y-90411098D01*
X164574269Y-90346521D01*
X164617524Y-90263966D01*
X164668547Y-90166003D01*
X164725995Y-90055203D01*
X164788524Y-89934133D01*
X164854792Y-89805369D01*
X165190670Y-89151595D01*
X164808951Y-88205068D01*
X164765686Y-88097529D01*
X164704480Y-87944483D01*
X164647491Y-87800900D01*
X164595579Y-87669004D01*
X164549597Y-87551015D01*
X164510410Y-87449151D01*
X164478872Y-87365637D01*
X164455845Y-87302690D01*
X164442183Y-87262532D01*
X164438748Y-87247384D01*
X164449247Y-87241763D01*
X164484143Y-87226106D01*
X164539553Y-87202460D01*
X164611649Y-87172435D01*
X164696595Y-87137639D01*
X164790561Y-87099682D01*
X165130857Y-86963133D01*
X165556445Y-88017751D01*
G37*
G36*
X186587170Y-79469521D02*
G01*
X186634485Y-80372332D01*
X183658341Y-80528305D01*
X180682198Y-80684278D01*
X183718568Y-83421342D01*
X183925720Y-83608089D01*
X184223420Y-83876528D01*
X184500440Y-84126409D01*
X184757502Y-84358388D01*
X184995323Y-84573123D01*
X185214622Y-84771271D01*
X185416118Y-84953491D01*
X185600532Y-85120438D01*
X185768583Y-85272770D01*
X185920988Y-85411143D01*
X186058468Y-85536218D01*
X186181743Y-85648649D01*
X186291530Y-85749095D01*
X186388552Y-85838214D01*
X186473524Y-85916662D01*
X186547166Y-85985094D01*
X186610200Y-86044172D01*
X186663341Y-86094550D01*
X186707312Y-86136887D01*
X186742831Y-86171840D01*
X186770617Y-86200065D01*
X186791390Y-86222220D01*
X186805866Y-86238962D01*
X186814769Y-86250950D01*
X186879081Y-86366920D01*
X186934627Y-86518428D01*
X186962417Y-86674245D01*
X186962506Y-86831516D01*
X186934938Y-86987387D01*
X186879765Y-87138999D01*
X186797034Y-87283497D01*
X186780203Y-87306794D01*
X186688342Y-87408187D01*
X186576842Y-87498341D01*
X186453430Y-87571695D01*
X186325826Y-87622692D01*
X186314917Y-87625188D01*
X186296097Y-87628124D01*
X186269052Y-87631357D01*
X186232820Y-87634943D01*
X186186443Y-87638936D01*
X186128957Y-87643393D01*
X186059403Y-87648369D01*
X185976820Y-87653917D01*
X185880248Y-87660096D01*
X185768726Y-87666958D01*
X185641292Y-87674559D01*
X185496986Y-87682955D01*
X185334848Y-87692200D01*
X185153918Y-87702352D01*
X184953233Y-87713463D01*
X184731833Y-87725590D01*
X184488759Y-87738789D01*
X184223046Y-87753114D01*
X183933738Y-87768620D01*
X183619873Y-87785364D01*
X183280490Y-87803399D01*
X182914627Y-87822783D01*
X182521326Y-87843568D01*
X182099623Y-87865811D01*
X177956299Y-88084180D01*
X177908984Y-87181369D01*
X177861670Y-86278558D01*
X180845226Y-86122196D01*
X183828781Y-85965835D01*
X180814469Y-83249696D01*
X180500620Y-82966803D01*
X180181688Y-82679125D01*
X179881054Y-82407734D01*
X179598965Y-82152850D01*
X179335656Y-81914694D01*
X179091376Y-81693484D01*
X178866360Y-81489442D01*
X178660854Y-81302787D01*
X178475097Y-81133738D01*
X178309333Y-80982516D01*
X178163803Y-80849342D01*
X178038746Y-80734436D01*
X177934408Y-80638015D01*
X177851028Y-80560302D01*
X177788848Y-80501514D01*
X177748111Y-80461874D01*
X177729057Y-80441600D01*
X177645016Y-80313443D01*
X177581181Y-80166637D01*
X177545549Y-80012206D01*
X177538377Y-79851289D01*
X177559916Y-79685016D01*
X177571970Y-79638033D01*
X177620869Y-79515281D01*
X177691713Y-79394874D01*
X177779679Y-79283266D01*
X177879944Y-79186917D01*
X177987685Y-79112283D01*
X178003086Y-79103303D01*
X178018905Y-79093431D01*
X178033151Y-79084272D01*
X178046857Y-79075751D01*
X178061052Y-79067789D01*
X178076766Y-79060311D01*
X178095032Y-79053240D01*
X178116880Y-79046497D01*
X178143342Y-79040008D01*
X178175447Y-79033695D01*
X178214227Y-79027482D01*
X178260714Y-79021291D01*
X178315937Y-79015047D01*
X178380930Y-79008671D01*
X178456723Y-79002088D01*
X178544343Y-78995221D01*
X178644825Y-78987991D01*
X178759200Y-78980324D01*
X178888498Y-78972144D01*
X179033750Y-78963371D01*
X179195987Y-78953930D01*
X179376241Y-78943745D01*
X179575541Y-78932737D01*
X179794919Y-78920833D01*
X180035407Y-78907950D01*
X180298035Y-78894018D01*
X180583834Y-78878956D01*
X180893834Y-78862689D01*
X181229067Y-78845139D01*
X181590565Y-78826231D01*
X181979359Y-78805886D01*
X182396476Y-78784030D01*
X186539856Y-78566710D01*
X186587170Y-79469521D01*
G37*
G36*
X173630829Y-82992884D02*
G01*
X173841615Y-83037522D01*
X174041903Y-83105416D01*
X174229386Y-83195807D01*
X174401753Y-83307935D01*
X174556695Y-83441036D01*
X174691902Y-83594351D01*
X174722579Y-83636005D01*
X174832623Y-83814989D01*
X174920744Y-84009109D01*
X174986735Y-84214762D01*
X175030391Y-84428347D01*
X175051500Y-84646265D01*
X175051187Y-84688059D01*
X175049860Y-84864910D01*
X175025261Y-85080685D01*
X174977498Y-85289986D01*
X174906359Y-85489211D01*
X174811642Y-85674760D01*
X174767499Y-85743455D01*
X174643381Y-85899904D01*
X174496976Y-86041443D01*
X174331624Y-86165748D01*
X174150668Y-86270485D01*
X173957445Y-86353324D01*
X173755296Y-86411934D01*
X173719379Y-86419081D01*
X173620901Y-86433360D01*
X173506034Y-86444579D01*
X173383743Y-86452252D01*
X173262992Y-86455904D01*
X173152739Y-86455047D01*
X173061951Y-86449204D01*
X172907658Y-86425765D01*
X172692690Y-86369194D01*
X172490110Y-86286506D01*
X172301284Y-86178290D01*
X172127571Y-86045139D01*
X172110768Y-86030137D01*
X171985231Y-85901329D01*
X171871914Y-85755826D01*
X171776296Y-85601380D01*
X171703856Y-85445743D01*
X171688500Y-85403808D01*
X171638890Y-85234873D01*
X171601644Y-85051556D01*
X171578051Y-84863356D01*
X171570065Y-84693913D01*
X172307502Y-84693913D01*
X172312084Y-84818866D01*
X172339021Y-84996318D01*
X172388780Y-85160981D01*
X172459954Y-85310915D01*
X172551138Y-85444179D01*
X172660926Y-85558830D01*
X172787910Y-85652926D01*
X172930688Y-85724526D01*
X173087850Y-85771688D01*
X173112075Y-85776125D01*
X173203684Y-85785584D01*
X173309201Y-85788192D01*
X173417940Y-85784235D01*
X173519212Y-85774005D01*
X173602328Y-85757790D01*
X173687186Y-85729373D01*
X173813433Y-85669016D01*
X173931605Y-85592200D01*
X174031182Y-85505124D01*
X174068830Y-85463619D01*
X174161907Y-85334496D01*
X174233064Y-85193104D01*
X174282836Y-85042547D01*
X174311760Y-84885931D01*
X174320372Y-84726360D01*
X174309209Y-84566937D01*
X174278805Y-84410771D01*
X174229696Y-84260965D01*
X174162420Y-84120624D01*
X174077511Y-83992851D01*
X173975505Y-83880756D01*
X173856939Y-83787438D01*
X173722349Y-83716005D01*
X173589339Y-83670468D01*
X173427565Y-83639986D01*
X173266338Y-83634838D01*
X173108650Y-83653892D01*
X172957488Y-83696019D01*
X172815840Y-83760095D01*
X172686701Y-83844992D01*
X172573057Y-83949580D01*
X172477893Y-84072732D01*
X172404205Y-84213320D01*
X172360388Y-84330192D01*
X172330094Y-84443943D01*
X172313296Y-84561053D01*
X172307502Y-84693913D01*
X171570065Y-84693913D01*
X171569398Y-84679772D01*
X171576976Y-84510302D01*
X171610106Y-84293356D01*
X171669021Y-84074941D01*
X171751302Y-83873831D01*
X171856289Y-83690762D01*
X171983318Y-83526473D01*
X172131722Y-83381697D01*
X172300840Y-83257175D01*
X172490009Y-83153642D01*
X172698561Y-83071835D01*
X172925839Y-83012491D01*
X172958587Y-83006126D01*
X173187005Y-82976426D01*
X173411857Y-82972265D01*
X173630829Y-82992884D01*
G37*
G36*
X169533350Y-83185345D02*
G01*
X169794279Y-83212123D01*
X170055450Y-83262144D01*
X170313323Y-83335125D01*
X170564357Y-83430783D01*
X170577313Y-83436434D01*
X170640523Y-83464940D01*
X170691353Y-83489404D01*
X170724893Y-83507381D01*
X170736234Y-83516424D01*
X170735024Y-83519294D01*
X170724165Y-83543811D01*
X170703672Y-83589583D01*
X170675359Y-83652576D01*
X170641039Y-83728749D01*
X170602527Y-83814061D01*
X170472360Y-84102153D01*
X170337460Y-84043136D01*
X170226549Y-83997905D01*
X169985391Y-83921125D01*
X169730139Y-83868308D01*
X169627911Y-83855931D01*
X169504376Y-83848182D01*
X169375939Y-83846379D01*
X169249378Y-83850299D01*
X169131474Y-83859717D01*
X169029011Y-83874409D01*
X168948768Y-83894152D01*
X168945857Y-83895121D01*
X168819209Y-83946637D01*
X168719101Y-84008607D01*
X168643914Y-84083105D01*
X168592029Y-84172202D01*
X168561824Y-84277974D01*
X168551684Y-84402492D01*
X168551052Y-84533612D01*
X168585750Y-84522310D01*
X168590691Y-84521071D01*
X168623673Y-84515921D01*
X168679527Y-84509212D01*
X168753380Y-84501468D01*
X168840353Y-84493205D01*
X168935570Y-84484950D01*
X169115421Y-84472814D01*
X169356813Y-84466939D01*
X169578742Y-84475388D01*
X169785146Y-84498655D01*
X169979970Y-84537229D01*
X170167154Y-84591610D01*
X170350640Y-84662288D01*
X170351207Y-84662533D01*
X170512802Y-84744412D01*
X170656779Y-84841818D01*
X170780828Y-84952379D01*
X170882638Y-85073728D01*
X170959899Y-85203489D01*
X171010300Y-85339293D01*
X171011899Y-85345602D01*
X171026016Y-85425066D01*
X171035063Y-85521250D01*
X171035592Y-85536398D01*
X171038618Y-85622908D01*
X171036259Y-85718796D01*
X171027561Y-85797670D01*
X171000202Y-85907027D01*
X170942372Y-86049501D01*
X170863547Y-86183553D01*
X170767716Y-86302668D01*
X170658868Y-86400324D01*
X170567855Y-86458849D01*
X170457045Y-86515203D01*
X170339716Y-86562842D01*
X170227415Y-86596520D01*
X170163425Y-86609078D01*
X170054701Y-86623408D01*
X169933838Y-86633191D01*
X169810824Y-86637897D01*
X169695650Y-86636996D01*
X169598304Y-86629955D01*
X169490533Y-86613623D01*
X169306310Y-86569737D01*
X169134262Y-86508253D01*
X168978191Y-86430901D01*
X168841902Y-86339401D01*
X168729195Y-86235489D01*
X168647224Y-86145370D01*
X168655837Y-86386725D01*
X168664449Y-86628082D01*
X168297808Y-86647296D01*
X167931167Y-86666512D01*
X167872759Y-85547161D01*
X167871424Y-85521567D01*
X167859736Y-85294824D01*
X167853361Y-85167331D01*
X168595967Y-85167331D01*
X168603980Y-85300254D01*
X168605235Y-85320009D01*
X168611137Y-85383665D01*
X168620619Y-85431733D01*
X168636510Y-85475244D01*
X168661640Y-85525237D01*
X168677207Y-85552884D01*
X168756190Y-85664067D01*
X168853414Y-85758337D01*
X168971186Y-85837307D01*
X169111817Y-85902595D01*
X169277617Y-85955811D01*
X169279122Y-85956213D01*
X169330377Y-85968953D01*
X169376441Y-85977646D01*
X169424225Y-85982779D01*
X169480634Y-85984833D01*
X169552582Y-85984293D01*
X169646975Y-85981637D01*
X169699026Y-85979776D01*
X169797792Y-85974783D01*
X169875672Y-85967786D01*
X169938563Y-85957682D01*
X169992361Y-85943372D01*
X170042964Y-85923754D01*
X170096265Y-85897730D01*
X170182183Y-85843265D01*
X170244625Y-85779186D01*
X170284292Y-85702325D01*
X170304402Y-85608202D01*
X170306655Y-85574600D01*
X170295237Y-85477892D01*
X170256506Y-85390985D01*
X170190883Y-85314206D01*
X170098782Y-85247879D01*
X169980621Y-85192324D01*
X169836817Y-85147867D01*
X169667789Y-85114832D01*
X169657710Y-85113344D01*
X169607394Y-85106882D01*
X169557300Y-85102590D01*
X169502499Y-85100450D01*
X169438072Y-85100447D01*
X169359091Y-85102564D01*
X169260631Y-85106783D01*
X169137772Y-85113090D01*
X169052966Y-85117948D01*
X168948915Y-85124723D01*
X168854185Y-85131769D01*
X168773789Y-85138677D01*
X168712738Y-85145045D01*
X168676045Y-85150466D01*
X168595967Y-85167331D01*
X167853361Y-85167331D01*
X167849751Y-85095130D01*
X167841443Y-84920403D01*
X167834784Y-84768568D01*
X167829747Y-84637541D01*
X167826304Y-84525243D01*
X167824426Y-84429595D01*
X167824086Y-84348516D01*
X167825258Y-84279926D01*
X167827912Y-84221747D01*
X167832020Y-84171897D01*
X167837556Y-84128295D01*
X167844492Y-84088863D01*
X167852800Y-84051522D01*
X167897288Y-83918232D01*
X167971908Y-83778696D01*
X168071069Y-83649695D01*
X168192621Y-83533260D01*
X168334413Y-83431421D01*
X168494295Y-83346210D01*
X168670115Y-83279659D01*
X168787434Y-83247285D01*
X169026386Y-83202643D01*
X169276206Y-83182090D01*
X169533350Y-83185345D01*
G37*
G36*
X161098662Y-82689499D02*
G01*
X161115973Y-83019796D01*
X160800357Y-83036336D01*
X160484739Y-83052877D01*
X160509836Y-83531741D01*
X160534932Y-84010605D01*
X160594643Y-83956240D01*
X160649507Y-83908576D01*
X160799444Y-83798497D01*
X160956469Y-83710006D01*
X161114417Y-83646773D01*
X161183266Y-83628680D01*
X161293519Y-83609193D01*
X161412933Y-83596494D01*
X161530094Y-83591701D01*
X161633594Y-83595934D01*
X161677086Y-83600802D01*
X161879414Y-83640249D01*
X162068628Y-83705560D01*
X162243906Y-83795975D01*
X162404426Y-83910733D01*
X162549368Y-84049070D01*
X162677912Y-84210225D01*
X162789234Y-84393438D01*
X162882515Y-84597947D01*
X162956933Y-84822990D01*
X162964577Y-84854454D01*
X162979721Y-84940803D01*
X162992641Y-85046435D01*
X163002973Y-85164468D01*
X163005749Y-85210930D01*
X163010355Y-85288011D01*
X163014425Y-85410183D01*
X163014819Y-85524095D01*
X163011175Y-85622859D01*
X163003128Y-85699594D01*
X162986281Y-85789281D01*
X162940742Y-85966796D01*
X162881253Y-86138723D01*
X162810679Y-86297287D01*
X162731891Y-86434715D01*
X162703813Y-86475730D01*
X162578825Y-86628572D01*
X162435484Y-86762579D01*
X162277252Y-86875194D01*
X162107596Y-86963865D01*
X161929977Y-87026035D01*
X161845544Y-87044837D01*
X161713066Y-87063336D01*
X161575426Y-87071743D01*
X161443336Y-87069525D01*
X161327509Y-87056145D01*
X161221862Y-87030467D01*
X161080624Y-86980041D01*
X160939444Y-86913341D01*
X160808048Y-86834515D01*
X160685952Y-86751800D01*
X160686114Y-86895321D01*
X160686275Y-87038840D01*
X160319278Y-87058074D01*
X159952282Y-87077307D01*
X159826818Y-84754417D01*
X159818370Y-84598002D01*
X160565716Y-84598002D01*
X160606712Y-85380256D01*
X160647708Y-86162511D01*
X160720662Y-86220383D01*
X160761268Y-86249707D01*
X160863156Y-86307093D01*
X160980506Y-86355874D01*
X161103969Y-86391867D01*
X161108690Y-86392922D01*
X161193034Y-86406111D01*
X161291069Y-86413269D01*
X161392205Y-86414270D01*
X161485853Y-86408990D01*
X161561426Y-86397302D01*
X161601432Y-86386941D01*
X161753342Y-86329784D01*
X161888618Y-86249221D01*
X162006051Y-86146699D01*
X162104431Y-86023662D01*
X162182550Y-85881561D01*
X162239195Y-85721839D01*
X162273159Y-85545942D01*
X162279119Y-85466770D01*
X162279717Y-85361300D01*
X162274243Y-85249267D01*
X162263387Y-85139615D01*
X162247836Y-85041288D01*
X162228280Y-84963228D01*
X162173706Y-84823106D01*
X162089465Y-84670100D01*
X161987011Y-84539615D01*
X161866804Y-84432123D01*
X161729307Y-84348099D01*
X161574975Y-84288020D01*
X161526105Y-84276951D01*
X161429565Y-84266929D01*
X161319997Y-84266460D01*
X161206395Y-84275076D01*
X161097751Y-84292313D01*
X161003059Y-84317702D01*
X160900691Y-84358559D01*
X160793464Y-84413174D01*
X160699782Y-84473424D01*
X160627475Y-84534781D01*
X160565716Y-84598002D01*
X159818370Y-84598002D01*
X159701356Y-82431525D01*
X160391353Y-82395363D01*
X161081353Y-82359202D01*
X161098662Y-82689499D01*
G37*
G36*
X178706342Y-82734422D02*
G01*
X178760395Y-83765830D01*
X178810964Y-84730722D01*
X178882335Y-86092585D01*
X178078613Y-86134694D01*
X178015077Y-86137977D01*
X177859362Y-86145643D01*
X177709072Y-86152530D01*
X177567621Y-86158509D01*
X177438430Y-86163454D01*
X177324917Y-86167239D01*
X177230500Y-86169740D01*
X177158598Y-86170827D01*
X177112631Y-86170377D01*
X176940663Y-86158637D01*
X176714785Y-86125877D01*
X176510255Y-86074371D01*
X176327422Y-86004292D01*
X176166641Y-85915811D01*
X176028265Y-85809103D01*
X175912646Y-85684335D01*
X175820138Y-85541680D01*
X175796815Y-85496335D01*
X175757507Y-85407722D01*
X175728236Y-85319039D01*
X175707215Y-85222991D01*
X175692664Y-85112281D01*
X175682799Y-84979613D01*
X175678847Y-84889758D01*
X175678549Y-84775120D01*
X175679261Y-84765604D01*
X176404166Y-84765604D01*
X176409937Y-84903665D01*
X176414168Y-84939060D01*
X176425520Y-85010009D01*
X176438981Y-85072428D01*
X176452469Y-85115917D01*
X176486218Y-85181538D01*
X176560411Y-85275246D01*
X176658009Y-85354889D01*
X176776884Y-85419152D01*
X176914905Y-85466728D01*
X177069944Y-85496306D01*
X177086896Y-85497678D01*
X177135327Y-85499101D01*
X177203815Y-85499356D01*
X177288239Y-85498576D01*
X177384478Y-85496895D01*
X177488410Y-85494445D01*
X177595915Y-85491358D01*
X177702871Y-85487767D01*
X177805156Y-85483804D01*
X177898652Y-85479603D01*
X177979234Y-85475295D01*
X178042783Y-85471016D01*
X178085177Y-85466895D01*
X178102295Y-85463067D01*
X178103600Y-85449170D01*
X178103575Y-85408479D01*
X178102111Y-85344049D01*
X178099315Y-85258837D01*
X178095295Y-85155791D01*
X178090161Y-85037867D01*
X178084016Y-84908015D01*
X178076970Y-84769188D01*
X178041245Y-84087490D01*
X177524137Y-84121428D01*
X177463897Y-84125397D01*
X177336274Y-84133994D01*
X177233045Y-84141390D01*
X177150703Y-84147992D01*
X177085735Y-84154203D01*
X177034629Y-84160429D01*
X176993878Y-84167076D01*
X176959968Y-84174548D01*
X176929389Y-84183249D01*
X176898631Y-84193586D01*
X176877302Y-84201270D01*
X176742489Y-84259308D01*
X176634351Y-84324649D01*
X176551050Y-84398372D01*
X176512731Y-84444232D01*
X176454402Y-84540045D01*
X176418600Y-84645784D01*
X176404166Y-84765604D01*
X175679261Y-84765604D01*
X175685873Y-84677210D01*
X175701852Y-84588804D01*
X175727515Y-84502673D01*
X175763893Y-84411592D01*
X175808843Y-84329044D01*
X175887496Y-84226488D01*
X175987420Y-84127249D01*
X176104236Y-84035108D01*
X176233560Y-83953851D01*
X176371013Y-83887261D01*
X176388585Y-83879891D01*
X176436504Y-83858703D01*
X176469840Y-83842285D01*
X176482232Y-83833703D01*
X176477823Y-83829657D01*
X176452919Y-83817531D01*
X176413446Y-83802340D01*
X176400411Y-83797567D01*
X176308335Y-83755282D01*
X176210744Y-83698288D01*
X176118837Y-83633668D01*
X176043813Y-83568504D01*
X175997913Y-83517310D01*
X175925408Y-83416405D01*
X175858995Y-83300578D01*
X175803572Y-83178726D01*
X175764030Y-83059752D01*
X175742719Y-82963815D01*
X175729531Y-82856525D01*
X176460730Y-82856525D01*
X176478685Y-82996425D01*
X176518946Y-83122049D01*
X176581054Y-83228047D01*
X176664799Y-83314202D01*
X176769970Y-83380301D01*
X176896353Y-83426126D01*
X177043740Y-83451464D01*
X177072438Y-83453225D01*
X177130388Y-83454545D01*
X177206064Y-83454727D01*
X177295185Y-83453901D01*
X177393467Y-83452199D01*
X177496624Y-83449747D01*
X177600371Y-83446680D01*
X177700427Y-83443123D01*
X177792504Y-83439211D01*
X177872321Y-83435071D01*
X177935592Y-83430833D01*
X177978032Y-83426627D01*
X177995358Y-83422585D01*
X177996464Y-83414995D01*
X177996900Y-83380979D01*
X177995861Y-83322629D01*
X177993458Y-83243003D01*
X177989796Y-83145158D01*
X177984986Y-83032151D01*
X177979133Y-82907043D01*
X177972349Y-82772889D01*
X177938939Y-82135391D01*
X177465866Y-82166922D01*
X177394444Y-82171747D01*
X177259239Y-82181482D01*
X177148105Y-82190750D01*
X177057412Y-82200199D01*
X176983540Y-82210479D01*
X176922859Y-82222240D01*
X176871745Y-82236133D01*
X176826571Y-82252804D01*
X176783715Y-82272907D01*
X176739549Y-82297090D01*
X176720144Y-82308655D01*
X176619832Y-82385920D01*
X176544012Y-82478785D01*
X176492405Y-82587804D01*
X176464738Y-82713534D01*
X176460730Y-82856525D01*
X175729531Y-82856525D01*
X175721933Y-82794712D01*
X175720910Y-82625716D01*
X175739206Y-82462614D01*
X175776374Y-82311197D01*
X175831969Y-82177248D01*
X175835590Y-82170405D01*
X175930137Y-82024111D01*
X176047725Y-81895036D01*
X176186688Y-81784509D01*
X176345365Y-81693866D01*
X176522089Y-81624436D01*
X176539602Y-81618968D01*
X176598558Y-81601517D01*
X176656858Y-81586181D01*
X176717234Y-81572658D01*
X176782414Y-81560648D01*
X176855130Y-81549846D01*
X176938110Y-81539954D01*
X177034085Y-81530667D01*
X177145787Y-81521685D01*
X177275943Y-81512709D01*
X177427283Y-81503433D01*
X177602539Y-81493557D01*
X177804441Y-81482782D01*
X178638455Y-81439073D01*
X178706342Y-82734422D01*
G37*
G36*
X166937471Y-83715675D02*
G01*
X166955165Y-84053312D01*
X166573386Y-84073321D01*
X166191608Y-84093329D01*
X166247503Y-85087691D01*
X166303399Y-86082053D01*
X166681610Y-86066161D01*
X167059822Y-86050269D01*
X167077119Y-86380316D01*
X167094416Y-86710363D01*
X165971407Y-86769218D01*
X164848398Y-86828073D01*
X164831088Y-86497776D01*
X164813778Y-86167481D01*
X165188114Y-86147863D01*
X165562451Y-86128245D01*
X165536578Y-85640154D01*
X165532878Y-85572800D01*
X165525672Y-85453210D01*
X165518142Y-85341139D01*
X165510624Y-85240955D01*
X165503457Y-85157030D01*
X165496976Y-85093731D01*
X165491517Y-85055430D01*
X165464032Y-84943433D01*
X165401337Y-84777436D01*
X165316748Y-84628851D01*
X165211602Y-84499229D01*
X165087247Y-84390126D01*
X164945022Y-84303090D01*
X164786271Y-84239679D01*
X164764228Y-84233114D01*
X164572663Y-84191733D01*
X164378978Y-84176759D01*
X164187334Y-84187987D01*
X164001888Y-84225203D01*
X163826798Y-84288198D01*
X163809392Y-84295879D01*
X163760955Y-84315519D01*
X163725776Y-84327174D01*
X163710508Y-84328537D01*
X163709372Y-84326649D01*
X163697814Y-84303342D01*
X163677351Y-84259319D01*
X163649888Y-84198902D01*
X163617332Y-84126410D01*
X163581591Y-84046166D01*
X163544567Y-83962486D01*
X163508174Y-83879694D01*
X163474312Y-83802107D01*
X163444892Y-83734051D01*
X163421817Y-83679842D01*
X163406998Y-83643800D01*
X163402339Y-83630249D01*
X163406119Y-83627619D01*
X163434196Y-83612832D01*
X163478996Y-83592135D01*
X163532194Y-83569154D01*
X163585460Y-83547521D01*
X163630466Y-83530862D01*
X163639937Y-83527691D01*
X163804481Y-83485769D01*
X163984527Y-83461789D01*
X164172807Y-83455669D01*
X164362051Y-83467319D01*
X164544988Y-83496655D01*
X164714351Y-83543593D01*
X164776070Y-83566663D01*
X164936448Y-83644541D01*
X165078192Y-83742724D01*
X165203218Y-83862958D01*
X165313445Y-84006986D01*
X165410790Y-84176549D01*
X165465540Y-84285942D01*
X165443985Y-83871226D01*
X165422431Y-83456511D01*
X166171104Y-83417276D01*
X166919776Y-83378039D01*
X166937471Y-83715675D01*
G37*
G36*
X189304357Y-75774278D02*
G01*
X189405934Y-75797729D01*
X189435170Y-75886326D01*
X189440605Y-75903245D01*
X189452117Y-75942789D01*
X189459379Y-75973441D01*
X189461005Y-75989661D01*
X189459147Y-75993718D01*
X189445526Y-76012347D01*
X189421987Y-76039731D01*
X189392192Y-76071513D01*
X189326783Y-76138629D01*
X189223567Y-76111715D01*
X189120351Y-76084802D01*
X189093165Y-75998854D01*
X189088757Y-75984585D01*
X189077745Y-75945318D01*
X189070797Y-75914798D01*
X189069263Y-75898682D01*
X189071055Y-75894794D01*
X189084543Y-75876449D01*
X189107966Y-75849286D01*
X189137665Y-75817641D01*
X189202780Y-75750827D01*
X189304357Y-75774278D01*
G37*
G36*
X188616840Y-75626413D02*
G01*
X188713929Y-75648828D01*
X188729262Y-75693100D01*
X188731919Y-75700849D01*
X188745849Y-75743122D01*
X188758762Y-75784371D01*
X188772927Y-75831370D01*
X188709310Y-75900230D01*
X188645694Y-75969091D01*
X188545326Y-75946268D01*
X188444959Y-75923445D01*
X188416989Y-75833884D01*
X188413108Y-75821556D01*
X188402004Y-75785349D01*
X188397074Y-75759522D01*
X188399891Y-75738828D01*
X188412023Y-75718021D01*
X188435042Y-75691857D01*
X188470518Y-75655087D01*
X188519752Y-75603999D01*
X188616840Y-75626413D01*
G37*
G36*
X187927746Y-75489256D02*
G01*
X188017528Y-75509775D01*
X188040727Y-75583017D01*
X188041800Y-75586421D01*
X188052648Y-75623361D01*
X188059776Y-75652215D01*
X188061687Y-75666989D01*
X188061185Y-75668352D01*
X188050834Y-75683149D01*
X188030222Y-75707689D01*
X188003120Y-75737438D01*
X187946791Y-75797156D01*
X187862846Y-75777983D01*
X187778901Y-75758811D01*
X187752964Y-75677607D01*
X187749475Y-75666579D01*
X187738314Y-75629649D01*
X187730854Y-75602294D01*
X187728556Y-75589779D01*
X187728812Y-75589141D01*
X187738087Y-75576954D01*
X187757744Y-75554446D01*
X187784024Y-75525944D01*
X187837964Y-75468735D01*
X187927746Y-75489256D01*
G37*
G36*
X187241539Y-75346916D02*
G01*
X187317863Y-75364537D01*
X187339526Y-75432494D01*
X187343213Y-75444148D01*
X187351935Y-75476358D01*
X187352965Y-75500359D01*
X187344427Y-75521891D01*
X187324447Y-75546687D01*
X187291149Y-75580485D01*
X187255137Y-75616168D01*
X187182854Y-75599480D01*
X187110573Y-75582793D01*
X187091112Y-75527475D01*
X187078954Y-75491028D01*
X187072149Y-75458717D01*
X187075408Y-75433902D01*
X187089892Y-75409900D01*
X187116764Y-75380031D01*
X187165215Y-75329296D01*
X187241539Y-75346916D01*
G37*
G36*
X186551330Y-75209293D02*
G01*
X186619115Y-75224942D01*
X186637011Y-75283479D01*
X186654907Y-75342016D01*
X186611226Y-75388859D01*
X186567545Y-75435701D01*
X186502363Y-75420653D01*
X186437182Y-75405604D01*
X186419053Y-75344395D01*
X186400925Y-75283186D01*
X186442236Y-75238414D01*
X186483546Y-75193644D01*
X186551330Y-75209293D01*
G37*
G36*
X185865983Y-75067361D02*
G01*
X185892610Y-75074031D01*
X185913714Y-75083065D01*
X185925572Y-75097284D01*
X185934709Y-75121863D01*
X185937284Y-75130512D01*
X185943660Y-75159201D01*
X185944584Y-75177831D01*
X185943310Y-75181342D01*
X185931059Y-75200402D01*
X185911174Y-75223806D01*
X185894134Y-75240403D01*
X185877884Y-75248972D01*
X185856684Y-75248982D01*
X185822769Y-75242032D01*
X185764475Y-75228574D01*
X185750587Y-75176546D01*
X185736698Y-75124517D01*
X185773565Y-75089526D01*
X185792821Y-75072179D01*
X185811376Y-75061647D01*
X185832837Y-75060743D01*
X185865983Y-75067361D01*
G37*
G36*
X185173829Y-74929287D02*
G01*
X185188530Y-74932856D01*
X185212549Y-74941667D01*
X185225344Y-74955241D01*
X185233778Y-74979304D01*
X185237499Y-74993512D01*
X185239577Y-75013214D01*
X185232270Y-75029275D01*
X185212850Y-75051060D01*
X185206271Y-75057879D01*
X185186408Y-75074468D01*
X185167596Y-75078067D01*
X185140084Y-75071401D01*
X185117563Y-75062882D01*
X185098659Y-75047116D01*
X185086727Y-75019557D01*
X185085205Y-75014585D01*
X185079615Y-74989542D01*
X185083714Y-74971484D01*
X185099544Y-74949199D01*
X185108272Y-74938662D01*
X185123853Y-74925839D01*
X185142895Y-74923467D01*
X185173829Y-74929287D01*
G37*
G36*
X184488206Y-74781861D02*
G01*
X184488631Y-74781959D01*
X184515242Y-74794774D01*
X184530057Y-74821392D01*
X184534619Y-74838382D01*
X184533234Y-74857955D01*
X184518857Y-74878547D01*
X184511735Y-74886146D01*
X184490807Y-74897684D01*
X184462018Y-74895293D01*
X184450937Y-74892315D01*
X184429360Y-74879582D01*
X184418274Y-74855325D01*
X184414721Y-74838569D01*
X184417368Y-74819288D01*
X184433262Y-74799046D01*
X184433575Y-74798718D01*
X184458557Y-74781517D01*
X184488206Y-74781861D01*
G37*
G36*
X183810809Y-74652187D02*
G01*
X183826923Y-74674443D01*
X183829015Y-74689315D01*
X183816451Y-74707326D01*
X183792875Y-74716473D01*
X183771229Y-74711051D01*
X183756639Y-74695503D01*
X183753642Y-74674732D01*
X183766773Y-74653640D01*
X183787580Y-74645055D01*
X183810809Y-74652187D01*
G37*
G36*
X189969922Y-76091009D02*
G01*
X189971273Y-76098367D01*
X189966324Y-76119449D01*
X189963872Y-76122427D01*
X189948197Y-76127114D01*
X189932882Y-76118125D01*
X189926422Y-76099669D01*
X189927856Y-76092714D01*
X189940356Y-76080375D01*
X189957662Y-76079152D01*
X189969922Y-76091009D01*
G37*
G36*
X183108761Y-74523130D02*
G01*
X183102415Y-74527096D01*
X183098449Y-74520749D01*
X183104796Y-74516783D01*
X183108761Y-74523130D01*
G37*
G36*
X189463866Y-75083368D02*
G01*
X189577041Y-75109497D01*
X189592148Y-75153716D01*
X189599834Y-75176941D01*
X189613314Y-75219515D01*
X189626436Y-75262664D01*
X189645616Y-75327394D01*
X189566853Y-75409119D01*
X189488090Y-75490844D01*
X189375779Y-75464915D01*
X189263468Y-75438986D01*
X189228502Y-75331005D01*
X189193537Y-75223023D01*
X189239152Y-75173252D01*
X189260250Y-75150473D01*
X189291889Y-75116985D01*
X189317729Y-75090361D01*
X189350692Y-75057240D01*
X189463866Y-75083368D01*
G37*
G36*
X188774532Y-74945946D02*
G01*
X188879668Y-74970218D01*
X188908393Y-75061983D01*
X188914665Y-75082322D01*
X188925846Y-75120400D01*
X188933237Y-75148210D01*
X188935486Y-75160813D01*
X188933315Y-75164352D01*
X188919705Y-75180972D01*
X188896509Y-75207163D01*
X188867067Y-75239102D01*
X188800280Y-75310327D01*
X188696002Y-75286119D01*
X188591724Y-75261912D01*
X188563622Y-75171922D01*
X188557862Y-75153412D01*
X188546139Y-75115275D01*
X188537717Y-75087224D01*
X188534123Y-75074312D01*
X188535885Y-75070202D01*
X188548801Y-75052969D01*
X188571577Y-75026372D01*
X188601062Y-74994182D01*
X188669397Y-74921674D01*
X188774532Y-74945946D01*
G37*
G36*
X188086927Y-74798062D02*
G01*
X188177767Y-74819034D01*
X188192936Y-74863267D01*
X188195684Y-74871391D01*
X188209290Y-74913673D01*
X188221762Y-74955032D01*
X188235419Y-75002563D01*
X188189141Y-75050687D01*
X188167252Y-75073408D01*
X188141170Y-75100380D01*
X188123306Y-75118734D01*
X188116213Y-75125198D01*
X188103942Y-75131155D01*
X188085975Y-75131930D01*
X188057381Y-75127480D01*
X188013228Y-75117760D01*
X187922709Y-75096862D01*
X187896979Y-75010762D01*
X187892621Y-74995961D01*
X187882073Y-74957939D01*
X187875156Y-74929610D01*
X187873194Y-74916234D01*
X187874330Y-74913970D01*
X187886104Y-74898546D01*
X187907705Y-74873318D01*
X187935613Y-74842448D01*
X187996086Y-74777090D01*
X188086927Y-74798062D01*
G37*
G36*
X187401299Y-74663784D02*
G01*
X187483586Y-74685924D01*
X187504764Y-74761648D01*
X187525942Y-74837371D01*
X187471121Y-74897798D01*
X187416300Y-74958225D01*
X187335896Y-74939662D01*
X187255492Y-74921099D01*
X187231620Y-74847702D01*
X187230402Y-74843935D01*
X187219301Y-74807131D01*
X187212023Y-74778508D01*
X187210091Y-74763985D01*
X187210287Y-74763366D01*
X187219554Y-74749858D01*
X187239341Y-74726395D01*
X187265722Y-74697654D01*
X187319012Y-74641644D01*
X187401299Y-74663784D01*
G37*
G36*
X190133420Y-75303118D02*
G01*
X190207857Y-75320303D01*
X190227886Y-75382366D01*
X190236943Y-75411456D01*
X190245189Y-75440477D01*
X190248656Y-75456294D01*
X190248658Y-75456624D01*
X190241670Y-75470411D01*
X190223792Y-75494179D01*
X190198726Y-75522981D01*
X190148053Y-75577803D01*
X190074470Y-75560932D01*
X190000887Y-75544062D01*
X189978044Y-75472839D01*
X189977151Y-75470051D01*
X189966192Y-75434891D01*
X189958644Y-75408981D01*
X189956094Y-75397753D01*
X189956151Y-75397594D01*
X189964096Y-75387760D01*
X189982639Y-75367122D01*
X190007984Y-75339910D01*
X190058982Y-75285932D01*
X190133420Y-75303118D01*
G37*
G36*
X186709312Y-74523601D02*
G01*
X186781523Y-74540154D01*
X186799963Y-74601424D01*
X186807879Y-74629623D01*
X186814431Y-74658006D01*
X186816022Y-74673007D01*
X186810389Y-74682568D01*
X186793654Y-74703859D01*
X186770134Y-74730627D01*
X186726627Y-74777935D01*
X186655711Y-74758519D01*
X186584795Y-74739103D01*
X186564170Y-74675444D01*
X186543544Y-74611785D01*
X186590323Y-74559416D01*
X186637102Y-74507048D01*
X186709312Y-74523601D01*
G37*
G36*
X186019679Y-74385971D02*
G01*
X186024262Y-74387031D01*
X186056656Y-74395485D01*
X186075353Y-74404976D01*
X186086657Y-74420493D01*
X186096875Y-74447024D01*
X186107001Y-74480475D01*
X186108227Y-74508087D01*
X186096593Y-74532284D01*
X186070179Y-74561277D01*
X186034378Y-74596750D01*
X185973019Y-74579361D01*
X185911659Y-74561973D01*
X185896444Y-74508072D01*
X185881230Y-74454171D01*
X185920073Y-74413056D01*
X185958915Y-74371942D01*
X186019679Y-74385971D01*
G37*
G36*
X185333066Y-74240525D02*
G01*
X185359790Y-74245551D01*
X185378395Y-74253585D01*
X185388833Y-74269689D01*
X185397856Y-74300068D01*
X185411455Y-74351014D01*
X185379546Y-74383240D01*
X185364593Y-74397555D01*
X185347048Y-74408236D01*
X185326130Y-74409379D01*
X185293327Y-74402928D01*
X185263878Y-74395502D01*
X185245525Y-74386555D01*
X185236216Y-74371384D01*
X185229841Y-74344349D01*
X185226329Y-74325772D01*
X185225111Y-74303742D01*
X185232530Y-74286836D01*
X185251270Y-74265118D01*
X185260562Y-74255364D01*
X185279522Y-74240666D01*
X185300625Y-74236641D01*
X185333066Y-74240525D01*
G37*
G36*
X184645334Y-74101263D02*
G01*
X184647726Y-74101821D01*
X184674707Y-74110470D01*
X184688500Y-74124087D01*
X184696460Y-74149634D01*
X184696993Y-74152055D01*
X184700849Y-74178033D01*
X184695524Y-74195610D01*
X184677891Y-74215947D01*
X184665861Y-74227151D01*
X184643321Y-74237983D01*
X184614385Y-74235320D01*
X184599135Y-74230965D01*
X184578716Y-74217117D01*
X184565800Y-74190069D01*
X184565038Y-74187753D01*
X184558726Y-74162666D01*
X184562412Y-74144659D01*
X184578180Y-74122327D01*
X184579565Y-74120594D01*
X184597625Y-74102080D01*
X184616328Y-74096647D01*
X184645334Y-74101263D01*
G37*
G36*
X183969599Y-73968753D02*
G01*
X183989344Y-73988858D01*
X183993613Y-74016246D01*
X183980402Y-74044133D01*
X183968321Y-74053542D01*
X183941634Y-74058044D01*
X183915725Y-74047948D01*
X183898738Y-74025150D01*
X183895843Y-74008396D01*
X183904221Y-73982024D01*
X183926155Y-73965525D01*
X183956784Y-73964022D01*
X183969599Y-73968753D01*
G37*
G36*
X183270753Y-73840029D02*
G01*
X183280240Y-73852764D01*
X183274930Y-73864828D01*
X183263425Y-73868383D01*
X183247580Y-73862830D01*
X183242885Y-73848083D01*
X183246266Y-73841279D01*
X183261315Y-73836045D01*
X183270753Y-73840029D01*
G37*
G36*
X167655653Y-64682961D02*
G01*
X167681564Y-64686740D01*
X167716580Y-64693114D01*
X167762625Y-64702428D01*
X167821623Y-64715026D01*
X167895497Y-64731250D01*
X167986171Y-64751442D01*
X168095571Y-64775947D01*
X168197280Y-64798788D01*
X168289762Y-64819692D01*
X168365330Y-64837018D01*
X168425940Y-64851289D01*
X168473544Y-64863026D01*
X168510097Y-64872750D01*
X168537555Y-64880984D01*
X168557870Y-64888250D01*
X168572995Y-64895070D01*
X168584888Y-64901966D01*
X168595500Y-64909458D01*
X168599497Y-64912520D01*
X168630738Y-64945252D01*
X168647781Y-64986230D01*
X168648340Y-64988502D01*
X168649706Y-64994971D01*
X168650599Y-65002333D01*
X168650807Y-65011574D01*
X168650117Y-65023684D01*
X168648318Y-65039646D01*
X168645196Y-65060450D01*
X168640540Y-65087083D01*
X168634137Y-65120530D01*
X168625775Y-65161780D01*
X168615241Y-65211819D01*
X168602324Y-65271636D01*
X168586810Y-65342214D01*
X168568488Y-65424544D01*
X168547145Y-65519610D01*
X168522568Y-65628402D01*
X168494547Y-65751905D01*
X168462866Y-65891106D01*
X168427317Y-66046994D01*
X168387684Y-66220554D01*
X168343757Y-66412774D01*
X168295322Y-66624640D01*
X168267255Y-66747372D01*
X168220180Y-66953115D01*
X168177474Y-67139796D01*
X168138944Y-67308433D01*
X168104403Y-67460043D01*
X168073662Y-67595649D01*
X168046530Y-67716267D01*
X168022818Y-67822916D01*
X168002339Y-67916617D01*
X167984902Y-67998387D01*
X167970319Y-68069246D01*
X167958399Y-68130212D01*
X167948953Y-68182304D01*
X167941793Y-68226541D01*
X167936729Y-68263943D01*
X167933572Y-68295528D01*
X167932133Y-68322315D01*
X167932222Y-68345323D01*
X167933650Y-68365571D01*
X167936229Y-68384077D01*
X167939768Y-68401862D01*
X167944078Y-68419943D01*
X167948971Y-68439340D01*
X167954257Y-68461071D01*
X167977745Y-68539747D01*
X168026738Y-68642778D01*
X168093784Y-68735017D01*
X168178639Y-68816200D01*
X168281056Y-68886062D01*
X168400794Y-68944340D01*
X168478501Y-68972853D01*
X168618648Y-69009472D01*
X168758294Y-69027855D01*
X168854902Y-69029456D01*
X168980804Y-69016052D01*
X169096119Y-68984620D01*
X169200448Y-68935358D01*
X169293396Y-68868467D01*
X169374568Y-68784145D01*
X169443567Y-68682595D01*
X169447250Y-68675690D01*
X169451914Y-68665486D01*
X169457063Y-68652277D01*
X169462940Y-68635084D01*
X169469782Y-68612930D01*
X169477831Y-68584837D01*
X169487327Y-68549826D01*
X169498509Y-68506917D01*
X169511619Y-68455136D01*
X169526894Y-68393501D01*
X169544577Y-68321035D01*
X169564908Y-68236761D01*
X169588125Y-68139699D01*
X169614472Y-68028871D01*
X169644185Y-67903299D01*
X169677505Y-67762006D01*
X169714673Y-67604012D01*
X169755929Y-67428339D01*
X169801514Y-67234010D01*
X169851667Y-67020046D01*
X170228356Y-65412584D01*
X170264685Y-65368055D01*
X170285481Y-65345095D01*
X170314132Y-65324967D01*
X170350280Y-65314072D01*
X170361170Y-65312266D01*
X170374660Y-65311170D01*
X170390887Y-65311528D01*
X170411837Y-65313730D01*
X170439489Y-65318165D01*
X170475826Y-65325221D01*
X170522832Y-65335286D01*
X170582488Y-65348750D01*
X170656775Y-65366000D01*
X170747679Y-65387425D01*
X170857178Y-65413413D01*
X170887525Y-65420628D01*
X170991499Y-65445395D01*
X171077246Y-65465967D01*
X171146645Y-65482877D01*
X171201575Y-65496661D01*
X171243917Y-65507857D01*
X171275552Y-65516997D01*
X171298358Y-65524619D01*
X171314216Y-65531257D01*
X171325005Y-65537448D01*
X171332606Y-65543727D01*
X171338899Y-65550628D01*
X171340616Y-65552715D01*
X171360445Y-65583975D01*
X171375531Y-65618825D01*
X171376493Y-65622012D01*
X171377842Y-65627836D01*
X171378640Y-65634967D01*
X171378678Y-65644373D01*
X171377748Y-65657019D01*
X171375639Y-65673873D01*
X171372146Y-65695900D01*
X171367056Y-65724067D01*
X171360163Y-65759338D01*
X171351258Y-65802682D01*
X171340132Y-65855062D01*
X171326575Y-65917448D01*
X171310379Y-65990804D01*
X171291336Y-66076096D01*
X171269238Y-66174292D01*
X171243874Y-66286355D01*
X171215037Y-66413254D01*
X171182517Y-66555955D01*
X171146105Y-66715422D01*
X171105594Y-66892624D01*
X171060775Y-67088525D01*
X171011437Y-67304093D01*
X171005720Y-67329072D01*
X170950932Y-67568149D01*
X170900615Y-67787207D01*
X170854630Y-67986825D01*
X170812841Y-68167583D01*
X170775111Y-68330057D01*
X170741305Y-68474831D01*
X170711285Y-68602481D01*
X170684914Y-68713587D01*
X170662055Y-68808730D01*
X170642573Y-68888485D01*
X170626328Y-68953436D01*
X170613186Y-69004159D01*
X170603010Y-69041235D01*
X170595663Y-69065242D01*
X170589108Y-69084198D01*
X170527556Y-69233594D01*
X170451947Y-69374687D01*
X170364585Y-69503603D01*
X170267774Y-69616468D01*
X170233105Y-69650851D01*
X170102649Y-69761254D01*
X169958116Y-69856566D01*
X169800335Y-69936553D01*
X169630134Y-70000981D01*
X169448342Y-70049617D01*
X169255786Y-70082227D01*
X169053295Y-70098575D01*
X168841699Y-70098429D01*
X168621825Y-70081552D01*
X168609368Y-70080053D01*
X168535774Y-70068665D01*
X168448992Y-70051961D01*
X168354710Y-70031305D01*
X168258614Y-70008060D01*
X168166391Y-69983589D01*
X168083728Y-69959254D01*
X168016312Y-69936420D01*
X167969965Y-69918586D01*
X167808042Y-69848186D01*
X167650975Y-69767648D01*
X167502025Y-69679017D01*
X167364455Y-69584338D01*
X167241527Y-69485655D01*
X167136504Y-69385012D01*
X167037942Y-69271989D01*
X166935452Y-69129802D01*
X166853065Y-68982822D01*
X166790276Y-68829773D01*
X166746577Y-68669381D01*
X166721463Y-68500371D01*
X166714430Y-68321468D01*
X166715563Y-68207681D01*
X167113145Y-66485564D01*
X167120465Y-66453859D01*
X167170781Y-66235936D01*
X167216598Y-66037571D01*
X167258144Y-65857825D01*
X167295648Y-65695762D01*
X167329336Y-65550442D01*
X167359437Y-65420929D01*
X167386181Y-65306285D01*
X167409794Y-65205571D01*
X167430505Y-65117851D01*
X167448542Y-65042187D01*
X167464132Y-64977640D01*
X167477505Y-64923273D01*
X167488887Y-64878148D01*
X167498509Y-64841327D01*
X167506597Y-64811874D01*
X167513379Y-64788848D01*
X167519084Y-64771315D01*
X167523941Y-64758335D01*
X167528175Y-64748970D01*
X167532018Y-64742284D01*
X167535695Y-64737337D01*
X167539436Y-64733192D01*
X167541528Y-64731039D01*
X167571194Y-64706379D01*
X167602257Y-64687957D01*
X167604584Y-64686950D01*
X167613313Y-64683775D01*
X167623452Y-64681821D01*
X167636924Y-64681436D01*
X167655653Y-64682961D01*
G37*
G36*
X190309614Y-74540028D02*
G01*
X190435416Y-74569071D01*
X190475360Y-74692386D01*
X190476183Y-74694932D01*
X190490891Y-74742491D01*
X190502012Y-74782327D01*
X190508477Y-74810331D01*
X190509216Y-74822396D01*
X190501793Y-74830357D01*
X190482414Y-74851002D01*
X190454478Y-74880704D01*
X190421173Y-74916073D01*
X190339217Y-75003054D01*
X190208437Y-74972413D01*
X190077659Y-74941771D01*
X190041528Y-74824303D01*
X190028892Y-74780231D01*
X190018943Y-74738820D01*
X190013794Y-74708396D01*
X190014387Y-74693506D01*
X190021872Y-74684342D01*
X190041757Y-74662037D01*
X190070139Y-74631198D01*
X190103594Y-74595580D01*
X190183811Y-74510984D01*
X190309614Y-74540028D01*
G37*
G36*
X189620882Y-74402745D02*
G01*
X189742558Y-74430836D01*
X189777514Y-74543644D01*
X189812471Y-74656452D01*
X189730205Y-74744525D01*
X189647940Y-74832599D01*
X189528651Y-74805059D01*
X189478632Y-74793140D01*
X189442577Y-74783273D01*
X189420248Y-74774860D01*
X189408032Y-74766523D01*
X189402316Y-74756884D01*
X189400092Y-74750152D01*
X189391662Y-74723694D01*
X189379708Y-74685527D01*
X189366055Y-74641459D01*
X189336839Y-74546669D01*
X189418022Y-74460661D01*
X189499206Y-74374654D01*
X189620882Y-74402745D01*
G37*
G36*
X174557293Y-66221800D02*
G01*
X174572602Y-66224786D01*
X174620700Y-66230132D01*
X174665624Y-66230517D01*
X174690595Y-66231931D01*
X174733212Y-66237978D01*
X174790019Y-66247961D01*
X174857844Y-66261162D01*
X174933514Y-66276859D01*
X175013859Y-66294337D01*
X175095706Y-66312875D01*
X175175883Y-66331754D01*
X175251219Y-66350257D01*
X175318539Y-66367665D01*
X175374674Y-66383259D01*
X175416452Y-66396320D01*
X175440699Y-66406129D01*
X175450175Y-66410825D01*
X175484322Y-66424602D01*
X175528866Y-66439911D01*
X175576658Y-66454224D01*
X175674072Y-66481090D01*
X176031125Y-67285026D01*
X176388178Y-68088962D01*
X176633034Y-68145620D01*
X176877890Y-68202278D01*
X177549158Y-67635425D01*
X178220426Y-67068572D01*
X178811506Y-67204556D01*
X178825637Y-67207809D01*
X178953117Y-67237242D01*
X179061372Y-67262449D01*
X179151709Y-67283760D01*
X179225431Y-67301508D01*
X179283843Y-67316022D01*
X179328251Y-67327632D01*
X179359961Y-67336671D01*
X179380277Y-67343468D01*
X179390503Y-67348355D01*
X179391948Y-67351662D01*
X179388782Y-67354483D01*
X179371019Y-67369668D01*
X179338737Y-67397000D01*
X179293049Y-67435545D01*
X179235068Y-67484370D01*
X179165903Y-67542539D01*
X179086666Y-67609118D01*
X178998471Y-67683174D01*
X178902427Y-67763772D01*
X178799645Y-67849977D01*
X178691240Y-67940856D01*
X178578321Y-68035475D01*
X178524651Y-68080436D01*
X178412123Y-68174713D01*
X178303838Y-68265440D01*
X178200996Y-68351616D01*
X178104793Y-68432234D01*
X178016430Y-68506292D01*
X177937103Y-68572783D01*
X177868012Y-68630705D01*
X177810354Y-68679051D01*
X177765326Y-68716820D01*
X177734130Y-68743006D01*
X177717961Y-68756604D01*
X177673032Y-68794538D01*
X177660591Y-68805042D01*
X178122771Y-69840798D01*
X178124214Y-69844031D01*
X178186528Y-69983761D01*
X178246331Y-70118009D01*
X178303063Y-70245518D01*
X178356171Y-70365028D01*
X178405095Y-70475282D01*
X178449279Y-70575021D01*
X178488166Y-70662986D01*
X178521199Y-70737920D01*
X178547821Y-70798563D01*
X178567476Y-70843659D01*
X178579606Y-70871946D01*
X178583655Y-70882170D01*
X178577204Y-70881511D01*
X178552015Y-70876612D01*
X178509502Y-70867553D01*
X178451493Y-70854744D01*
X178379814Y-70838600D01*
X178296293Y-70819532D01*
X178202758Y-70797952D01*
X178101036Y-70774273D01*
X177992953Y-70748906D01*
X177403547Y-70610027D01*
X177050731Y-69806269D01*
X176697914Y-69002510D01*
X176456214Y-68943803D01*
X176214514Y-68885095D01*
X175534638Y-69455638D01*
X175477254Y-69503754D01*
X175349801Y-69610295D01*
X175235606Y-69705264D01*
X175135019Y-69788380D01*
X175048386Y-69859362D01*
X174976050Y-69917928D01*
X174918360Y-69963798D01*
X174875661Y-69996690D01*
X174848301Y-70016323D01*
X174836625Y-70022414D01*
X174836033Y-70022307D01*
X174831925Y-70022807D01*
X174827671Y-70026638D01*
X174822853Y-70035375D01*
X174817056Y-70050589D01*
X174809864Y-70073854D01*
X174800864Y-70106742D01*
X174789639Y-70150827D01*
X174775773Y-70207682D01*
X174758851Y-70278879D01*
X174738458Y-70365991D01*
X174714179Y-70470592D01*
X174685597Y-70594255D01*
X174671643Y-70654632D01*
X174644043Y-70773475D01*
X174620452Y-70874050D01*
X174600448Y-70957998D01*
X174583606Y-71026962D01*
X174569509Y-71082584D01*
X174557732Y-71126508D01*
X174547854Y-71160374D01*
X174539454Y-71185824D01*
X174532109Y-71204504D01*
X174525398Y-71218053D01*
X174518303Y-71230046D01*
X174489266Y-71266602D01*
X174454409Y-71287836D01*
X174407011Y-71298303D01*
X174402557Y-71298495D01*
X174390823Y-71297684D01*
X174372981Y-71295274D01*
X174348125Y-71291064D01*
X174315349Y-71284850D01*
X174273747Y-71276431D01*
X174222413Y-71265605D01*
X174160441Y-71252167D01*
X174086923Y-71235918D01*
X174000954Y-71216654D01*
X173901628Y-71194173D01*
X173788039Y-71168273D01*
X173659280Y-71138751D01*
X173514445Y-71105404D01*
X173352628Y-71068032D01*
X173172923Y-71026431D01*
X172974424Y-70980399D01*
X172756223Y-70929733D01*
X171148048Y-70556131D01*
X171114714Y-70522948D01*
X171107364Y-70515626D01*
X171093321Y-70500816D01*
X171082438Y-70486195D01*
X171074872Y-70469678D01*
X171070778Y-70449185D01*
X171070313Y-70422633D01*
X171073632Y-70387941D01*
X171080892Y-70343026D01*
X171092249Y-70285806D01*
X171107858Y-70214199D01*
X171127877Y-70126122D01*
X171152461Y-70019495D01*
X171158650Y-69992696D01*
X171180990Y-69896258D01*
X171199351Y-69817866D01*
X171214318Y-69755445D01*
X171226478Y-69706917D01*
X171236418Y-69670206D01*
X171244722Y-69643234D01*
X171251978Y-69623924D01*
X171258771Y-69610200D01*
X171265687Y-69599985D01*
X171273312Y-69591203D01*
X171275751Y-69588695D01*
X171310529Y-69564068D01*
X171353637Y-69547293D01*
X171404769Y-69534659D01*
X172495445Y-69786461D01*
X173586121Y-70038263D01*
X173946768Y-68486935D01*
X175177542Y-68486935D01*
X175295990Y-68387194D01*
X175340121Y-68349144D01*
X175380196Y-68311821D01*
X175403408Y-68286000D01*
X175409488Y-68271957D01*
X175408953Y-68270423D01*
X175401551Y-68252077D01*
X175387671Y-68219310D01*
X175369074Y-68176249D01*
X175347527Y-68127022D01*
X175290517Y-67997584D01*
X175258786Y-68121795D01*
X175249655Y-68158357D01*
X175232649Y-68229623D01*
X175216007Y-68302702D01*
X175202298Y-68366470D01*
X175177542Y-68486935D01*
X173946768Y-68486935D01*
X174012093Y-68205937D01*
X174438067Y-66373609D01*
X174481979Y-66321707D01*
X174485556Y-66317471D01*
X174507529Y-66290382D01*
X174517940Y-66273107D01*
X174518998Y-66260280D01*
X174512912Y-66246531D01*
X174503331Y-66226078D01*
X174505607Y-66215941D01*
X174522688Y-66215019D01*
X174557293Y-66221800D01*
G37*
G36*
X163445742Y-63700121D02*
G01*
X163540548Y-63722144D01*
X163664005Y-63751297D01*
X163767374Y-63776347D01*
X163850526Y-63797262D01*
X163913332Y-63814009D01*
X163955664Y-63826555D01*
X163977392Y-63834867D01*
X163983392Y-63838274D01*
X163999450Y-63849297D01*
X164014953Y-63863645D01*
X164030494Y-63882720D01*
X164046663Y-63907922D01*
X164064050Y-63940651D01*
X164083248Y-63982308D01*
X164104849Y-64034293D01*
X164129443Y-64098006D01*
X164157621Y-64174848D01*
X164189976Y-64266219D01*
X164227097Y-64373520D01*
X164269578Y-64498150D01*
X164318008Y-64641511D01*
X164324768Y-64661581D01*
X164362845Y-64774584D01*
X164399364Y-64882912D01*
X164433677Y-64984643D01*
X164465134Y-65077853D01*
X164493084Y-65160618D01*
X164516879Y-65231016D01*
X164535869Y-65287123D01*
X164549406Y-65327016D01*
X164556839Y-65348772D01*
X164579995Y-65415752D01*
X165088967Y-64903850D01*
X165130526Y-64862085D01*
X165217049Y-64775349D01*
X165300023Y-64692451D01*
X165378028Y-64614794D01*
X165449649Y-64543779D01*
X165513465Y-64480805D01*
X165568063Y-64427271D01*
X165612023Y-64384582D01*
X165643928Y-64354135D01*
X165662360Y-64337330D01*
X165694560Y-64311879D01*
X165740021Y-64284513D01*
X165786300Y-64268437D01*
X165845818Y-64254162D01*
X166341343Y-64368603D01*
X166384670Y-64378613D01*
X166491902Y-64403450D01*
X166580969Y-64424240D01*
X166653686Y-64441473D01*
X166711869Y-64455642D01*
X166757333Y-64467238D01*
X166791897Y-64476753D01*
X166817375Y-64484679D01*
X166835583Y-64491508D01*
X166848338Y-64497729D01*
X166857454Y-64503838D01*
X166864749Y-64510324D01*
X166872190Y-64518564D01*
X166891981Y-64558591D01*
X166896524Y-64606666D01*
X166884978Y-64656695D01*
X166880078Y-64664315D01*
X166862722Y-64685323D01*
X166832923Y-64718542D01*
X166790422Y-64764241D01*
X166734959Y-64822688D01*
X166666275Y-64894153D01*
X166584111Y-64978903D01*
X166488206Y-65077206D01*
X166378301Y-65189332D01*
X166254137Y-65315548D01*
X166115454Y-65456123D01*
X165961992Y-65611325D01*
X165867907Y-65706407D01*
X165756034Y-65819518D01*
X165649005Y-65927791D01*
X165547733Y-66030299D01*
X165453133Y-66126114D01*
X165366117Y-66214310D01*
X165287601Y-66293958D01*
X165218498Y-66364133D01*
X165159721Y-66423906D01*
X165112185Y-66472351D01*
X165076804Y-66508540D01*
X165054492Y-66531546D01*
X165046164Y-66540443D01*
X165046120Y-66540547D01*
X165048507Y-66552965D01*
X165056802Y-66584311D01*
X165070640Y-66633368D01*
X165089657Y-66698916D01*
X165113484Y-66779739D01*
X165141756Y-66874619D01*
X165174110Y-66982335D01*
X165210177Y-67101672D01*
X165249592Y-67231412D01*
X165291990Y-67370335D01*
X165337005Y-67517224D01*
X165384271Y-67670860D01*
X165433422Y-67830027D01*
X165434404Y-67833203D01*
X165483716Y-67992886D01*
X165531266Y-68147401D01*
X165576675Y-68295499D01*
X165619568Y-68435923D01*
X165659564Y-68567420D01*
X165696289Y-68688738D01*
X165729364Y-68798621D01*
X165758413Y-68895816D01*
X165783057Y-68979070D01*
X165802920Y-69047128D01*
X165817622Y-69098737D01*
X165826788Y-69132644D01*
X165830041Y-69147595D01*
X165830104Y-69155376D01*
X165820138Y-69208209D01*
X165794193Y-69253937D01*
X165755414Y-69286704D01*
X165717220Y-69307757D01*
X165232125Y-69195764D01*
X165213374Y-69191431D01*
X165084459Y-69161373D01*
X164975408Y-69135424D01*
X164885469Y-69113388D01*
X164813885Y-69095076D01*
X164759901Y-69080294D01*
X164722765Y-69068849D01*
X164701721Y-69060550D01*
X164693175Y-69056064D01*
X164678075Y-69047112D01*
X164664100Y-69036502D01*
X164650752Y-69022902D01*
X164637531Y-69004976D01*
X164623939Y-68981390D01*
X164609477Y-68950809D01*
X164593645Y-68911900D01*
X164575946Y-68863325D01*
X164555880Y-68803754D01*
X164532949Y-68731849D01*
X164506652Y-68646278D01*
X164476492Y-68545704D01*
X164441970Y-68428794D01*
X164402588Y-68294214D01*
X164357846Y-68140629D01*
X164130770Y-67360309D01*
X163615034Y-67931365D01*
X163544561Y-68009350D01*
X163461751Y-68100864D01*
X163383226Y-68187510D01*
X163310222Y-68267930D01*
X163243975Y-68340770D01*
X163185720Y-68404671D01*
X163136694Y-68458277D01*
X163098131Y-68500230D01*
X163071269Y-68529174D01*
X163057341Y-68543753D01*
X163033352Y-68565588D01*
X162979661Y-68603945D01*
X162925826Y-68629874D01*
X162877271Y-68640458D01*
X162858802Y-68638890D01*
X162819367Y-68632415D01*
X162760906Y-68621110D01*
X162684216Y-68605145D01*
X162590092Y-68584685D01*
X162479332Y-68559895D01*
X162352730Y-68530942D01*
X162267856Y-68511361D01*
X162163482Y-68487176D01*
X162076831Y-68466742D01*
X162006203Y-68449431D01*
X161949902Y-68434611D01*
X161906233Y-68421654D01*
X161873498Y-68409931D01*
X161850001Y-68398814D01*
X161834045Y-68387670D01*
X161823933Y-68375873D01*
X161817969Y-68362791D01*
X161814457Y-68347797D01*
X161811698Y-68330261D01*
X161808218Y-68287084D01*
X161815850Y-68243471D01*
X161838217Y-68202781D01*
X161841030Y-68199281D01*
X161857498Y-68180522D01*
X161886654Y-68148257D01*
X161927239Y-68103855D01*
X161977988Y-68048682D01*
X162037639Y-67984106D01*
X162104930Y-67911495D01*
X162178599Y-67832217D01*
X162257384Y-67747640D01*
X162340021Y-67659131D01*
X162356065Y-67641966D01*
X162517449Y-67469313D01*
X162665052Y-67311395D01*
X162799489Y-67167543D01*
X162921369Y-67037087D01*
X163031305Y-66919361D01*
X163129909Y-66813696D01*
X163217792Y-66719421D01*
X163295567Y-66635869D01*
X163363845Y-66562371D01*
X163423240Y-66498258D01*
X163474360Y-66442862D01*
X163517821Y-66395513D01*
X163554233Y-66355545D01*
X163584207Y-66322285D01*
X163608356Y-66295068D01*
X163627292Y-66273223D01*
X163641627Y-66256083D01*
X163651974Y-66242977D01*
X163658942Y-66233239D01*
X163663145Y-66226199D01*
X163665194Y-66221189D01*
X163665702Y-66217539D01*
X163665280Y-66214581D01*
X163664539Y-66211645D01*
X163662002Y-66203286D01*
X163653054Y-66175652D01*
X163638097Y-66130179D01*
X163617548Y-66068120D01*
X163591823Y-65990722D01*
X163561341Y-65899237D01*
X163526519Y-65794917D01*
X163487775Y-65679010D01*
X163445526Y-65552769D01*
X163400189Y-65417442D01*
X163352182Y-65274279D01*
X163301923Y-65124533D01*
X163249828Y-64969453D01*
X163247336Y-64962036D01*
X163186550Y-64781143D01*
X163132152Y-64619172D01*
X163083802Y-64475024D01*
X163041155Y-64347599D01*
X163003869Y-64235798D01*
X162971603Y-64138522D01*
X162944014Y-64054672D01*
X162920761Y-63983149D01*
X162901500Y-63922853D01*
X162885889Y-63872685D01*
X162873587Y-63831547D01*
X162864251Y-63798338D01*
X162857538Y-63771960D01*
X162853107Y-63751314D01*
X162850616Y-63735300D01*
X162849720Y-63722820D01*
X162850080Y-63712774D01*
X162851354Y-63704062D01*
X162853196Y-63695586D01*
X162857002Y-63679976D01*
X162867185Y-63651321D01*
X162882657Y-63631858D01*
X162909167Y-63613112D01*
X162952323Y-63586146D01*
X163445742Y-63700121D01*
G37*
G36*
X188933157Y-74265827D02*
G01*
X189043853Y-74291517D01*
X189071903Y-74381736D01*
X189077411Y-74399703D01*
X189089007Y-74439431D01*
X189097117Y-74469965D01*
X189100247Y-74485828D01*
X189097884Y-74492107D01*
X189084049Y-74512531D01*
X189060578Y-74541740D01*
X189030631Y-74575655D01*
X188960720Y-74651609D01*
X188850197Y-74626398D01*
X188739675Y-74601186D01*
X188707092Y-74498623D01*
X188674509Y-74396061D01*
X188714417Y-74351856D01*
X188728689Y-74336250D01*
X188760554Y-74302384D01*
X188788393Y-74273895D01*
X188822461Y-74240138D01*
X188933157Y-74265827D01*
G37*
G36*
X188242642Y-74119528D02*
G01*
X188340453Y-74139068D01*
X188370817Y-74233110D01*
X188376936Y-74251851D01*
X188388142Y-74287566D01*
X188392869Y-74313251D01*
X188389618Y-74334093D01*
X188376891Y-74355279D01*
X188353192Y-74381996D01*
X188317022Y-74419430D01*
X188267789Y-74470518D01*
X188168023Y-74447352D01*
X188068255Y-74424186D01*
X188041898Y-74338401D01*
X188037570Y-74324048D01*
X188026799Y-74285504D01*
X188019855Y-74256219D01*
X188018076Y-74241634D01*
X188019396Y-74238841D01*
X188031778Y-74222287D01*
X188054090Y-74196360D01*
X188082721Y-74165320D01*
X188144830Y-74099987D01*
X188242642Y-74119528D01*
G37*
G36*
X187557563Y-73980698D02*
G01*
X187645899Y-74001092D01*
X187671484Y-74084981D01*
X187697068Y-74168869D01*
X187661493Y-74204869D01*
X187653083Y-74213497D01*
X187624747Y-74243861D01*
X187601426Y-74270514D01*
X187576934Y-74300161D01*
X187488643Y-74279643D01*
X187400351Y-74259126D01*
X187373820Y-74172783D01*
X187347290Y-74086439D01*
X187408258Y-74023372D01*
X187469227Y-73960304D01*
X187557563Y-73980698D01*
G37*
G36*
X186867089Y-73843013D02*
G01*
X186943553Y-73860667D01*
X186960278Y-73908525D01*
X186964943Y-73921912D01*
X186977712Y-73961733D01*
X186982104Y-73989499D01*
X186977086Y-74011454D01*
X186961620Y-74033836D01*
X186934672Y-74062890D01*
X186881884Y-74117972D01*
X186806253Y-74100511D01*
X186730621Y-74083050D01*
X186708652Y-74007504D01*
X186686681Y-73931958D01*
X186738653Y-73878659D01*
X186790624Y-73825360D01*
X186867089Y-73843013D01*
G37*
G36*
X186178461Y-73708046D02*
G01*
X186248096Y-73727262D01*
X186265827Y-73785664D01*
X186283559Y-73844067D01*
X186238192Y-73890993D01*
X186192824Y-73937920D01*
X186127299Y-73919700D01*
X186061773Y-73901480D01*
X186042425Y-73843769D01*
X186023076Y-73786057D01*
X186065952Y-73737443D01*
X186108826Y-73688830D01*
X186178461Y-73708046D01*
G37*
G36*
X185490268Y-73557746D02*
G01*
X185516055Y-73564218D01*
X185537134Y-73573597D01*
X185549692Y-73589300D01*
X185560714Y-73617229D01*
X185560965Y-73617948D01*
X185571601Y-73652010D01*
X185572773Y-73675082D01*
X185562793Y-73695728D01*
X185539975Y-73722510D01*
X185539093Y-73723479D01*
X185520322Y-73742513D01*
X185504265Y-73751029D01*
X185483168Y-73750846D01*
X185449273Y-73743781D01*
X185445357Y-73742876D01*
X185413449Y-73734563D01*
X185395246Y-73724969D01*
X185384395Y-73708700D01*
X185374537Y-73680365D01*
X185358727Y-73630552D01*
X185397492Y-73587919D01*
X185397853Y-73587521D01*
X185420874Y-73563418D01*
X185438306Y-73552257D01*
X185458614Y-73551284D01*
X185490268Y-73557746D01*
G37*
G36*
X184802463Y-73420666D02*
G01*
X184806886Y-73421706D01*
X184834089Y-73430711D01*
X184849141Y-73445258D01*
X184859974Y-73472493D01*
X184873119Y-73514077D01*
X184842929Y-73550020D01*
X184834261Y-73560116D01*
X184815867Y-73576634D01*
X184796598Y-73580635D01*
X184766752Y-73575347D01*
X184753751Y-73572199D01*
X184730563Y-73563313D01*
X184718211Y-73548028D01*
X184709388Y-73519190D01*
X184698009Y-73473650D01*
X184728052Y-73442036D01*
X184731064Y-73438894D01*
X184751992Y-73420897D01*
X184772371Y-73415803D01*
X184802463Y-73420666D01*
G37*
G36*
X184111457Y-73282857D02*
G01*
X184133639Y-73290868D01*
X184156356Y-73312585D01*
X184160421Y-73342240D01*
X184144796Y-73376903D01*
X184135282Y-73388863D01*
X184116770Y-73399876D01*
X184089903Y-73397360D01*
X184068410Y-73389197D01*
X184045319Y-73366186D01*
X184039670Y-73335521D01*
X184053285Y-73301949D01*
X184065865Y-73286980D01*
X184083736Y-73279220D01*
X184111457Y-73282857D01*
G37*
G36*
X190973934Y-74882790D02*
G01*
X190991222Y-74904666D01*
X190993875Y-74913621D01*
X190992698Y-74931902D01*
X190977044Y-74950926D01*
X190959052Y-74962828D01*
X190931611Y-74965287D01*
X190909001Y-74951456D01*
X190897549Y-74923516D01*
X190898211Y-74900284D01*
X190911318Y-74880533D01*
X190918487Y-74876205D01*
X190946598Y-74872370D01*
X190973934Y-74882790D01*
G37*
G36*
X183422626Y-73145565D02*
G01*
X183447720Y-73159358D01*
X183456294Y-73180800D01*
X183446127Y-73204592D01*
X183433593Y-73214054D01*
X183409877Y-73218085D01*
X183388830Y-73209940D01*
X183378719Y-73191253D01*
X183381445Y-73167473D01*
X183396662Y-73148295D01*
X183421273Y-73145240D01*
X183422626Y-73145565D01*
G37*
G36*
X182737658Y-73025431D02*
G01*
X182731313Y-73029396D01*
X182727347Y-73023051D01*
X182733694Y-73019085D01*
X182737658Y-73025431D01*
G37*
G36*
X190467768Y-73859667D02*
G01*
X190603901Y-73891096D01*
X190640850Y-74010582D01*
X190654702Y-74056272D01*
X190666772Y-74097915D01*
X190674996Y-74128429D01*
X190678105Y-74143290D01*
X190678101Y-74143473D01*
X190670890Y-74156335D01*
X190651852Y-74180817D01*
X190623821Y-74213475D01*
X190589629Y-74250865D01*
X190500849Y-74345220D01*
X190363473Y-74313504D01*
X190226098Y-74281789D01*
X190186388Y-74161288D01*
X190171317Y-74114039D01*
X190159161Y-74072945D01*
X190151386Y-74043098D01*
X190149223Y-74028889D01*
X190149279Y-74028673D01*
X190157766Y-74016238D01*
X190177961Y-73992163D01*
X190206919Y-73959829D01*
X190241702Y-73922614D01*
X190331635Y-73828238D01*
X190467768Y-73859667D01*
G37*
G36*
X189778091Y-73722309D02*
G01*
X189906992Y-73752068D01*
X189937896Y-73853449D01*
X189946264Y-73881042D01*
X189958870Y-73923161D01*
X189968448Y-73955867D01*
X189973401Y-73973752D01*
X189971663Y-73985115D01*
X189958442Y-74006822D01*
X189931799Y-74038852D01*
X189890418Y-74082941D01*
X189802832Y-74173208D01*
X189680512Y-74144968D01*
X189558194Y-74116729D01*
X189519042Y-73997202D01*
X189503719Y-73948243D01*
X189492450Y-73904899D01*
X189488793Y-73877092D01*
X189492323Y-73862686D01*
X189498222Y-73855914D01*
X189517375Y-73834723D01*
X189544895Y-73804738D01*
X189576972Y-73770123D01*
X189649191Y-73692550D01*
X189778091Y-73722309D01*
G37*
G36*
X189088773Y-73584747D02*
G01*
X189205938Y-73611797D01*
X189221045Y-73656017D01*
X189228468Y-73678557D01*
X189241758Y-73721123D01*
X189254566Y-73764227D01*
X189272979Y-73828217D01*
X189194589Y-73910590D01*
X189116200Y-73992964D01*
X189000697Y-73966298D01*
X188885194Y-73939632D01*
X188852754Y-73835184D01*
X188843158Y-73803460D01*
X188831911Y-73763573D01*
X188824672Y-73734319D01*
X188822688Y-73720454D01*
X188826250Y-73714576D01*
X188841940Y-73695346D01*
X188867069Y-73667206D01*
X188898336Y-73633935D01*
X188971609Y-73557698D01*
X189088773Y-73584747D01*
G37*
G36*
X191137623Y-74071024D02*
G01*
X191250903Y-74094148D01*
X191280493Y-74189454D01*
X191287533Y-74212660D01*
X191298613Y-74251881D01*
X191305766Y-74281039D01*
X191307695Y-74295098D01*
X191305963Y-74298635D01*
X191291774Y-74316960D01*
X191265029Y-74347097D01*
X191227622Y-74386961D01*
X191181442Y-74434462D01*
X191179611Y-74436283D01*
X191169296Y-74444151D01*
X191156029Y-74447584D01*
X191135413Y-74446417D01*
X191103051Y-74440478D01*
X191054544Y-74429603D01*
X190947279Y-74404839D01*
X190915710Y-74300149D01*
X190884140Y-74195459D01*
X190954242Y-74121680D01*
X191024343Y-74047901D01*
X191137623Y-74071024D01*
G37*
G36*
X188401688Y-73436984D02*
G01*
X188502336Y-73460220D01*
X188518159Y-73505495D01*
X188523922Y-73522528D01*
X188537547Y-73565369D01*
X188550207Y-73607934D01*
X188566434Y-73665098D01*
X188496549Y-73738895D01*
X188426664Y-73812692D01*
X188320543Y-73785155D01*
X188214422Y-73757617D01*
X188184238Y-73662469D01*
X188154054Y-73567322D01*
X188227547Y-73490534D01*
X188301039Y-73413747D01*
X188401688Y-73436984D01*
G37*
G36*
X187710989Y-73301560D02*
G01*
X187806150Y-73320414D01*
X187834190Y-73410201D01*
X187862231Y-73499988D01*
X187819068Y-73545597D01*
X187800429Y-73565538D01*
X187775694Y-73592742D01*
X187759203Y-73611790D01*
X187750241Y-73620857D01*
X187738586Y-73625407D01*
X187719944Y-73625081D01*
X187689802Y-73619781D01*
X187643644Y-73609416D01*
X187544786Y-73586461D01*
X187518221Y-73500003D01*
X187491655Y-73413546D01*
X187553742Y-73348127D01*
X187615829Y-73282708D01*
X187710989Y-73301560D01*
G37*
G36*
X187020942Y-73163974D02*
G01*
X187108564Y-73181088D01*
X187131546Y-73252743D01*
X187132198Y-73254785D01*
X187143093Y-73291574D01*
X187150172Y-73320564D01*
X187151932Y-73335638D01*
X187151711Y-73336337D01*
X187142285Y-73350390D01*
X187122410Y-73374335D01*
X187096013Y-73403412D01*
X187042687Y-73459947D01*
X186959801Y-73440602D01*
X186876915Y-73421258D01*
X186852494Y-73342982D01*
X186828074Y-73264705D01*
X186880697Y-73205783D01*
X186933320Y-73146862D01*
X187020942Y-73163974D01*
G37*
G36*
X186333402Y-73026956D02*
G01*
X186410967Y-73041737D01*
X186430861Y-73107330D01*
X186435199Y-73121639D01*
X186442658Y-73150172D01*
X186443167Y-73171116D01*
X186434776Y-73190159D01*
X186415527Y-73212990D01*
X186383466Y-73245299D01*
X186372911Y-73255656D01*
X186357091Y-73268129D01*
X186340638Y-73272627D01*
X186316889Y-73270215D01*
X186279183Y-73261954D01*
X186208112Y-73245546D01*
X186189250Y-73181616D01*
X186181005Y-73150766D01*
X186175031Y-73121167D01*
X186174209Y-73104828D01*
X186178239Y-73097462D01*
X186194080Y-73077114D01*
X186216934Y-73052072D01*
X186255836Y-73012175D01*
X186333402Y-73026956D01*
G37*
G36*
X185646594Y-72879179D02*
G01*
X185709956Y-72890604D01*
X185728539Y-72951390D01*
X185747124Y-73012176D01*
X185704860Y-73055028D01*
X185662595Y-73097881D01*
X185599031Y-73083194D01*
X185535468Y-73068508D01*
X185518674Y-73011155D01*
X185501881Y-72953801D01*
X185542556Y-72910777D01*
X185583233Y-72867755D01*
X185646594Y-72879179D01*
G37*
G36*
X184959591Y-72740068D02*
G01*
X184988050Y-72747260D01*
X185007159Y-72756557D01*
X185017811Y-72772690D01*
X185026564Y-72801693D01*
X185039687Y-72850884D01*
X185007933Y-72884284D01*
X184992026Y-72900110D01*
X184974973Y-72910606D01*
X184954262Y-72911585D01*
X184921499Y-72905061D01*
X184895145Y-72898451D01*
X184874296Y-72889316D01*
X184862441Y-72874496D01*
X184852922Y-72848497D01*
X184839024Y-72804558D01*
X184872382Y-72766097D01*
X184890627Y-72746064D01*
X184907304Y-72734724D01*
X184927446Y-72733575D01*
X184959591Y-72740068D01*
G37*
G36*
X184269236Y-72607841D02*
G01*
X184297382Y-72616348D01*
X184313865Y-72629537D01*
X184324101Y-72653213D01*
X184326333Y-72660509D01*
X184330437Y-72681595D01*
X184324665Y-72697077D01*
X184306208Y-72716968D01*
X184290570Y-72730750D01*
X184268210Y-72739910D01*
X184238738Y-72736572D01*
X184214881Y-72729059D01*
X184199251Y-72714737D01*
X184189010Y-72687035D01*
X184187133Y-72680070D01*
X184182504Y-72655639D01*
X184186700Y-72639559D01*
X184201616Y-72622060D01*
X184217577Y-72608642D01*
X184238301Y-72603195D01*
X184269236Y-72607841D01*
G37*
G36*
X183596239Y-72470727D02*
G01*
X183618142Y-72490914D01*
X183623142Y-72517968D01*
X183609300Y-72546433D01*
X183595121Y-72556694D01*
X183567619Y-72559945D01*
X183540658Y-72549250D01*
X183522277Y-72526454D01*
X183517839Y-72506168D01*
X183525631Y-72480482D01*
X183547801Y-72465422D01*
X183580438Y-72465112D01*
X183596239Y-72470727D01*
G37*
G36*
X182908671Y-72340219D02*
G01*
X182911275Y-72346997D01*
X182906962Y-72363591D01*
X182892617Y-72368879D01*
X182874348Y-72362224D01*
X182864639Y-72346025D01*
X182865176Y-72340936D01*
X182876348Y-72331182D01*
X182894147Y-72330508D01*
X182908671Y-72340219D01*
G37*
G36*
X191311112Y-73318437D02*
G01*
X191465828Y-73351392D01*
X191511577Y-73498319D01*
X191557325Y-73645246D01*
X191452630Y-73756302D01*
X191347936Y-73867359D01*
X191195379Y-73832138D01*
X191042822Y-73796918D01*
X191027554Y-73752661D01*
X191023330Y-73740194D01*
X191011124Y-73703103D01*
X190996085Y-73656489D01*
X190980543Y-73607539D01*
X190948801Y-73506675D01*
X191052599Y-73396079D01*
X191156398Y-73285484D01*
X191311112Y-73318437D01*
G37*
G36*
X180421170Y-67557171D02*
G01*
X180427840Y-67557566D01*
X180447579Y-67559302D01*
X180471248Y-67562253D01*
X180500132Y-67566689D01*
X180535513Y-67572882D01*
X180578678Y-67581103D01*
X180630912Y-67591622D01*
X180693497Y-67604711D01*
X180767720Y-67620642D01*
X180854864Y-67639684D01*
X180956215Y-67662111D01*
X181073057Y-67688191D01*
X181206674Y-67718198D01*
X181358352Y-67752401D01*
X181529374Y-67791072D01*
X181590910Y-67805013D01*
X181790912Y-67850515D01*
X181972273Y-67892092D01*
X182134736Y-67929682D01*
X182278042Y-67963224D01*
X182401936Y-67992658D01*
X182506158Y-68017923D01*
X182590452Y-68038956D01*
X182654560Y-68055698D01*
X182698225Y-68068087D01*
X182717324Y-68073990D01*
X182787771Y-68096786D01*
X182858390Y-68121046D01*
X182925095Y-68145253D01*
X182983797Y-68167894D01*
X183030409Y-68187456D01*
X183060845Y-68202422D01*
X183071585Y-68207274D01*
X183073406Y-68200820D01*
X183067382Y-68178630D01*
X183061944Y-68156266D01*
X183065435Y-68139789D01*
X183081915Y-68121547D01*
X183082049Y-68121418D01*
X183112583Y-68105069D01*
X183146814Y-68105048D01*
X183177588Y-68119746D01*
X183197749Y-68147558D01*
X183200775Y-68156042D01*
X183204291Y-68174118D01*
X183198152Y-68189730D01*
X183179885Y-68211772D01*
X183150504Y-68244735D01*
X183242450Y-68295907D01*
X183285728Y-68321139D01*
X183387450Y-68388172D01*
X183490278Y-68465668D01*
X183587183Y-68548483D01*
X183640545Y-68599689D01*
X183757767Y-68732342D01*
X183857927Y-68876492D01*
X183940276Y-69030613D01*
X184004063Y-69193179D01*
X184048538Y-69362662D01*
X184072952Y-69537537D01*
X184079888Y-69675474D01*
X184077789Y-69811448D01*
X184075187Y-69842181D01*
X184066098Y-69949524D01*
X184044364Y-70095039D01*
X184012133Y-70253332D01*
X184006593Y-70277918D01*
X183993090Y-70339136D01*
X183984138Y-70382698D01*
X183979423Y-70410790D01*
X183978629Y-70425605D01*
X183981441Y-70429330D01*
X183987545Y-70424159D01*
X183988253Y-70423341D01*
X184003587Y-70410666D01*
X184023331Y-70407740D01*
X184055216Y-70413325D01*
X184071652Y-70417376D01*
X184094608Y-70426502D01*
X184107455Y-70441844D01*
X184117499Y-70470059D01*
X184131147Y-70515481D01*
X184098492Y-70552391D01*
X184087390Y-70564616D01*
X184068571Y-70580294D01*
X184049001Y-70583921D01*
X184019221Y-70578630D01*
X183988932Y-70569669D01*
X183972088Y-70557172D01*
X183962033Y-70535884D01*
X183951458Y-70503811D01*
X183940367Y-70528167D01*
X183937968Y-70533686D01*
X183927313Y-70560164D01*
X183912726Y-70598039D01*
X183896633Y-70641049D01*
X183893965Y-70648210D01*
X183853142Y-70745201D01*
X183802001Y-70848862D01*
X183744664Y-70951320D01*
X183685251Y-71044702D01*
X183584494Y-71175496D01*
X183464499Y-71298514D01*
X183331256Y-71405665D01*
X183185388Y-71496736D01*
X183027522Y-71571514D01*
X182858280Y-71629785D01*
X182678289Y-71671336D01*
X182488174Y-71695954D01*
X182288558Y-71703427D01*
X182080068Y-71693539D01*
X181863329Y-71666080D01*
X181849698Y-71663570D01*
X181811990Y-71655871D01*
X181755782Y-71643884D01*
X181682381Y-71627902D01*
X181593093Y-71608218D01*
X181489223Y-71585124D01*
X181372077Y-71558915D01*
X181242960Y-71529884D01*
X181103177Y-71498323D01*
X180954036Y-71464527D01*
X180796841Y-71428786D01*
X180632898Y-71391396D01*
X180463511Y-71352649D01*
X180289988Y-71312837D01*
X178843368Y-70980452D01*
X178936148Y-70578578D01*
X179028928Y-70176703D01*
X180532669Y-70520426D01*
X182036410Y-70864149D01*
X182121342Y-70860121D01*
X182198785Y-70854267D01*
X182323781Y-70833461D01*
X182434882Y-70798581D01*
X182534009Y-70748771D01*
X182623089Y-70683176D01*
X182704045Y-70600938D01*
X182714295Y-70588634D01*
X182745109Y-70548720D01*
X182775437Y-70505845D01*
X182802072Y-70464863D01*
X182821807Y-70430631D01*
X182831440Y-70408002D01*
X182831021Y-70406476D01*
X182826834Y-70403390D01*
X182817475Y-70399308D01*
X182801977Y-70393994D01*
X182779374Y-70387212D01*
X182748701Y-70378727D01*
X182708994Y-70368302D01*
X182659284Y-70355702D01*
X182598609Y-70340690D01*
X182526001Y-70323030D01*
X182440495Y-70302487D01*
X182341127Y-70278825D01*
X182226930Y-70251807D01*
X182096938Y-70221197D01*
X181950188Y-70186761D01*
X181785711Y-70148261D01*
X181602544Y-70105462D01*
X181399720Y-70058128D01*
X181197065Y-70010869D01*
X181012207Y-69967761D01*
X180845757Y-69928907D01*
X180696608Y-69894006D01*
X180563659Y-69862762D01*
X180445806Y-69834873D01*
X180341946Y-69810041D01*
X180250975Y-69787968D01*
X180171790Y-69768355D01*
X180103288Y-69750902D01*
X180044364Y-69735311D01*
X179993918Y-69721284D01*
X179950843Y-69708520D01*
X179914039Y-69696722D01*
X179882400Y-69685591D01*
X179854824Y-69674827D01*
X179830206Y-69664132D01*
X179807445Y-69653207D01*
X179785436Y-69641752D01*
X179763077Y-69629471D01*
X179739263Y-69616063D01*
X179712892Y-69601229D01*
X179608388Y-69536010D01*
X179495845Y-69445864D01*
X179401661Y-69345355D01*
X179325928Y-69234737D01*
X179268738Y-69114266D01*
X179230186Y-68984197D01*
X179210364Y-68844785D01*
X179209750Y-68753476D01*
X180251023Y-68753476D01*
X180254632Y-68778801D01*
X180262447Y-68808782D01*
X180271977Y-68836521D01*
X180308763Y-68900063D01*
X180362543Y-68951409D01*
X180432573Y-68989769D01*
X180441811Y-68992982D01*
X180474825Y-69002500D01*
X180527955Y-69016477D01*
X180600845Y-69034830D01*
X180693138Y-69057472D01*
X180804477Y-69084316D01*
X180934506Y-69115279D01*
X181082867Y-69150274D01*
X181249204Y-69189216D01*
X181433161Y-69232017D01*
X181634380Y-69278594D01*
X181805081Y-69318011D01*
X181963795Y-69354633D01*
X182104097Y-69386958D01*
X182227111Y-69415224D01*
X182333967Y-69439668D01*
X182425791Y-69460533D01*
X182503711Y-69478056D01*
X182568854Y-69492478D01*
X182622347Y-69504036D01*
X182665316Y-69512971D01*
X182698891Y-69519521D01*
X182724198Y-69523927D01*
X182742364Y-69526427D01*
X182754516Y-69527261D01*
X182761782Y-69526669D01*
X182765290Y-69524888D01*
X182766165Y-69522159D01*
X182765535Y-69518721D01*
X182764215Y-69500415D01*
X182777541Y-69472615D01*
X182786156Y-69462965D01*
X182804872Y-69454437D01*
X182833495Y-69457758D01*
X182854695Y-69465641D01*
X182877009Y-69486466D01*
X182882621Y-69513086D01*
X182869464Y-69540737D01*
X182863011Y-69548787D01*
X182861655Y-69556171D01*
X182870925Y-69562346D01*
X182894161Y-69569264D01*
X182934706Y-69578880D01*
X183016734Y-69597818D01*
X183015087Y-69559095D01*
X183012502Y-69531440D01*
X183006613Y-69490164D01*
X182998850Y-69446447D01*
X182996939Y-69437038D01*
X182961441Y-69315294D01*
X182908183Y-69204994D01*
X182837129Y-69106096D01*
X182748241Y-69018554D01*
X182641483Y-68942327D01*
X182516818Y-68877370D01*
X182515034Y-68876585D01*
X182497669Y-68869573D01*
X182475688Y-68861832D01*
X182447756Y-68853024D01*
X182412540Y-68842811D01*
X182368707Y-68830857D01*
X182314924Y-68816822D01*
X182249855Y-68800370D01*
X182172169Y-68781163D01*
X182080530Y-68758863D01*
X181973607Y-68733133D01*
X181850065Y-68703633D01*
X181708570Y-68670028D01*
X181547789Y-68631979D01*
X181373545Y-68590924D01*
X181203102Y-68551068D01*
X181052668Y-68516241D01*
X180922321Y-68486460D01*
X180812133Y-68461740D01*
X180722180Y-68442100D01*
X180652535Y-68427556D01*
X180603273Y-68418124D01*
X180574469Y-68413821D01*
X180543928Y-68411594D01*
X180473699Y-68413337D01*
X180416128Y-68427347D01*
X180366987Y-68455027D01*
X180322046Y-68497784D01*
X180321285Y-68498666D01*
X180306923Y-68518959D01*
X180294708Y-68545679D01*
X180282826Y-68583653D01*
X180269464Y-68637709D01*
X180267955Y-68644261D01*
X180257434Y-68692326D01*
X180251874Y-68726691D01*
X180251023Y-68753476D01*
X179209750Y-68753476D01*
X179209366Y-68696285D01*
X179227285Y-68538953D01*
X179264215Y-68373044D01*
X179292831Y-68278126D01*
X179347275Y-68138006D01*
X179412324Y-68014465D01*
X179489029Y-67905881D01*
X179578437Y-67810629D01*
X179681598Y-67727089D01*
X179752420Y-67683181D01*
X179863249Y-67633000D01*
X179987971Y-67594750D01*
X180124154Y-67568988D01*
X180269366Y-67556276D01*
X180421170Y-67557171D01*
G37*
G36*
X190624696Y-73181456D02*
G01*
X190767950Y-73217527D01*
X190807431Y-73340690D01*
X190807710Y-73341556D01*
X190822715Y-73390233D01*
X190834575Y-73432195D01*
X190842101Y-73462990D01*
X190844104Y-73478162D01*
X190843989Y-73478601D01*
X190835116Y-73492413D01*
X190814725Y-73517820D01*
X190785719Y-73551351D01*
X190750999Y-73589537D01*
X190660703Y-73686604D01*
X190515246Y-73653207D01*
X190369789Y-73619812D01*
X190328150Y-73486508D01*
X190286511Y-73353203D01*
X190383977Y-73249295D01*
X190481441Y-73145386D01*
X190624696Y-73181456D01*
G37*
G36*
X185530199Y-67147773D02*
G01*
X185619607Y-67168319D01*
X185643510Y-67247154D01*
X185667413Y-67325989D01*
X185827533Y-67365940D01*
X185987653Y-67405892D01*
X186051401Y-67336161D01*
X186115147Y-67266431D01*
X186217376Y-67290032D01*
X186319605Y-67313634D01*
X186347774Y-67404316D01*
X186375943Y-67494998D01*
X186466620Y-67515932D01*
X186557298Y-67536867D01*
X186325177Y-68542295D01*
X186093055Y-69547723D01*
X186157594Y-69562623D01*
X186222131Y-69577522D01*
X186279947Y-69517553D01*
X186337762Y-69457585D01*
X186432562Y-69476357D01*
X186527361Y-69495129D01*
X186553717Y-69577644D01*
X186580074Y-69660160D01*
X186732600Y-69695373D01*
X186885126Y-69730587D01*
X186952535Y-69659255D01*
X187019946Y-69587924D01*
X187124659Y-69612126D01*
X187229373Y-69636326D01*
X187256742Y-69729487D01*
X187284112Y-69822648D01*
X187418255Y-69853227D01*
X187552397Y-69883806D01*
X187624884Y-69805917D01*
X187697371Y-69728027D01*
X187811230Y-69751516D01*
X187925091Y-69775005D01*
X187955947Y-69877251D01*
X187986804Y-69979498D01*
X188099557Y-70008576D01*
X188212311Y-70037654D01*
X188291619Y-69952285D01*
X188370925Y-69866916D01*
X188499026Y-69899366D01*
X188627126Y-69931817D01*
X188660966Y-70040101D01*
X188694805Y-70148384D01*
X188785593Y-70169344D01*
X188876382Y-70190304D01*
X188964668Y-70096639D01*
X189052954Y-70002973D01*
X189188627Y-70034358D01*
X189324300Y-70065745D01*
X189361149Y-70188420D01*
X189397997Y-70311095D01*
X189470817Y-70325009D01*
X189543638Y-70338921D01*
X189616696Y-70035368D01*
X189620158Y-70020959D01*
X189642559Y-69926289D01*
X189659791Y-69850413D01*
X189672143Y-69791881D01*
X189679907Y-69749246D01*
X189683374Y-69721058D01*
X189682834Y-69705870D01*
X189681023Y-69681519D01*
X189694006Y-69656344D01*
X189695598Y-69653954D01*
X189704938Y-69631884D01*
X189717545Y-69591395D01*
X189733578Y-69531891D01*
X189753202Y-69452779D01*
X189776579Y-69353461D01*
X189782794Y-69326516D01*
X189800683Y-69248297D01*
X189814237Y-69187295D01*
X189823883Y-69140902D01*
X189830049Y-69106512D01*
X189833159Y-69081522D01*
X189833643Y-69063326D01*
X189831926Y-69049318D01*
X189828435Y-69036892D01*
X189825305Y-69027551D01*
X189820389Y-69006371D01*
X189825483Y-68991855D01*
X189842932Y-68973787D01*
X189851533Y-68964587D01*
X189859278Y-68952924D01*
X189866870Y-68936276D01*
X189875106Y-68912030D01*
X189884781Y-68877576D01*
X189896693Y-68830301D01*
X189911637Y-68767593D01*
X189930409Y-68686842D01*
X189942436Y-68634750D01*
X189958130Y-68566045D01*
X189969702Y-68513391D01*
X189977559Y-68473970D01*
X189982111Y-68444966D01*
X189983768Y-68423564D01*
X189982937Y-68406947D01*
X189980030Y-68392299D01*
X189975453Y-68376804D01*
X189960145Y-68327872D01*
X190071047Y-68209744D01*
X190181947Y-68091614D01*
X190348038Y-68129791D01*
X190514128Y-68167968D01*
X190560389Y-68316281D01*
X190567658Y-68339259D01*
X190584321Y-68389478D01*
X190599068Y-68430698D01*
X190610518Y-68459157D01*
X190617287Y-68471097D01*
X190622986Y-68469179D01*
X190641620Y-68454842D01*
X190670099Y-68428963D01*
X190705781Y-68393979D01*
X190746028Y-68352324D01*
X190864131Y-68227048D01*
X191037310Y-68267030D01*
X191210489Y-68307012D01*
X191259466Y-68464840D01*
X191269577Y-68497083D01*
X191285710Y-68547043D01*
X191299263Y-68587173D01*
X191309050Y-68613996D01*
X191313882Y-68624036D01*
X191317351Y-68621787D01*
X191333198Y-68607096D01*
X191359312Y-68580963D01*
X191393112Y-68545991D01*
X191432017Y-68504788D01*
X191544712Y-68384173D01*
X191721626Y-68425129D01*
X191898540Y-68466084D01*
X191948366Y-68626640D01*
X191958776Y-68660592D01*
X191974081Y-68712222D01*
X191986030Y-68754737D01*
X191993600Y-68784453D01*
X191995772Y-68797684D01*
X191992708Y-68802595D01*
X191977394Y-68821345D01*
X191951518Y-68850816D01*
X191917616Y-68888147D01*
X191878221Y-68930471D01*
X191763093Y-69052772D01*
X191587220Y-69012637D01*
X191411346Y-68972501D01*
X191361446Y-68814386D01*
X191351023Y-68781692D01*
X191334677Y-68731816D01*
X191320989Y-68691798D01*
X191311156Y-68665090D01*
X191306373Y-68655151D01*
X191302927Y-68657464D01*
X191287087Y-68672220D01*
X191260931Y-68698365D01*
X191227039Y-68733297D01*
X191187995Y-68774415D01*
X191164884Y-68798746D01*
X191127960Y-68836531D01*
X191097326Y-68866510D01*
X191075662Y-68886094D01*
X191065649Y-68892690D01*
X191064676Y-68892663D01*
X191056851Y-68902597D01*
X191049043Y-68924931D01*
X191043005Y-68952032D01*
X191040497Y-68976266D01*
X191043270Y-68990000D01*
X191044314Y-68991628D01*
X191051331Y-69008759D01*
X191062622Y-69040479D01*
X191076802Y-69082462D01*
X191092484Y-69130378D01*
X191108283Y-69179898D01*
X191122811Y-69226694D01*
X191134685Y-69266435D01*
X191142516Y-69294796D01*
X191144918Y-69307444D01*
X191144069Y-69309051D01*
X191132600Y-69323140D01*
X191110284Y-69348008D01*
X191080263Y-69380375D01*
X191045683Y-69416958D01*
X191009687Y-69454474D01*
X190975416Y-69489639D01*
X190946016Y-69519171D01*
X190924630Y-69539786D01*
X190914400Y-69548200D01*
X190909855Y-69552919D01*
X190900595Y-69573546D01*
X190891757Y-69604202D01*
X190891538Y-69605156D01*
X190887608Y-69627031D01*
X190886861Y-69649001D01*
X190890013Y-69675058D01*
X190897781Y-69709195D01*
X190910879Y-69755404D01*
X190930023Y-69817678D01*
X190980393Y-69978723D01*
X190865042Y-70099141D01*
X190838135Y-70127301D01*
X190801817Y-70166046D01*
X190776404Y-70195100D01*
X190759449Y-70217930D01*
X190748505Y-70238007D01*
X190741125Y-70258802D01*
X190734863Y-70283783D01*
X190732948Y-70292222D01*
X190728329Y-70316775D01*
X190726938Y-70339250D01*
X190729448Y-70364087D01*
X190736525Y-70395726D01*
X190748841Y-70438604D01*
X190767065Y-70497162D01*
X190814095Y-70646315D01*
X190706589Y-70759115D01*
X190599082Y-70871914D01*
X190580042Y-70954388D01*
X190561001Y-71036861D01*
X190602823Y-71167991D01*
X190605368Y-71176006D01*
X190620485Y-71225234D01*
X190632439Y-71266915D01*
X190640077Y-71296861D01*
X190642243Y-71310890D01*
X190641770Y-71312110D01*
X190631396Y-71326503D01*
X190609742Y-71352306D01*
X190579600Y-71386278D01*
X190543763Y-71425176D01*
X190447684Y-71527693D01*
X190424300Y-71628977D01*
X190400917Y-71730261D01*
X190438302Y-71850612D01*
X190452378Y-71897362D01*
X190463850Y-71938359D01*
X190471173Y-71967980D01*
X190473177Y-71981838D01*
X190465648Y-71992972D01*
X190446336Y-72016134D01*
X190418231Y-72047786D01*
X190384306Y-72084496D01*
X190297946Y-72176277D01*
X190269639Y-72299399D01*
X190241331Y-72422521D01*
X190275647Y-72532137D01*
X190286910Y-72568903D01*
X190298399Y-72608506D01*
X190305881Y-72636950D01*
X190308117Y-72649743D01*
X190303030Y-72657126D01*
X190285887Y-72677354D01*
X190259641Y-72706548D01*
X190227378Y-72741212D01*
X190148483Y-72824692D01*
X190114590Y-72970992D01*
X190080696Y-73117293D01*
X190112453Y-73214888D01*
X190120741Y-73240787D01*
X190132465Y-73279235D01*
X190140201Y-73307085D01*
X190142587Y-73319600D01*
X190139644Y-73324074D01*
X190124784Y-73341512D01*
X190100349Y-73368213D01*
X190069638Y-73400514D01*
X190052171Y-73419118D01*
X190023356Y-73452407D01*
X190002391Y-73480103D01*
X189992917Y-73497598D01*
X189987519Y-73520885D01*
X189433861Y-73390253D01*
X188880202Y-73259621D01*
X189109100Y-72256164D01*
X189337997Y-71252707D01*
X187610774Y-70853947D01*
X185883551Y-70455186D01*
X185651430Y-71460614D01*
X185419308Y-72466042D01*
X184867611Y-72338673D01*
X184315915Y-72211304D01*
X184332627Y-72138914D01*
X184336287Y-72122378D01*
X184342507Y-72082699D01*
X184341555Y-72051756D01*
X184333493Y-72021179D01*
X184317646Y-71975834D01*
X184351575Y-71941391D01*
X184355544Y-71937329D01*
X184365572Y-71926148D01*
X184374083Y-71913698D01*
X184381974Y-71897212D01*
X184390140Y-71873927D01*
X184399474Y-71841074D01*
X184410872Y-71795891D01*
X184425229Y-71735613D01*
X184443438Y-71657471D01*
X184501373Y-71407995D01*
X184480539Y-71353762D01*
X184459706Y-71299531D01*
X184502204Y-71259920D01*
X184544704Y-71220310D01*
X184600532Y-70978493D01*
X184609053Y-70941123D01*
X184623720Y-70874164D01*
X184635344Y-70817443D01*
X184643431Y-70773541D01*
X184647490Y-70745039D01*
X184647027Y-70734521D01*
X184642359Y-70729906D01*
X184632171Y-70709833D01*
X184621214Y-70679684D01*
X184604733Y-70627001D01*
X184644452Y-70584577D01*
X184660898Y-70567665D01*
X184681418Y-70548635D01*
X184693080Y-70540591D01*
X184694939Y-70537917D01*
X184701758Y-70518523D01*
X184711999Y-70482872D01*
X184724873Y-70433912D01*
X184739589Y-70374592D01*
X184755358Y-70307865D01*
X184755946Y-70305321D01*
X184773685Y-70227210D01*
X184786531Y-70167557D01*
X184794825Y-70124369D01*
X184798912Y-70095656D01*
X184799138Y-70079427D01*
X184795845Y-70073690D01*
X184788310Y-70065839D01*
X184777045Y-70042335D01*
X184766094Y-70009188D01*
X184749225Y-69947698D01*
X184794547Y-69901746D01*
X184816172Y-69881108D01*
X184837447Y-69863790D01*
X184849295Y-69857972D01*
X184850142Y-69857577D01*
X184856291Y-69843895D01*
X184866024Y-69812693D01*
X184878632Y-69766537D01*
X184893404Y-69707998D01*
X184909630Y-69639642D01*
X184914601Y-69618076D01*
X184930116Y-69549930D01*
X184941187Y-69499007D01*
X184948207Y-69462660D01*
X184951569Y-69438239D01*
X184951665Y-69423098D01*
X184948886Y-69414587D01*
X184943625Y-69410060D01*
X184934223Y-69399235D01*
X184921308Y-69372686D01*
X184909672Y-69337731D01*
X184892632Y-69274477D01*
X184941183Y-69223999D01*
X184966702Y-69199616D01*
X184989291Y-69182107D01*
X185002792Y-69176536D01*
X185007300Y-69174451D01*
X185013968Y-69162311D01*
X185022426Y-69137670D01*
X185033285Y-69098470D01*
X185047157Y-69042651D01*
X185064655Y-68968154D01*
X185068002Y-68953643D01*
X185083482Y-68885789D01*
X185094479Y-68835386D01*
X185101371Y-68799783D01*
X185104537Y-68776331D01*
X185104356Y-68762380D01*
X185101203Y-68755282D01*
X185095461Y-68752386D01*
X185087901Y-68745882D01*
X185074763Y-68723787D01*
X185060800Y-68692401D01*
X185048544Y-68658238D01*
X185040523Y-68627816D01*
X185039267Y-68607651D01*
X185047028Y-68592528D01*
X185066054Y-68568479D01*
X185091211Y-68541957D01*
X185117644Y-68517698D01*
X185140494Y-68500437D01*
X185154904Y-68494909D01*
X185161428Y-68494863D01*
X185167462Y-68489802D01*
X185173809Y-68477108D01*
X185181325Y-68454172D01*
X185190860Y-68418392D01*
X185203268Y-68367159D01*
X185219403Y-68297868D01*
X185223241Y-68281228D01*
X185238088Y-68216165D01*
X185248489Y-68168363D01*
X185254804Y-68135078D01*
X185257393Y-68113571D01*
X185256617Y-68101100D01*
X185252835Y-68094923D01*
X185246408Y-68092299D01*
X185237397Y-68086665D01*
X185220870Y-68060648D01*
X185203118Y-68014419D01*
X185201898Y-68010647D01*
X185190804Y-67973847D01*
X185183539Y-67945228D01*
X185181626Y-67930710D01*
X185181818Y-67930110D01*
X185191137Y-67916697D01*
X185211065Y-67893407D01*
X185237638Y-67864894D01*
X185260090Y-67842945D01*
X185290523Y-67819487D01*
X185310688Y-67813873D01*
X185310803Y-67813899D01*
X185317872Y-67814311D01*
X185324076Y-67810193D01*
X185330330Y-67798857D01*
X185337549Y-67777614D01*
X185346648Y-67743780D01*
X185358543Y-67694665D01*
X185374150Y-67627582D01*
X185418194Y-67436809D01*
X185395013Y-67431362D01*
X185387791Y-67428547D01*
X185374691Y-67415207D01*
X185361823Y-67388516D01*
X185347123Y-67344749D01*
X185343937Y-67334127D01*
X185333533Y-67296806D01*
X185326964Y-67268860D01*
X185325536Y-67255682D01*
X185326169Y-67254525D01*
X185336946Y-67240871D01*
X185357722Y-67217083D01*
X185384723Y-67187503D01*
X185440789Y-67127226D01*
X185530199Y-67147773D01*
G37*
G36*
X173563959Y-65984338D02*
G01*
X174066056Y-66103076D01*
X173661597Y-67867053D01*
X173653639Y-67901760D01*
X173610403Y-68090151D01*
X173568419Y-68272829D01*
X173527936Y-68448728D01*
X173489201Y-68616782D01*
X173452462Y-68775924D01*
X173417965Y-68925090D01*
X173385960Y-69063214D01*
X173356691Y-69189230D01*
X173330409Y-69302072D01*
X173307358Y-69400674D01*
X173287788Y-69483970D01*
X173271947Y-69550896D01*
X173260079Y-69600385D01*
X173252436Y-69631371D01*
X173249263Y-69642789D01*
X173249199Y-69642877D01*
X173242801Y-69644632D01*
X173227201Y-69643741D01*
X173200977Y-69639913D01*
X173162707Y-69632856D01*
X173110972Y-69622283D01*
X173044347Y-69607902D01*
X172961412Y-69589421D01*
X172860746Y-69566553D01*
X172740926Y-69539007D01*
X172240466Y-69423466D01*
X172651165Y-67644534D01*
X173061864Y-65865601D01*
X173563959Y-65984338D01*
G37*
G36*
X188558750Y-72756514D02*
G01*
X188669237Y-72781879D01*
X188700887Y-72881844D01*
X188709406Y-72909455D01*
X188720770Y-72949096D01*
X188728082Y-72978439D01*
X188730049Y-72992583D01*
X188727622Y-72996969D01*
X188713799Y-73014742D01*
X188691309Y-73040998D01*
X188664165Y-73071303D01*
X188636371Y-73101221D01*
X188611938Y-73126316D01*
X188594873Y-73142154D01*
X188591083Y-73144043D01*
X188569172Y-73145087D01*
X188529830Y-73139561D01*
X188471763Y-73127310D01*
X188361725Y-73101906D01*
X188329274Y-72997422D01*
X188296823Y-72892939D01*
X188372542Y-72812045D01*
X188448262Y-72731151D01*
X188558750Y-72756514D01*
G37*
G36*
X187870832Y-72619275D02*
G01*
X187971580Y-72642535D01*
X188000721Y-72736916D01*
X188029862Y-72831298D01*
X187963041Y-72902005D01*
X187896220Y-72972712D01*
X187794852Y-72949309D01*
X187693483Y-72925906D01*
X187664246Y-72837308D01*
X187658428Y-72819454D01*
X187646733Y-72781945D01*
X187638942Y-72754555D01*
X187636502Y-72742248D01*
X187638461Y-72739098D01*
X187651765Y-72723068D01*
X187674747Y-72697399D01*
X187704038Y-72665901D01*
X187770082Y-72596015D01*
X187870832Y-72619275D01*
G37*
G36*
X187181312Y-72482019D02*
G01*
X187274797Y-72503393D01*
X187300117Y-72586415D01*
X187325437Y-72669437D01*
X187274171Y-72724343D01*
X187273653Y-72724896D01*
X187246241Y-72753779D01*
X187223339Y-72777085D01*
X187209860Y-72789814D01*
X187196714Y-72793276D01*
X187162950Y-72790774D01*
X187110884Y-72780541D01*
X187024954Y-72760703D01*
X186999454Y-72680866D01*
X186996638Y-72671912D01*
X186985621Y-72633649D01*
X186978587Y-72603748D01*
X186976951Y-72588047D01*
X186977232Y-72587155D01*
X186987027Y-72572104D01*
X187007230Y-72547379D01*
X187033889Y-72517853D01*
X187087828Y-72460644D01*
X187181312Y-72482019D01*
G37*
G36*
X186492814Y-72336024D02*
G01*
X186570528Y-72350837D01*
X186594375Y-72427276D01*
X186618221Y-72503713D01*
X186565202Y-72562155D01*
X186512182Y-72620596D01*
X186432839Y-72601955D01*
X186353496Y-72583314D01*
X186331378Y-72508989D01*
X186309260Y-72434663D01*
X186362180Y-72377936D01*
X186415100Y-72321209D01*
X186492814Y-72336024D01*
G37*
G36*
X185805367Y-72196947D02*
G01*
X185874169Y-72213046D01*
X185894473Y-72278201D01*
X185914776Y-72343357D01*
X185868245Y-72391806D01*
X185821713Y-72440256D01*
X185751403Y-72420912D01*
X185681092Y-72401570D01*
X185663116Y-72340616D01*
X185645139Y-72279663D01*
X185690851Y-72230256D01*
X185736564Y-72180849D01*
X185805367Y-72196947D01*
G37*
G36*
X191956521Y-73654856D02*
G01*
X191984521Y-73661912D01*
X192004434Y-73671084D01*
X192015629Y-73686341D01*
X192024663Y-73713309D01*
X192038051Y-73759121D01*
X192006559Y-73793224D01*
X191990961Y-73809246D01*
X191974033Y-73820157D01*
X191953550Y-73821340D01*
X191921061Y-73814942D01*
X191896843Y-73808929D01*
X191874937Y-73799686D01*
X191861991Y-73784641D01*
X191851009Y-73758122D01*
X191834962Y-73713685D01*
X191868364Y-73677950D01*
X191886116Y-73659944D01*
X191903236Y-73649250D01*
X191923875Y-73648295D01*
X191956521Y-73654856D01*
G37*
G36*
X183740049Y-71774294D02*
G01*
X183748740Y-71776798D01*
X183777148Y-71795804D01*
X183790308Y-71824108D01*
X183786939Y-71856147D01*
X183765768Y-71886364D01*
X183744441Y-71898673D01*
X183713250Y-71899744D01*
X183685255Y-71884876D01*
X183667052Y-71856090D01*
X183666621Y-71854725D01*
X183660903Y-71831004D01*
X183665048Y-71814570D01*
X183681676Y-71794365D01*
X183689770Y-71786170D01*
X183712438Y-71772856D01*
X183740049Y-71774294D01*
G37*
G36*
X183058280Y-71638981D02*
G01*
X183079598Y-71656123D01*
X183085808Y-71681460D01*
X183074519Y-71707470D01*
X183070764Y-71711156D01*
X183046545Y-71720186D01*
X183020190Y-71714501D01*
X183000962Y-71695597D01*
X182997499Y-71679031D01*
X183006246Y-71655917D01*
X183026330Y-71639807D01*
X183052128Y-71637130D01*
X183058280Y-71638981D01*
G37*
G36*
X191470174Y-72635620D02*
G01*
X191627438Y-72671927D01*
X191674927Y-72820572D01*
X191682567Y-72844634D01*
X191698112Y-72894598D01*
X191710421Y-72935571D01*
X191718391Y-72963840D01*
X191720922Y-72975690D01*
X191717987Y-72979804D01*
X191703284Y-72996852D01*
X191679013Y-73023772D01*
X191648306Y-73057190D01*
X191614291Y-73093731D01*
X191580099Y-73130021D01*
X191548858Y-73162686D01*
X191523700Y-73188348D01*
X191519269Y-73192557D01*
X191510394Y-73198355D01*
X191498140Y-73200883D01*
X191479064Y-73199817D01*
X191449722Y-73194840D01*
X191406671Y-73185630D01*
X191346464Y-73171869D01*
X191189111Y-73135541D01*
X191140574Y-72983133D01*
X191092035Y-72830725D01*
X191202473Y-72715019D01*
X191312909Y-72599313D01*
X191470174Y-72635620D01*
G37*
G36*
X192149486Y-72814175D02*
G01*
X192291530Y-72846969D01*
X192335838Y-72988384D01*
X192380146Y-73129800D01*
X192279011Y-73235946D01*
X192177877Y-73342092D01*
X192035281Y-73309171D01*
X191892686Y-73276251D01*
X191848718Y-73135919D01*
X191804749Y-72995589D01*
X191906096Y-72888485D01*
X192007444Y-72781382D01*
X192149486Y-72814175D01*
G37*
G36*
X190782630Y-72498612D02*
G01*
X190931632Y-72533011D01*
X190976036Y-72673603D01*
X191020438Y-72814195D01*
X190918898Y-72921093D01*
X190817357Y-73027991D01*
X190665674Y-72992853D01*
X190513990Y-72957714D01*
X190471671Y-72817546D01*
X190429352Y-72677378D01*
X190498221Y-72603846D01*
X190511699Y-72589498D01*
X190546518Y-72552780D01*
X190577900Y-72520129D01*
X190600359Y-72497262D01*
X190633628Y-72464212D01*
X190782630Y-72498612D01*
G37*
G36*
X188717092Y-72076054D02*
G01*
X188833213Y-72102862D01*
X188865653Y-72207309D01*
X188875180Y-72238918D01*
X188886381Y-72279207D01*
X188893520Y-72309042D01*
X188895362Y-72323583D01*
X188891144Y-72330722D01*
X188874799Y-72351329D01*
X188849237Y-72380713D01*
X188817689Y-72415066D01*
X188742745Y-72494721D01*
X188626625Y-72467912D01*
X188510504Y-72441104D01*
X188475466Y-72329829D01*
X188440427Y-72218553D01*
X188520700Y-72133898D01*
X188600972Y-72049245D01*
X188717092Y-72076054D01*
G37*
G36*
X188028275Y-71939188D02*
G01*
X188136515Y-71964348D01*
X188166171Y-72063646D01*
X188195828Y-72162945D01*
X188125773Y-72238630D01*
X188055719Y-72314314D01*
X187947295Y-72289318D01*
X187838870Y-72264322D01*
X187809112Y-72168579D01*
X187802007Y-72144849D01*
X187791552Y-72105589D01*
X187785480Y-72076374D01*
X187784936Y-72062225D01*
X187787345Y-72058733D01*
X187801827Y-72041428D01*
X187825698Y-72014740D01*
X187855276Y-71982821D01*
X187920036Y-71914028D01*
X188028275Y-71939188D01*
G37*
G36*
X187340190Y-71803952D02*
G01*
X187438338Y-71829708D01*
X187466323Y-71914752D01*
X187494309Y-71999796D01*
X187425695Y-72071013D01*
X187357081Y-72142230D01*
X187264024Y-72120746D01*
X187170966Y-72099262D01*
X187141728Y-72005194D01*
X187112492Y-71911125D01*
X187177267Y-71844661D01*
X187242042Y-71778197D01*
X187340190Y-71803952D01*
G37*
G36*
X186650926Y-71653350D02*
G01*
X186731960Y-71672058D01*
X186747134Y-71716293D01*
X186749492Y-71723205D01*
X186762628Y-71762745D01*
X186774070Y-71798543D01*
X186775223Y-71802241D01*
X186779850Y-71818629D01*
X186780343Y-71831978D01*
X186774569Y-71845923D01*
X186760397Y-71864100D01*
X186735694Y-71890144D01*
X186698329Y-71927690D01*
X186665299Y-71960797D01*
X186584107Y-71942052D01*
X186502915Y-71923307D01*
X186477083Y-71842434D01*
X186451252Y-71761561D01*
X186510572Y-71698102D01*
X186569893Y-71634642D01*
X186650926Y-71653350D01*
G37*
G36*
X185960841Y-71515755D02*
G01*
X186035055Y-71532888D01*
X186058257Y-71603140D01*
X186081460Y-71673391D01*
X186041947Y-71716137D01*
X186026125Y-71733019D01*
X186003768Y-71756047D01*
X185989659Y-71769512D01*
X185979322Y-71772884D01*
X185949007Y-71771683D01*
X185903187Y-71763125D01*
X185829489Y-71746111D01*
X185809759Y-71676386D01*
X185790029Y-71606660D01*
X185838328Y-71552641D01*
X185886627Y-71498621D01*
X185960841Y-71515755D01*
G37*
G36*
X183900177Y-71094322D02*
G01*
X183924578Y-71101993D01*
X183940998Y-71116528D01*
X183952528Y-71144423D01*
X183965490Y-71185432D01*
X183935430Y-71217064D01*
X183931654Y-71221002D01*
X183911296Y-71238547D01*
X183892213Y-71242606D01*
X183864099Y-71235896D01*
X183842279Y-71227709D01*
X183822984Y-71212116D01*
X183811094Y-71185182D01*
X183807045Y-71171708D01*
X183804091Y-71152196D01*
X183810890Y-71136898D01*
X183830073Y-71116248D01*
X183850581Y-71098178D01*
X183871760Y-71090643D01*
X183900177Y-71094322D01*
G37*
G36*
X192777482Y-73209295D02*
G01*
X192783017Y-73221119D01*
X192782149Y-73223515D01*
X192770325Y-73229050D01*
X192767929Y-73228182D01*
X192762393Y-73216357D01*
X192763262Y-73213961D01*
X192775086Y-73208426D01*
X192777482Y-73209295D01*
G37*
G36*
X192316077Y-72092316D02*
G01*
X192489103Y-72132262D01*
X192542717Y-72301993D01*
X192596330Y-72471723D01*
X192478572Y-72596384D01*
X192360813Y-72721045D01*
X192181233Y-72677228D01*
X192001652Y-72633412D01*
X191952757Y-72480922D01*
X191944360Y-72454379D01*
X191928720Y-72402797D01*
X191916519Y-72359597D01*
X191908835Y-72328685D01*
X191906742Y-72313960D01*
X191910085Y-72307968D01*
X191925845Y-72287724D01*
X191952173Y-72257008D01*
X191986520Y-72218762D01*
X192026336Y-72175929D01*
X192143051Y-72052370D01*
X192316077Y-72092316D01*
G37*
G36*
X191625336Y-71957027D02*
G01*
X191790860Y-71992269D01*
X191839548Y-72145146D01*
X191848178Y-72172518D01*
X191863722Y-72223402D01*
X191875911Y-72265451D01*
X191883671Y-72294904D01*
X191885932Y-72307998D01*
X191883753Y-72311629D01*
X191869642Y-72328871D01*
X191844713Y-72356961D01*
X191811579Y-72392987D01*
X191772853Y-72434035D01*
X191662076Y-72550097D01*
X191497854Y-72509212D01*
X191333633Y-72468326D01*
X191284154Y-72312984D01*
X191234676Y-72157644D01*
X191347244Y-72039715D01*
X191459812Y-71921785D01*
X191625336Y-71957027D01*
G37*
G36*
X190936180Y-71819640D02*
G01*
X191095377Y-71853414D01*
X191141041Y-72000195D01*
X191186705Y-72146975D01*
X191081237Y-72257963D01*
X190975769Y-72368950D01*
X190819743Y-72333161D01*
X190663716Y-72297371D01*
X190619137Y-72155276D01*
X190613562Y-72137394D01*
X190598440Y-72087604D01*
X190586486Y-72046332D01*
X190578800Y-72017456D01*
X190576481Y-72004854D01*
X190577218Y-72003419D01*
X190588331Y-71989419D01*
X190610598Y-71964008D01*
X190641294Y-71930247D01*
X190677693Y-71891196D01*
X190776983Y-71785866D01*
X190936180Y-71819640D01*
G37*
G36*
X188872734Y-71395113D02*
G01*
X188993656Y-71423030D01*
X189028721Y-71532068D01*
X189039886Y-71568097D01*
X189051475Y-71609186D01*
X189058769Y-71639828D01*
X189060527Y-71655221D01*
X189055216Y-71664067D01*
X189038263Y-71685645D01*
X189013370Y-71714914D01*
X188984300Y-71747655D01*
X188954811Y-71779649D01*
X188928666Y-71806677D01*
X188909624Y-71824521D01*
X188902080Y-71827254D01*
X188877695Y-71826762D01*
X188836562Y-71820177D01*
X188776987Y-71807281D01*
X188657126Y-71779414D01*
X188620610Y-71662776D01*
X188584094Y-71546139D01*
X188667953Y-71456667D01*
X188751811Y-71367196D01*
X188872734Y-71395113D01*
G37*
G36*
X188185793Y-71258243D02*
G01*
X188298135Y-71284179D01*
X188329785Y-71384144D01*
X188338375Y-71411887D01*
X188349782Y-71451126D01*
X188357194Y-71479873D01*
X188359308Y-71493318D01*
X188355787Y-71498937D01*
X188340176Y-71517777D01*
X188315124Y-71545624D01*
X188283909Y-71578764D01*
X188210635Y-71655000D01*
X188099190Y-71629271D01*
X187987744Y-71603542D01*
X187955463Y-71504972D01*
X187947077Y-71478603D01*
X187935414Y-71438699D01*
X187927976Y-71408753D01*
X187926092Y-71393797D01*
X187929408Y-71387854D01*
X187944938Y-71368204D01*
X187970010Y-71339857D01*
X188001227Y-71306750D01*
X188073451Y-71232307D01*
X188185793Y-71258243D01*
G37*
G36*
X187497143Y-71112857D02*
G01*
X187600476Y-71134021D01*
X187629802Y-71232704D01*
X187659129Y-71331387D01*
X187592201Y-71403217D01*
X187525273Y-71475049D01*
X187420367Y-71450830D01*
X187315461Y-71426610D01*
X187285071Y-71332708D01*
X187254682Y-71238806D01*
X187324246Y-71165249D01*
X187393812Y-71091692D01*
X187497143Y-71112857D01*
G37*
G36*
X186808442Y-70972841D02*
G01*
X186898738Y-70993688D01*
X186924239Y-71073524D01*
X186927051Y-71082468D01*
X186938067Y-71120750D01*
X186945095Y-71150684D01*
X186946722Y-71166424D01*
X186945894Y-71168521D01*
X186934433Y-71184926D01*
X186912802Y-71210646D01*
X186884796Y-71241105D01*
X186825887Y-71302721D01*
X186736861Y-71282034D01*
X186647833Y-71261348D01*
X186620993Y-71174002D01*
X186594151Y-71086658D01*
X186656149Y-71019326D01*
X186718145Y-70951995D01*
X186808442Y-70972841D01*
G37*
G36*
X186120554Y-70835754D02*
G01*
X186199703Y-70854027D01*
X186223438Y-70930108D01*
X186247173Y-71006188D01*
X186192489Y-71064165D01*
X186137804Y-71122141D01*
X186058655Y-71103868D01*
X185979506Y-71085595D01*
X185956663Y-71014372D01*
X185956012Y-71012334D01*
X185945106Y-70976112D01*
X185937876Y-70948137D01*
X185935861Y-70934316D01*
X185935939Y-70934042D01*
X185944488Y-70921834D01*
X185963715Y-70899435D01*
X185989652Y-70871481D01*
X186041405Y-70817481D01*
X186120554Y-70835754D01*
G37*
G36*
X192963548Y-72415583D02*
G01*
X193039890Y-72433208D01*
X193061742Y-72508349D01*
X193067894Y-72529512D01*
X193075340Y-72559927D01*
X193075567Y-72582123D01*
X193066714Y-72601972D01*
X193046923Y-72625346D01*
X193014334Y-72658120D01*
X192981122Y-72691183D01*
X192901380Y-72672560D01*
X192821638Y-72653935D01*
X192801360Y-72588862D01*
X192791956Y-72556796D01*
X192785023Y-72528922D01*
X192783146Y-72514852D01*
X192783204Y-72514639D01*
X192791565Y-72502459D01*
X192810552Y-72479993D01*
X192836208Y-72451937D01*
X192887205Y-72397958D01*
X192963548Y-72415583D01*
G37*
G36*
X192470625Y-71421984D02*
G01*
X192644006Y-71462012D01*
X192694919Y-71623115D01*
X192705810Y-71657762D01*
X192721742Y-71709195D01*
X192734517Y-71751384D01*
X192743043Y-71780691D01*
X192746221Y-71793476D01*
X192743502Y-71798514D01*
X192728824Y-71817290D01*
X192703566Y-71846833D01*
X192670160Y-71884324D01*
X192631040Y-71926944D01*
X192515470Y-72051154D01*
X192335935Y-72007140D01*
X192156400Y-71963126D01*
X192107505Y-71810636D01*
X192099114Y-71784113D01*
X192083476Y-71732504D01*
X192071281Y-71689266D01*
X192063606Y-71658303D01*
X192061524Y-71643523D01*
X192064833Y-71637554D01*
X192080540Y-71617294D01*
X192106811Y-71586551D01*
X192141095Y-71548280D01*
X192180842Y-71505430D01*
X192297245Y-71381956D01*
X192470625Y-71421984D01*
G37*
G36*
X191785534Y-71274832D02*
G01*
X191957749Y-71314742D01*
X192005919Y-71470712D01*
X192014956Y-71500342D01*
X192030091Y-71551864D01*
X192041892Y-71594575D01*
X192049330Y-71624687D01*
X192051379Y-71638415D01*
X192050626Y-71640001D01*
X192039408Y-71654605D01*
X192017097Y-71680512D01*
X191986536Y-71714611D01*
X191950571Y-71753795D01*
X191912047Y-71794954D01*
X191873807Y-71834982D01*
X191838700Y-71870771D01*
X191832322Y-71876623D01*
X191823252Y-71881545D01*
X191810089Y-71883285D01*
X191789533Y-71881510D01*
X191758279Y-71875885D01*
X191713026Y-71866078D01*
X191650472Y-71851755D01*
X191482081Y-71812879D01*
X191431224Y-71649850D01*
X191419805Y-71613031D01*
X191404295Y-71562231D01*
X191392047Y-71521132D01*
X191384096Y-71493225D01*
X191381477Y-71482010D01*
X191384318Y-71478256D01*
X191399286Y-71461398D01*
X191424884Y-71433609D01*
X191458607Y-71397593D01*
X191497953Y-71356059D01*
X191613319Y-71234921D01*
X191785534Y-71274832D01*
G37*
G36*
X191096015Y-71139916D02*
G01*
X191259866Y-71180475D01*
X191283845Y-71256611D01*
X191297004Y-71298774D01*
X191314411Y-71355314D01*
X191329607Y-71405416D01*
X191351391Y-71478084D01*
X191241073Y-71594334D01*
X191130754Y-71710584D01*
X190970510Y-71670604D01*
X190810265Y-71630624D01*
X190764485Y-71486198D01*
X190758252Y-71466376D01*
X190742947Y-71416164D01*
X190730906Y-71374408D01*
X190723225Y-71344997D01*
X190720999Y-71331825D01*
X190722380Y-71329291D01*
X190734997Y-71313314D01*
X190758535Y-71286194D01*
X190790333Y-71250955D01*
X190827731Y-71210617D01*
X190932165Y-71099357D01*
X191096015Y-71139916D01*
G37*
G36*
X193143275Y-71623154D02*
G01*
X193294742Y-71655123D01*
X193339791Y-71797006D01*
X193355055Y-71847082D01*
X193369230Y-71900659D01*
X193375711Y-71936856D01*
X193374263Y-71954597D01*
X193374168Y-71954738D01*
X193362832Y-71968575D01*
X193340273Y-71994139D01*
X193309714Y-72027830D01*
X193274383Y-72066050D01*
X193185077Y-72161791D01*
X193030314Y-72126434D01*
X192875551Y-72091075D01*
X192833227Y-71956835D01*
X192829969Y-71946430D01*
X192815003Y-71896641D01*
X192803302Y-71854407D01*
X192795976Y-71823917D01*
X192794134Y-71809354D01*
X192794700Y-71807974D01*
X192805535Y-71793013D01*
X192827686Y-71766793D01*
X192858316Y-71732583D01*
X192894587Y-71693651D01*
X192991809Y-71591186D01*
X193143275Y-71623154D01*
G37*
G36*
X184211383Y-69732422D02*
G01*
X184239917Y-69739659D01*
X184259385Y-69749262D01*
X184270981Y-69766237D01*
X184281578Y-69796896D01*
X184297854Y-69848922D01*
X184264295Y-69885505D01*
X184230735Y-69922089D01*
X184171495Y-69905422D01*
X184138737Y-69895401D01*
X184118998Y-69885120D01*
X184107800Y-69869913D01*
X184099031Y-69844654D01*
X184085805Y-69800553D01*
X184121635Y-69760263D01*
X184141672Y-69738739D01*
X184158917Y-69727115D01*
X184179239Y-69725914D01*
X184211383Y-69732422D01*
G37*
G36*
X191939737Y-70595877D02*
G01*
X192115370Y-70633464D01*
X192165027Y-70791807D01*
X192175433Y-70824619D01*
X192191759Y-70874546D01*
X192205489Y-70914608D01*
X192215422Y-70941349D01*
X192220360Y-70951308D01*
X192223875Y-70949026D01*
X192239821Y-70934301D01*
X192266047Y-70908160D01*
X192299959Y-70873209D01*
X192338966Y-70832057D01*
X192451896Y-70711648D01*
X192625842Y-70751807D01*
X192799788Y-70791965D01*
X192824385Y-70870961D01*
X192825578Y-70874788D01*
X192841692Y-70926289D01*
X192860140Y-70984938D01*
X192877159Y-71038776D01*
X192905336Y-71127595D01*
X192787809Y-71254093D01*
X192670282Y-71380590D01*
X192491226Y-71336834D01*
X192312169Y-71293077D01*
X192269678Y-71158357D01*
X192266899Y-71149548D01*
X192250655Y-71098168D01*
X192236410Y-71053283D01*
X192225617Y-71019461D01*
X192219727Y-71001264D01*
X192219485Y-71000562D01*
X192215083Y-70994057D01*
X192207157Y-70994504D01*
X192193564Y-71003645D01*
X192172159Y-71023219D01*
X192140797Y-71054968D01*
X192097336Y-71100633D01*
X191982404Y-71222375D01*
X191805428Y-71181517D01*
X191628451Y-71140659D01*
X191577032Y-70975104D01*
X191525612Y-70809548D01*
X191644858Y-70683918D01*
X191764104Y-70558290D01*
X191939737Y-70595877D01*
G37*
G36*
X191253175Y-70456625D02*
G01*
X191421799Y-70495555D01*
X191469561Y-70647523D01*
X191477926Y-70674321D01*
X191493299Y-70724659D01*
X191505441Y-70765900D01*
X191513281Y-70794356D01*
X191515744Y-70806340D01*
X191513344Y-70809893D01*
X191499060Y-70826773D01*
X191474135Y-70854671D01*
X191441102Y-70890769D01*
X191402497Y-70932249D01*
X191290831Y-71051311D01*
X191124739Y-71013236D01*
X190958647Y-70975161D01*
X190910879Y-70822196D01*
X190902553Y-70795206D01*
X190887322Y-70743879D01*
X190875450Y-70701184D01*
X190867980Y-70670961D01*
X190865954Y-70657045D01*
X190867777Y-70653667D01*
X190881328Y-70636347D01*
X190905772Y-70608158D01*
X190938442Y-70572126D01*
X190976675Y-70531277D01*
X191084551Y-70417695D01*
X191253175Y-70456625D01*
G37*
G36*
X193272326Y-71074847D02*
G01*
X193348901Y-71092526D01*
X193372524Y-71164050D01*
X193376878Y-71177316D01*
X193386325Y-71210540D01*
X193387815Y-71235026D01*
X193379555Y-71256662D01*
X193359758Y-71281333D01*
X193326629Y-71314930D01*
X193290617Y-71350613D01*
X193210875Y-71331988D01*
X193131133Y-71313365D01*
X193110465Y-71247063D01*
X193101843Y-71217135D01*
X193097224Y-71185329D01*
X193103019Y-71159394D01*
X193121124Y-71132793D01*
X193153435Y-71098991D01*
X193195750Y-71057169D01*
X193272326Y-71074847D01*
G37*
G36*
X184365661Y-69053307D02*
G01*
X184387990Y-69057509D01*
X184414027Y-69065516D01*
X184430403Y-69079111D01*
X184442019Y-69103285D01*
X184453776Y-69143027D01*
X184458702Y-69163766D01*
X184457736Y-69180069D01*
X184447467Y-69196775D01*
X184425190Y-69221291D01*
X184386418Y-69262331D01*
X184322930Y-69247674D01*
X184259441Y-69233016D01*
X184245104Y-69179304D01*
X184230766Y-69125591D01*
X184268226Y-69084171D01*
X184270994Y-69081112D01*
X184292164Y-69059316D01*
X184309527Y-69049151D01*
X184331289Y-69048014D01*
X184365661Y-69053307D01*
G37*
G36*
X191410862Y-69776427D02*
G01*
X191586595Y-69817268D01*
X191635479Y-69975512D01*
X191684361Y-70133756D01*
X191801335Y-70010817D01*
X191918310Y-69887879D01*
X192094297Y-69925548D01*
X192270284Y-69963216D01*
X192321880Y-70126763D01*
X192333490Y-70163899D01*
X192349134Y-70215148D01*
X192361418Y-70256907D01*
X192369306Y-70285621D01*
X192371762Y-70297737D01*
X192368561Y-70302359D01*
X192353123Y-70320473D01*
X192327161Y-70349401D01*
X192293169Y-70386378D01*
X192253643Y-70428637D01*
X192137239Y-70552111D01*
X191960334Y-70511157D01*
X191783427Y-70470203D01*
X191734482Y-70312471D01*
X191724168Y-70279947D01*
X191707607Y-70230728D01*
X191693264Y-70191741D01*
X191682401Y-70166338D01*
X191676281Y-70157876D01*
X191672985Y-70160201D01*
X191656812Y-70175131D01*
X191630303Y-70201417D01*
X191596231Y-70236285D01*
X191557359Y-70276963D01*
X191447691Y-70392916D01*
X191275311Y-70352777D01*
X191102930Y-70312638D01*
X191054030Y-70152342D01*
X191043775Y-70118507D01*
X191028548Y-70067344D01*
X191016461Y-70025563D01*
X191008554Y-69996778D01*
X191005862Y-69984599D01*
X191008457Y-69980486D01*
X191023055Y-69962955D01*
X191048324Y-69934564D01*
X191081760Y-69898107D01*
X191120862Y-69856370D01*
X191235129Y-69735586D01*
X191410862Y-69776427D01*
G37*
G36*
X192770383Y-70125512D02*
G01*
X192920060Y-70157538D01*
X192959337Y-70286180D01*
X192960548Y-70290154D01*
X192975425Y-70340442D01*
X192987648Y-70384347D01*
X192995979Y-70417266D01*
X192999185Y-70434598D01*
X192992614Y-70449660D01*
X192972806Y-70477170D01*
X192941803Y-70514237D01*
X192901661Y-70558255D01*
X192803565Y-70662135D01*
X192654041Y-70627610D01*
X192504516Y-70593085D01*
X192464231Y-70461776D01*
X192462085Y-70454753D01*
X192447282Y-70404726D01*
X192435370Y-70361736D01*
X192427516Y-70330165D01*
X192424890Y-70314391D01*
X192425276Y-70312783D01*
X192435310Y-70296802D01*
X192456839Y-70269766D01*
X192487085Y-70235017D01*
X192523271Y-70195902D01*
X192620706Y-70093488D01*
X192770383Y-70125512D01*
G37*
G36*
X189346079Y-69356204D02*
G01*
X189489584Y-69392334D01*
X189529065Y-69515497D01*
X189529594Y-69517148D01*
X189544604Y-69565157D01*
X189556635Y-69605778D01*
X189564473Y-69634769D01*
X189566908Y-69647893D01*
X189566523Y-69648862D01*
X189556567Y-69662196D01*
X189535303Y-69687084D01*
X189505502Y-69720360D01*
X189469927Y-69758857D01*
X189374584Y-69860589D01*
X189235046Y-69825361D01*
X189095509Y-69790132D01*
X189053303Y-69655574D01*
X189043321Y-69623464D01*
X189029763Y-69577498D01*
X189022137Y-69546078D01*
X189019877Y-69525630D01*
X189022419Y-69512587D01*
X189029196Y-69503375D01*
X189038320Y-69494146D01*
X189060797Y-69470768D01*
X189090981Y-69438977D01*
X189124936Y-69402905D01*
X189202575Y-69320075D01*
X189346079Y-69356204D01*
G37*
G36*
X188659172Y-69206475D02*
G01*
X188788017Y-69236476D01*
X188826386Y-69363799D01*
X188864754Y-69491123D01*
X188775340Y-69584906D01*
X188685924Y-69678691D01*
X188556633Y-69649137D01*
X188427342Y-69619581D01*
X188388365Y-69495099D01*
X188349387Y-69370619D01*
X188439857Y-69273546D01*
X188530326Y-69176474D01*
X188659172Y-69206475D01*
G37*
G36*
X187970868Y-69071243D02*
G01*
X188089848Y-69101764D01*
X188123111Y-69207199D01*
X188133208Y-69239985D01*
X188144702Y-69279725D01*
X188152169Y-69308707D01*
X188154340Y-69322249D01*
X188149624Y-69329790D01*
X188133034Y-69350562D01*
X188107459Y-69380354D01*
X188075972Y-69415511D01*
X187999636Y-69499158D01*
X187877222Y-69468159D01*
X187754807Y-69437160D01*
X187721543Y-69331725D01*
X187711386Y-69298851D01*
X187699854Y-69259441D01*
X187692306Y-69230934D01*
X187690019Y-69217941D01*
X187695363Y-69210098D01*
X187712777Y-69189505D01*
X187739287Y-69160032D01*
X187771825Y-69125157D01*
X187851889Y-69040722D01*
X187970868Y-69071243D01*
G37*
G36*
X187280022Y-68931166D02*
G01*
X187390118Y-68956512D01*
X187421406Y-69060270D01*
X187452694Y-69164028D01*
X187379918Y-69240772D01*
X187307144Y-69317516D01*
X187196748Y-69292029D01*
X187086353Y-69266543D01*
X187056835Y-69171566D01*
X187049874Y-69148655D01*
X187038788Y-69109474D01*
X187031628Y-69080338D01*
X187029693Y-69066289D01*
X187032568Y-69061198D01*
X187047149Y-69042357D01*
X187071057Y-69014278D01*
X187100999Y-68980904D01*
X187169927Y-68905820D01*
X187280022Y-68931166D01*
G37*
G36*
X186591432Y-68793978D02*
G01*
X186690782Y-68817047D01*
X186717140Y-68902833D01*
X186721454Y-68917148D01*
X186732220Y-68955765D01*
X186739144Y-68985170D01*
X186740893Y-68999899D01*
X186739890Y-69002170D01*
X186728068Y-69018147D01*
X186706104Y-69043486D01*
X186677717Y-69073837D01*
X186617145Y-69136494D01*
X186517724Y-69113540D01*
X186418303Y-69090587D01*
X186392725Y-69010510D01*
X186389789Y-69001260D01*
X186378145Y-68963318D01*
X186369794Y-68934094D01*
X186366386Y-68919287D01*
X186367475Y-68915748D01*
X186379040Y-68898275D01*
X186400593Y-68871469D01*
X186428853Y-68839524D01*
X186492083Y-68770908D01*
X186591432Y-68793978D01*
G37*
G36*
X184525495Y-68373604D02*
G01*
X184596030Y-68386868D01*
X184612988Y-68449279D01*
X184629946Y-68511690D01*
X184587926Y-68557835D01*
X184545906Y-68603980D01*
X184477148Y-68588117D01*
X184408390Y-68572254D01*
X184389854Y-68511623D01*
X184371317Y-68450991D01*
X184413138Y-68405666D01*
X184454959Y-68360340D01*
X184525495Y-68373604D01*
G37*
G36*
X183834720Y-68235635D02*
G01*
X183893850Y-68246051D01*
X183909977Y-68297602D01*
X183926105Y-68349154D01*
X183888279Y-68390868D01*
X183866059Y-68414257D01*
X183848575Y-68425580D01*
X183828007Y-68426552D01*
X183795598Y-68419918D01*
X183765159Y-68412157D01*
X183746187Y-68402449D01*
X183734782Y-68385222D01*
X183724156Y-68354233D01*
X183707569Y-68301213D01*
X183741579Y-68263216D01*
X183761928Y-68241934D01*
X183778915Y-68231754D01*
X183800481Y-68230453D01*
X183834720Y-68235635D01*
G37*
G36*
X193396369Y-70528231D02*
G01*
X193402008Y-70539977D01*
X193401351Y-70542283D01*
X193395079Y-70549240D01*
X193393535Y-70548382D01*
X193386540Y-70536406D01*
X193385850Y-70532040D01*
X193393468Y-70527144D01*
X193396369Y-70528231D01*
G37*
G36*
X191567433Y-69095701D02*
G01*
X191743723Y-69136670D01*
X191792406Y-69294273D01*
X191802404Y-69326422D01*
X191818202Y-69376254D01*
X191831251Y-69416212D01*
X191840415Y-69442839D01*
X191844555Y-69452676D01*
X191847635Y-69450308D01*
X191862883Y-69435469D01*
X191888531Y-69409259D01*
X191922038Y-69374287D01*
X191960865Y-69333165D01*
X192073709Y-69212853D01*
X192250422Y-69253381D01*
X192427134Y-69293908D01*
X192477873Y-69456128D01*
X192488949Y-69491894D01*
X192504430Y-69543229D01*
X192516569Y-69585193D01*
X192524337Y-69614187D01*
X192526703Y-69626613D01*
X192523478Y-69631395D01*
X192507993Y-69649758D01*
X192481982Y-69678895D01*
X192447946Y-69716023D01*
X192408391Y-69758352D01*
X192291987Y-69881825D01*
X192115081Y-69840871D01*
X191938175Y-69799917D01*
X191889199Y-69642089D01*
X191879078Y-69609652D01*
X191863298Y-69559857D01*
X191850343Y-69519954D01*
X191841339Y-69493389D01*
X191837413Y-69483612D01*
X191834417Y-69486050D01*
X191819300Y-69500980D01*
X191793741Y-69527243D01*
X191760265Y-69562235D01*
X191721396Y-69603349D01*
X191608189Y-69723734D01*
X191431511Y-69683057D01*
X191254833Y-69642379D01*
X191204095Y-69480159D01*
X191192952Y-69444241D01*
X191177448Y-69393163D01*
X191165253Y-69351585D01*
X191157399Y-69323065D01*
X191154921Y-69311161D01*
X191158308Y-69306405D01*
X191173951Y-69288189D01*
X191200065Y-69259151D01*
X191234177Y-69222027D01*
X191273815Y-69179556D01*
X191391143Y-69054731D01*
X191567433Y-69095701D01*
G37*
G36*
X189501304Y-68675166D02*
G01*
X189652249Y-68707015D01*
X189693210Y-68839801D01*
X189696155Y-68849387D01*
X189710827Y-68898436D01*
X189722463Y-68939473D01*
X189729948Y-68968441D01*
X189732162Y-68981284D01*
X189731773Y-68982172D01*
X189721769Y-68995226D01*
X189700472Y-69019880D01*
X189670666Y-69052982D01*
X189635130Y-69091372D01*
X189540105Y-69192764D01*
X189389841Y-69155073D01*
X189239575Y-69117381D01*
X189197445Y-68983275D01*
X189155313Y-68849169D01*
X189201000Y-68799447D01*
X189225050Y-68773572D01*
X189262962Y-68733478D01*
X189298523Y-68696521D01*
X189350360Y-68643318D01*
X189501304Y-68675166D01*
G37*
G36*
X188816049Y-68525394D02*
G01*
X188949002Y-68556089D01*
X188990316Y-68686251D01*
X188992979Y-68694656D01*
X189008014Y-68742557D01*
X189020131Y-68781937D01*
X189028149Y-68808918D01*
X189030889Y-68819621D01*
X189030646Y-68820032D01*
X189021368Y-68830684D01*
X189000678Y-68853178D01*
X188971332Y-68884545D01*
X188936087Y-68921810D01*
X188842026Y-69020790D01*
X188707127Y-68986620D01*
X188572229Y-68952450D01*
X188532749Y-68829287D01*
X188532145Y-68827404D01*
X188517134Y-68779598D01*
X188505052Y-68739379D01*
X188497121Y-68710925D01*
X188494556Y-68698410D01*
X188494761Y-68697853D01*
X188503957Y-68685877D01*
X188524685Y-68662266D01*
X188554129Y-68630161D01*
X188589470Y-68592698D01*
X188683097Y-68494699D01*
X188816049Y-68525394D01*
G37*
G36*
X188126622Y-68387951D02*
G01*
X188251569Y-68416797D01*
X188286971Y-68529538D01*
X188298939Y-68569014D01*
X188310358Y-68610071D01*
X188317581Y-68640327D01*
X188319408Y-68655124D01*
X188313431Y-68664769D01*
X188295317Y-68687206D01*
X188268200Y-68718095D01*
X188235201Y-68753780D01*
X188153959Y-68839592D01*
X188028638Y-68810659D01*
X187903318Y-68781727D01*
X187868051Y-68666713D01*
X187855557Y-68625006D01*
X187844217Y-68584964D01*
X187836863Y-68556322D01*
X187834683Y-68543472D01*
X187840924Y-68534584D01*
X187859077Y-68513156D01*
X187886144Y-68482882D01*
X187919129Y-68447176D01*
X188001675Y-68359105D01*
X188126622Y-68387951D01*
G37*
G36*
X187438525Y-68250886D02*
G01*
X187553921Y-68277599D01*
X187584714Y-68379457D01*
X187593493Y-68408625D01*
X187605188Y-68447944D01*
X187613511Y-68476510D01*
X187617064Y-68489574D01*
X187613714Y-68496194D01*
X187598479Y-68515748D01*
X187573675Y-68544259D01*
X187542301Y-68578175D01*
X187465979Y-68658517D01*
X187350603Y-68632140D01*
X187235228Y-68605763D01*
X187201885Y-68503950D01*
X187192483Y-68474405D01*
X187180795Y-68434648D01*
X187173350Y-68405242D01*
X187171455Y-68391024D01*
X187175466Y-68384499D01*
X187191677Y-68364568D01*
X187217201Y-68335819D01*
X187248749Y-68302041D01*
X187323130Y-68224173D01*
X187438525Y-68250886D01*
G37*
G36*
X186749015Y-68115929D02*
G01*
X186856242Y-68143538D01*
X186885904Y-68237279D01*
X186915564Y-68331021D01*
X186878044Y-68371237D01*
X186867275Y-68382699D01*
X186835653Y-68415745D01*
X186807414Y-68444539D01*
X186774303Y-68477627D01*
X186668762Y-68453127D01*
X186563222Y-68428628D01*
X186535239Y-68338123D01*
X186529554Y-68319355D01*
X186518609Y-68280541D01*
X186511529Y-68251456D01*
X186509637Y-68237305D01*
X186511531Y-68233676D01*
X186524812Y-68216327D01*
X186547756Y-68189621D01*
X186576903Y-68157657D01*
X186641788Y-68088320D01*
X186749015Y-68115929D01*
G37*
G36*
X184682633Y-67690727D02*
G01*
X184756667Y-67707691D01*
X184775572Y-67770401D01*
X184783842Y-67800048D01*
X184790351Y-67828988D01*
X184791826Y-67844592D01*
X184786465Y-67853786D01*
X184769482Y-67874636D01*
X184745415Y-67900441D01*
X184701655Y-67944809D01*
X184627665Y-67927727D01*
X184553676Y-67910646D01*
X184534655Y-67844244D01*
X184515635Y-67777842D01*
X184562117Y-67725803D01*
X184608599Y-67673764D01*
X184682633Y-67690727D01*
G37*
G36*
X173876210Y-64620068D02*
G01*
X174386659Y-64737914D01*
X174296191Y-65129774D01*
X174205723Y-65521632D01*
X173695275Y-65403786D01*
X173184827Y-65285940D01*
X173275294Y-64894081D01*
X173365762Y-64502222D01*
X173876210Y-64620068D01*
G37*
G36*
X183994182Y-67558811D02*
G01*
X184062475Y-67574578D01*
X184077395Y-67627279D01*
X184092315Y-67679980D01*
X184053914Y-67722329D01*
X184015513Y-67764678D01*
X183950346Y-67749633D01*
X183885178Y-67734588D01*
X183867999Y-67679675D01*
X183850821Y-67624763D01*
X183888355Y-67583904D01*
X183925889Y-67543045D01*
X183994182Y-67558811D01*
G37*
G36*
X192855148Y-69610620D02*
G01*
X192889305Y-69617843D01*
X192949413Y-69631720D01*
X192960772Y-69681269D01*
X192972131Y-69730818D01*
X192940193Y-69768842D01*
X192908254Y-69806867D01*
X192848023Y-69792961D01*
X192787793Y-69779056D01*
X192774410Y-69728921D01*
X192761027Y-69678786D01*
X192795112Y-69641376D01*
X192798779Y-69637358D01*
X192817638Y-69618440D01*
X192833843Y-69610173D01*
X192855148Y-69610620D01*
G37*
G36*
X183303910Y-67471480D02*
G01*
X183317126Y-67488064D01*
X183311633Y-67510370D01*
X183310412Y-67511944D01*
X183292914Y-67519321D01*
X183271552Y-67516167D01*
X183258120Y-67503906D01*
X183259169Y-67487346D01*
X183273177Y-67471519D01*
X183293557Y-67467661D01*
X183303910Y-67471480D01*
G37*
G36*
X189660090Y-67992659D02*
G01*
X189816277Y-68028855D01*
X189858534Y-68166098D01*
X189862694Y-68179635D01*
X189877683Y-68228909D01*
X189889877Y-68269762D01*
X189898114Y-68298264D01*
X189901232Y-68310484D01*
X189900531Y-68312165D01*
X189889661Y-68326410D01*
X189867666Y-68352042D01*
X189837153Y-68386074D01*
X189800731Y-68425520D01*
X189699790Y-68533416D01*
X189543424Y-68497563D01*
X189387059Y-68461711D01*
X189348079Y-68335948D01*
X189347548Y-68334233D01*
X189332112Y-68284540D01*
X189318627Y-68241300D01*
X189308523Y-68209101D01*
X189303238Y-68192534D01*
X189302807Y-68189338D01*
X189308475Y-68174031D01*
X189325803Y-68149445D01*
X189356093Y-68113889D01*
X189400640Y-68065673D01*
X189503904Y-67956463D01*
X189660090Y-67992659D01*
G37*
G36*
X188973072Y-67844876D02*
G01*
X189112690Y-67877212D01*
X189153236Y-68007395D01*
X189155536Y-68014786D01*
X189170586Y-68063497D01*
X189183001Y-68104249D01*
X189191546Y-68132963D01*
X189194988Y-68145561D01*
X189194866Y-68146296D01*
X189186219Y-68158752D01*
X189165978Y-68182746D01*
X189136856Y-68215161D01*
X189101562Y-68252885D01*
X189006929Y-68352227D01*
X188863942Y-68319216D01*
X188720955Y-68286205D01*
X188679204Y-68158237D01*
X188677181Y-68152024D01*
X188661833Y-68103842D01*
X188649575Y-68063574D01*
X188641607Y-68035274D01*
X188639132Y-68023000D01*
X188639569Y-68022103D01*
X188649748Y-68009385D01*
X188671247Y-67985100D01*
X188701299Y-67952324D01*
X188737132Y-67914134D01*
X188833455Y-67812539D01*
X188973072Y-67844876D01*
G37*
G36*
X188283329Y-67710111D02*
G01*
X188417003Y-67738396D01*
X188453285Y-67857966D01*
X188466968Y-67903860D01*
X188478535Y-67944278D01*
X188486241Y-67973110D01*
X188488887Y-67986042D01*
X188488884Y-67986071D01*
X188481697Y-67996819D01*
X188462832Y-68019591D01*
X188435144Y-68051064D01*
X188401480Y-68087917D01*
X188314754Y-68181285D01*
X188182210Y-68148109D01*
X188049666Y-68114933D01*
X188012858Y-67999515D01*
X187999924Y-67957413D01*
X187988315Y-67916064D01*
X187980997Y-67885578D01*
X187979175Y-67870563D01*
X187985833Y-67859928D01*
X188004615Y-67836845D01*
X188032365Y-67805473D01*
X188065978Y-67769427D01*
X188149656Y-67681826D01*
X188283329Y-67710111D01*
G37*
G36*
X192389180Y-68655166D02*
G01*
X192515529Y-68684337D01*
X192553420Y-68803835D01*
X192567628Y-68849935D01*
X192579349Y-68890578D01*
X192586877Y-68919809D01*
X192589017Y-68933277D01*
X192582713Y-68942704D01*
X192564484Y-68964712D01*
X192537365Y-68995436D01*
X192504374Y-69031380D01*
X192422027Y-69119540D01*
X192289141Y-69085847D01*
X192156255Y-69052152D01*
X192118888Y-68934983D01*
X192105007Y-68889486D01*
X192093954Y-68845928D01*
X192090495Y-68818242D01*
X192094242Y-68804382D01*
X192102056Y-68796121D01*
X192122690Y-68774295D01*
X192151521Y-68743791D01*
X192184896Y-68708474D01*
X192262831Y-68625996D01*
X192389180Y-68655166D01*
G37*
G36*
X187594058Y-67569848D02*
G01*
X187714852Y-67597736D01*
X187746936Y-67695706D01*
X187755008Y-67720679D01*
X187767895Y-67762072D01*
X187777287Y-67794245D01*
X187781562Y-67811773D01*
X187780396Y-67818051D01*
X187767204Y-67840389D01*
X187740953Y-67873473D01*
X187703409Y-67914971D01*
X187622713Y-68000071D01*
X187501776Y-67972150D01*
X187380839Y-67944230D01*
X187347110Y-67835981D01*
X187336477Y-67800766D01*
X187325182Y-67760214D01*
X187317992Y-67730326D01*
X187316127Y-67715835D01*
X187320839Y-67708082D01*
X187337776Y-67687106D01*
X187363924Y-67657483D01*
X187396068Y-67622949D01*
X187473262Y-67541960D01*
X187594058Y-67569848D01*
G37*
G36*
X186906629Y-67432866D02*
G01*
X187018761Y-67458754D01*
X187048163Y-67555068D01*
X187055325Y-67579095D01*
X187066241Y-67618474D01*
X187073272Y-67647735D01*
X187075149Y-67661852D01*
X187072438Y-67666701D01*
X187057980Y-67685269D01*
X187034081Y-67713021D01*
X187004083Y-67745999D01*
X186935435Y-67819677D01*
X186823597Y-67793857D01*
X186711759Y-67768038D01*
X186679478Y-67669467D01*
X186670783Y-67642534D01*
X186658941Y-67604324D01*
X186651083Y-67576903D01*
X186648579Y-67564911D01*
X186651817Y-67560247D01*
X186666932Y-67542671D01*
X186691475Y-67515713D01*
X186722229Y-67482952D01*
X186794498Y-67406979D01*
X186906629Y-67432866D01*
G37*
G36*
X184841209Y-67010336D02*
G01*
X184920803Y-67028711D01*
X184940831Y-67090774D01*
X184949888Y-67119864D01*
X184958134Y-67148886D01*
X184961601Y-67164702D01*
X184961603Y-67165032D01*
X184954615Y-67178820D01*
X184936738Y-67202587D01*
X184911671Y-67231390D01*
X184860998Y-67286212D01*
X184782260Y-67268151D01*
X184703520Y-67250090D01*
X184680678Y-67178867D01*
X184679785Y-67176079D01*
X184668825Y-67140919D01*
X184661277Y-67115008D01*
X184658727Y-67103781D01*
X184658785Y-67103622D01*
X184666730Y-67093788D01*
X184685273Y-67073149D01*
X184710618Y-67045938D01*
X184761616Y-66991960D01*
X184841209Y-67010336D01*
G37*
G36*
X184150165Y-66896383D02*
G01*
X184162327Y-66900175D01*
X184186972Y-66911161D01*
X184200780Y-66927607D01*
X184211123Y-66956820D01*
X184224558Y-67002997D01*
X184193260Y-67037350D01*
X184175165Y-67056043D01*
X184159453Y-67065034D01*
X184139578Y-67064417D01*
X184107489Y-67055936D01*
X184084399Y-67048820D01*
X184062043Y-67038317D01*
X184049556Y-67023308D01*
X184040438Y-66998196D01*
X184027858Y-66956222D01*
X184065251Y-66919171D01*
X184082836Y-66902349D01*
X184101452Y-66889974D01*
X184120886Y-66888793D01*
X184150165Y-66896383D01*
G37*
G36*
X190507098Y-67449939D02*
G01*
X190679243Y-67490150D01*
X190728378Y-67648415D01*
X190777513Y-67806681D01*
X190895054Y-67683712D01*
X191012596Y-67560743D01*
X191191018Y-67601935D01*
X191369438Y-67643127D01*
X191416269Y-67789710D01*
X191423116Y-67811045D01*
X191439613Y-67861627D01*
X191453700Y-67903690D01*
X191464062Y-67933344D01*
X191469382Y-67946699D01*
X191473329Y-67946130D01*
X191489712Y-67933986D01*
X191516191Y-67909994D01*
X191550201Y-67876524D01*
X191589179Y-67835945D01*
X191702692Y-67714784D01*
X191876683Y-67757594D01*
X192050672Y-67800402D01*
X192099516Y-67956815D01*
X192108851Y-67987058D01*
X192124166Y-68038421D01*
X192136131Y-68080875D01*
X192143709Y-68110668D01*
X192145860Y-68124054D01*
X192145506Y-68125372D01*
X192142907Y-68130893D01*
X192136777Y-68139445D01*
X192125281Y-68153083D01*
X192106579Y-68173862D01*
X192078831Y-68203839D01*
X192040202Y-68245068D01*
X191988851Y-68299605D01*
X191910872Y-68382332D01*
X191739816Y-68339866D01*
X191568759Y-68297400D01*
X191517874Y-68136064D01*
X191466990Y-67974727D01*
X191351068Y-68097553D01*
X191235146Y-68220380D01*
X191057466Y-68179359D01*
X190879786Y-68138339D01*
X190832254Y-67985707D01*
X190823800Y-67958876D01*
X190807282Y-67908281D01*
X190792977Y-67866820D01*
X190782188Y-67838202D01*
X190776217Y-67826137D01*
X190772865Y-67826801D01*
X190756854Y-67838613D01*
X190730635Y-67862277D01*
X190696907Y-67895293D01*
X190658378Y-67935158D01*
X190549044Y-68051119D01*
X190376080Y-68011187D01*
X190203117Y-67971256D01*
X190153225Y-67812096D01*
X190103334Y-67652937D01*
X190219143Y-67531333D01*
X190334952Y-67409728D01*
X190507098Y-67449939D01*
G37*
G36*
X189819339Y-67301551D02*
G01*
X189975888Y-67337693D01*
X190022276Y-67485607D01*
X190029295Y-67508236D01*
X190044457Y-67559014D01*
X190056273Y-67601321D01*
X190063688Y-67631268D01*
X190065641Y-67644967D01*
X190064339Y-67647426D01*
X190051742Y-67663498D01*
X190028116Y-67690624D01*
X189996180Y-67725729D01*
X189958661Y-67765739D01*
X189854701Y-67875064D01*
X189694511Y-67835095D01*
X189534321Y-67795128D01*
X189488138Y-67654125D01*
X189482779Y-67637510D01*
X189467512Y-67586938D01*
X189456099Y-67544065D01*
X189449568Y-67512992D01*
X189448947Y-67497818D01*
X189450550Y-67495171D01*
X189464229Y-67478061D01*
X189488840Y-67450007D01*
X189521509Y-67414233D01*
X189559363Y-67373961D01*
X189662790Y-67265409D01*
X189819339Y-67301551D01*
G37*
G36*
X189129660Y-67166731D02*
G01*
X189278180Y-67203769D01*
X189320644Y-67338483D01*
X189324231Y-67349913D01*
X189339268Y-67399096D01*
X189351209Y-67440179D01*
X189358915Y-67469149D01*
X189361254Y-67481991D01*
X189360817Y-67482983D01*
X189350608Y-67496219D01*
X189329061Y-67520950D01*
X189298956Y-67554046D01*
X189263076Y-67592381D01*
X189166754Y-67693976D01*
X189015251Y-67658999D01*
X188863749Y-67624022D01*
X188822287Y-67489610D01*
X188819032Y-67478954D01*
X188804715Y-67429280D01*
X188793971Y-67387291D01*
X188787794Y-67357132D01*
X188787177Y-67342954D01*
X188787684Y-67342104D01*
X188798821Y-67328168D01*
X188821114Y-67302652D01*
X188851604Y-67268886D01*
X188887334Y-67230202D01*
X188981140Y-67129693D01*
X189129660Y-67166731D01*
G37*
G36*
X188441507Y-67026901D02*
G01*
X188577098Y-67058205D01*
X188615030Y-67180315D01*
X188615082Y-67180482D01*
X188629837Y-67228656D01*
X188642003Y-67269649D01*
X188650319Y-67299127D01*
X188653526Y-67312752D01*
X188653410Y-67313494D01*
X188644889Y-67326618D01*
X188624831Y-67351308D01*
X188595968Y-67384327D01*
X188561032Y-67422433D01*
X188467973Y-67521789D01*
X188333482Y-67490635D01*
X188198990Y-67459482D01*
X188158612Y-67328570D01*
X188156153Y-67320543D01*
X188141878Y-67271616D01*
X188131064Y-67230494D01*
X188124728Y-67201290D01*
X188123888Y-67188115D01*
X188132901Y-67177348D01*
X188153630Y-67154666D01*
X188182942Y-67123463D01*
X188217728Y-67087084D01*
X188305916Y-66995597D01*
X188441507Y-67026901D01*
G37*
G36*
X187750494Y-66889539D02*
G01*
X187880467Y-66919097D01*
X187915868Y-67031840D01*
X187927952Y-67071441D01*
X187939448Y-67111859D01*
X187946824Y-67141223D01*
X187948866Y-67154994D01*
X187942515Y-67164579D01*
X187924207Y-67186725D01*
X187896998Y-67217529D01*
X187863916Y-67253478D01*
X187781370Y-67341550D01*
X187655509Y-67312493D01*
X187529650Y-67283436D01*
X187498355Y-67186601D01*
X187491628Y-67165963D01*
X187475206Y-67115687D01*
X187465150Y-67079650D01*
X187462229Y-67053167D01*
X187467206Y-67031551D01*
X187480849Y-67010116D01*
X187503923Y-66984177D01*
X187537195Y-66949048D01*
X187620522Y-66859982D01*
X187750494Y-66889539D01*
G37*
G36*
X187066169Y-66741964D02*
G01*
X187178872Y-66767984D01*
X187214111Y-66879896D01*
X187249350Y-66991810D01*
X187202665Y-67042895D01*
X187180188Y-67067178D01*
X187148445Y-67100673D01*
X187122664Y-67127021D01*
X187089348Y-67160060D01*
X186973523Y-67133061D01*
X186857698Y-67106061D01*
X186823693Y-66998435D01*
X186789688Y-66890810D01*
X186838412Y-66836452D01*
X186863770Y-66808579D01*
X186895216Y-66774920D01*
X186920301Y-66749019D01*
X186953468Y-66715945D01*
X187066169Y-66741964D01*
G37*
G36*
X186376127Y-66604378D02*
G01*
X186481620Y-66628733D01*
X186510314Y-66721666D01*
X186516700Y-66742554D01*
X186528266Y-66781569D01*
X186536385Y-66810631D01*
X186539604Y-66824620D01*
X186536893Y-66830520D01*
X186522582Y-66849880D01*
X186498706Y-66878287D01*
X186468365Y-66911945D01*
X186396530Y-66989249D01*
X186292801Y-66965302D01*
X186189073Y-66941354D01*
X186158395Y-66840383D01*
X186150012Y-66811790D01*
X186139622Y-66772542D01*
X186133461Y-66743912D01*
X186132647Y-66730667D01*
X186135406Y-66726950D01*
X186150193Y-66709790D01*
X186174276Y-66683143D01*
X186204106Y-66650972D01*
X186270634Y-66580023D01*
X186376127Y-66604378D01*
G37*
G36*
X185686151Y-66469159D02*
G01*
X185784395Y-66488760D01*
X185811282Y-66578732D01*
X185838168Y-66668703D01*
X185804452Y-66705145D01*
X185798186Y-66711877D01*
X185767036Y-66744596D01*
X185737548Y-66774656D01*
X185704359Y-66807725D01*
X185612660Y-66786555D01*
X185520960Y-66765384D01*
X185491710Y-66671938D01*
X185462459Y-66578491D01*
X185525182Y-66514025D01*
X185587906Y-66449558D01*
X185686151Y-66469159D01*
G37*
G36*
X184996882Y-66329609D02*
G01*
X185081257Y-66348881D01*
X185105160Y-66421255D01*
X185106098Y-66424110D01*
X185117280Y-66460922D01*
X185124500Y-66489856D01*
X185126230Y-66504867D01*
X185126050Y-66505430D01*
X185116701Y-66519243D01*
X185096834Y-66542951D01*
X185070440Y-66571765D01*
X185017482Y-66627424D01*
X184932704Y-66607852D01*
X184847925Y-66588279D01*
X184826867Y-66515730D01*
X184826119Y-66513153D01*
X184815628Y-66476589D01*
X184807788Y-66448573D01*
X184804249Y-66434987D01*
X184804329Y-66434023D01*
X184812556Y-66420749D01*
X184831482Y-66397476D01*
X184857600Y-66368566D01*
X184912509Y-66310339D01*
X184996882Y-66329609D01*
G37*
G36*
X192506301Y-68152081D02*
G01*
X192510115Y-68153354D01*
X192537981Y-68168897D01*
X192551930Y-68193743D01*
X192555741Y-68210229D01*
X192552670Y-68227967D01*
X192535991Y-68247088D01*
X192530549Y-68251853D01*
X192501204Y-68265219D01*
X192472672Y-68262537D01*
X192448993Y-68247522D01*
X192434207Y-68223892D01*
X192432354Y-68195363D01*
X192447474Y-68165654D01*
X192460994Y-68152205D01*
X192479215Y-68146140D01*
X192506301Y-68152081D01*
G37*
G36*
X184303937Y-66297591D02*
G01*
X184306759Y-66306417D01*
X184301988Y-66326541D01*
X184298317Y-66330775D01*
X184281168Y-66335725D01*
X184264798Y-66326904D01*
X184257953Y-66307998D01*
X184258360Y-66304514D01*
X184269383Y-66289984D01*
X184287914Y-66286921D01*
X184303937Y-66297591D01*
G37*
G36*
X190662550Y-66768487D02*
G01*
X190839192Y-66809268D01*
X190889276Y-66969042D01*
X190939360Y-67128817D01*
X191052963Y-67009548D01*
X191166568Y-66890280D01*
X191345893Y-66931680D01*
X191525219Y-66973081D01*
X191576531Y-67135312D01*
X191627841Y-67297545D01*
X191506077Y-67425891D01*
X191384314Y-67554237D01*
X191211011Y-67514227D01*
X191037709Y-67474217D01*
X190989025Y-67316614D01*
X190979045Y-67284690D01*
X190962873Y-67234656D01*
X190949188Y-67194419D01*
X190939191Y-67167468D01*
X190934088Y-67157298D01*
X190930413Y-67159496D01*
X190914220Y-67174082D01*
X190887777Y-67200099D01*
X190853689Y-67234957D01*
X190814563Y-67276066D01*
X190701291Y-67396549D01*
X190525861Y-67355666D01*
X190350432Y-67314783D01*
X190299351Y-67146911D01*
X190248270Y-66979039D01*
X190367089Y-66853372D01*
X190485909Y-66727706D01*
X190662550Y-66768487D01*
G37*
G36*
X189976963Y-66623572D02*
G01*
X190140534Y-66664263D01*
X190189789Y-66820592D01*
X190239045Y-66976922D01*
X190126919Y-67096476D01*
X190014794Y-67216031D01*
X189848241Y-67177731D01*
X189681688Y-67139431D01*
X189633668Y-66986241D01*
X189615081Y-66924200D01*
X189601252Y-66870764D01*
X189594871Y-66834797D01*
X189596180Y-66817376D01*
X189598206Y-66814685D01*
X189613094Y-66797358D01*
X189638675Y-66769012D01*
X189671982Y-66732905D01*
X189710052Y-66692291D01*
X189813392Y-66582882D01*
X189976963Y-66623572D01*
G37*
G36*
X189286933Y-66483486D02*
G01*
X189440348Y-66518904D01*
X189484939Y-66659906D01*
X189490124Y-66676441D01*
X189505306Y-66726657D01*
X189517212Y-66768786D01*
X189524742Y-66798818D01*
X189526799Y-66812741D01*
X189526778Y-66812823D01*
X189518817Y-66824119D01*
X189499579Y-66846979D01*
X189472386Y-66877779D01*
X189440558Y-66912895D01*
X189407417Y-66948697D01*
X189376283Y-66981563D01*
X189350476Y-67007865D01*
X189333320Y-67023978D01*
X189326877Y-67026559D01*
X189308434Y-67026590D01*
X189277078Y-67021807D01*
X189230351Y-67011800D01*
X189165797Y-66996164D01*
X189011249Y-66957494D01*
X188966002Y-66814838D01*
X188920756Y-66672183D01*
X189027137Y-66560125D01*
X189133518Y-66448067D01*
X189286933Y-66483486D01*
G37*
G36*
X188597537Y-66346231D02*
G01*
X188742260Y-66379462D01*
X188784789Y-66515198D01*
X188827319Y-66650934D01*
X188758702Y-66723694D01*
X188745557Y-66737664D01*
X188711330Y-66774304D01*
X188680991Y-66807121D01*
X188659881Y-66830351D01*
X188629677Y-66864249D01*
X188486280Y-66828288D01*
X188342883Y-66792328D01*
X188300275Y-66655994D01*
X188257668Y-66519661D01*
X188355242Y-66416330D01*
X188452815Y-66312999D01*
X188597537Y-66346231D01*
G37*
G36*
X187909634Y-66209095D02*
G01*
X188045901Y-66240693D01*
X188081252Y-66355626D01*
X188093856Y-66397066D01*
X188105880Y-66437657D01*
X188114213Y-66467033D01*
X188117547Y-66480698D01*
X188117536Y-66481046D01*
X188110045Y-66493218D01*
X188090827Y-66517080D01*
X188062655Y-66549342D01*
X188028298Y-66586710D01*
X187938104Y-66682585D01*
X187806561Y-66652216D01*
X187675018Y-66621847D01*
X187637777Y-66501916D01*
X187624089Y-66455705D01*
X187612911Y-66413514D01*
X187606075Y-66382238D01*
X187604707Y-66366475D01*
X187611286Y-66355683D01*
X187630046Y-66332138D01*
X187657716Y-66300403D01*
X187691123Y-66264231D01*
X187773366Y-66177498D01*
X187909634Y-66209095D01*
G37*
G36*
X187222511Y-66061185D02*
G01*
X187342818Y-66088960D01*
X187378402Y-66204304D01*
X187391184Y-66246449D01*
X187402669Y-66285901D01*
X187410211Y-66313724D01*
X187412603Y-66325636D01*
X187407163Y-66332961D01*
X187389740Y-66352954D01*
X187363271Y-66382038D01*
X187330775Y-66416850D01*
X187250330Y-66502076D01*
X187128036Y-66473842D01*
X187005743Y-66445609D01*
X186970679Y-66336569D01*
X186959374Y-66300360D01*
X186947694Y-66260046D01*
X186940213Y-66230502D01*
X186938188Y-66216380D01*
X186944005Y-66207301D01*
X186961878Y-66185420D01*
X186988733Y-66154893D01*
X187021485Y-66119320D01*
X187102206Y-66033411D01*
X187222511Y-66061185D01*
G37*
G36*
X192003213Y-67199842D02*
G01*
X192112829Y-67222077D01*
X192141091Y-67314652D01*
X192147261Y-67335070D01*
X192158723Y-67374246D01*
X192166789Y-67403575D01*
X192170008Y-67417877D01*
X192167325Y-67423934D01*
X192153041Y-67443523D01*
X192129177Y-67472097D01*
X192098829Y-67505829D01*
X192026993Y-67583132D01*
X191921766Y-67558838D01*
X191816538Y-67534545D01*
X191784969Y-67429855D01*
X191753399Y-67325164D01*
X191823499Y-67251385D01*
X191893599Y-67177606D01*
X192003213Y-67199842D01*
G37*
G36*
X186533179Y-65924112D02*
G01*
X186646625Y-65950244D01*
X186679423Y-66056798D01*
X186712220Y-66163352D01*
X186636921Y-66242352D01*
X186561622Y-66321352D01*
X186447549Y-66295016D01*
X186333475Y-66268680D01*
X186300551Y-66165051D01*
X186267626Y-66061423D01*
X186343680Y-65979702D01*
X186419732Y-65897980D01*
X186533179Y-65924112D01*
G37*
G36*
X185842870Y-65786117D02*
G01*
X185944317Y-65809537D01*
X185973553Y-65898135D01*
X185979133Y-65915414D01*
X185990712Y-65954195D01*
X185998174Y-65983613D01*
X186000108Y-65998351D01*
X185998010Y-66002444D01*
X185984310Y-66020481D01*
X185960940Y-66047662D01*
X185931381Y-66079855D01*
X185865337Y-66149740D01*
X185765804Y-66126628D01*
X185666270Y-66103515D01*
X185638168Y-66013526D01*
X185632440Y-65995108D01*
X185620688Y-65956784D01*
X185612229Y-65928440D01*
X185608599Y-65915182D01*
X185610179Y-65911125D01*
X185622731Y-65893765D01*
X185645148Y-65867025D01*
X185674278Y-65834761D01*
X185741425Y-65762696D01*
X185842870Y-65786117D01*
G37*
G36*
X185142456Y-65700489D02*
G01*
X185171433Y-65707846D01*
X185190548Y-65717509D01*
X185202064Y-65734775D01*
X185212794Y-65765990D01*
X185229420Y-65819132D01*
X185194398Y-65859498D01*
X185159376Y-65899862D01*
X185100946Y-65886373D01*
X185096349Y-65885310D01*
X185064984Y-65877114D01*
X185047275Y-65867500D01*
X185036942Y-65850944D01*
X185027707Y-65821917D01*
X185012899Y-65770952D01*
X185050821Y-65729542D01*
X185072503Y-65706915D01*
X185090180Y-65695287D01*
X185110587Y-65694068D01*
X185142456Y-65700489D01*
G37*
G36*
X190133470Y-65940327D02*
G01*
X190301007Y-65979006D01*
X190350582Y-66137084D01*
X190360904Y-66169626D01*
X190377262Y-66219576D01*
X190391051Y-66259689D01*
X190401064Y-66286498D01*
X190406095Y-66296534D01*
X190409754Y-66294239D01*
X190425942Y-66279537D01*
X190452430Y-66253463D01*
X190486614Y-66218607D01*
X190525887Y-66177557D01*
X190639740Y-66057209D01*
X190817103Y-66098156D01*
X190994465Y-66139103D01*
X191041968Y-66289763D01*
X191049536Y-66313881D01*
X191065585Y-66365885D01*
X191078789Y-66409836D01*
X191087949Y-66441698D01*
X191091861Y-66457437D01*
X191090722Y-66462073D01*
X191078162Y-66481878D01*
X191053385Y-66513098D01*
X191018331Y-66553361D01*
X190974939Y-66600296D01*
X190855629Y-66726141D01*
X190681107Y-66683148D01*
X190506584Y-66640155D01*
X190456583Y-66479482D01*
X190445636Y-66444664D01*
X190429434Y-66394542D01*
X190415889Y-66354351D01*
X190406171Y-66327529D01*
X190401450Y-66317517D01*
X190397969Y-66319831D01*
X190382092Y-66334589D01*
X190355905Y-66360736D01*
X190321985Y-66395678D01*
X190282913Y-66436819D01*
X190169507Y-66557416D01*
X189999346Y-66515159D01*
X189829185Y-66472903D01*
X189780120Y-66320373D01*
X189771575Y-66293507D01*
X189755852Y-66242290D01*
X189743518Y-66199668D01*
X189735660Y-66169473D01*
X189733365Y-66155540D01*
X189736256Y-66150492D01*
X189751425Y-66131458D01*
X189777283Y-66101834D01*
X189811264Y-66064527D01*
X189850804Y-66022442D01*
X189965933Y-65901648D01*
X190133470Y-65940327D01*
G37*
G36*
X191499391Y-66266537D02*
G01*
X191663624Y-66304453D01*
X191703875Y-66430627D01*
X191715711Y-66467326D01*
X191734058Y-66523856D01*
X191746404Y-66565731D01*
X191752293Y-66596784D01*
X191751266Y-66620846D01*
X191742865Y-66641750D01*
X191726633Y-66663328D01*
X191702112Y-66689412D01*
X191668844Y-66723834D01*
X191666877Y-66725910D01*
X191629744Y-66764939D01*
X191596402Y-66799752D01*
X191570430Y-66826623D01*
X191555410Y-66841830D01*
X191548497Y-66848050D01*
X191539432Y-66852887D01*
X191526433Y-66854458D01*
X191506186Y-66852380D01*
X191475368Y-66846274D01*
X191430663Y-66835761D01*
X191368750Y-66820460D01*
X191202598Y-66779119D01*
X191154310Y-66626804D01*
X191143438Y-66593265D01*
X191128694Y-66548253D01*
X191119438Y-66514304D01*
X191116819Y-66487514D01*
X191121993Y-66463983D01*
X191136112Y-66439805D01*
X191160330Y-66411081D01*
X191195799Y-66373907D01*
X191243672Y-66324380D01*
X191335159Y-66228621D01*
X191499391Y-66266537D01*
G37*
G36*
X189444028Y-65802880D02*
G01*
X189605145Y-65840077D01*
X189649808Y-65984716D01*
X189655790Y-66004171D01*
X189671089Y-66054718D01*
X189683509Y-66096904D01*
X189691899Y-66126783D01*
X189695115Y-66140409D01*
X189693937Y-66143467D01*
X189681800Y-66160211D01*
X189658595Y-66187890D01*
X189626891Y-66223503D01*
X189589260Y-66264047D01*
X189482760Y-66376632D01*
X189320490Y-66339169D01*
X189158219Y-66301705D01*
X189110840Y-66150561D01*
X189063461Y-65999416D01*
X189173185Y-65882549D01*
X189282910Y-65765683D01*
X189444028Y-65802880D01*
G37*
G36*
X188756507Y-65668305D02*
G01*
X188907077Y-65706070D01*
X188949542Y-65840784D01*
X188953195Y-65852419D01*
X188968242Y-65901384D01*
X188980235Y-65942085D01*
X188988029Y-65970559D01*
X188990485Y-65982844D01*
X188989987Y-65983871D01*
X188979625Y-65996897D01*
X188957996Y-66021465D01*
X188927847Y-66054510D01*
X188891921Y-66092964D01*
X188794877Y-66195736D01*
X188642864Y-66160822D01*
X188490850Y-66125908D01*
X188475436Y-66081618D01*
X188472106Y-66071858D01*
X188460203Y-66035624D01*
X188445524Y-65989643D01*
X188430497Y-65941495D01*
X188400970Y-65845663D01*
X188503454Y-65738101D01*
X188605937Y-65630540D01*
X188756507Y-65668305D01*
G37*
G36*
X188065622Y-65528097D02*
G01*
X188207440Y-65560838D01*
X188248414Y-65690477D01*
X188289389Y-65820116D01*
X188192987Y-65922069D01*
X188096584Y-66024022D01*
X187960294Y-65992557D01*
X187824003Y-65961092D01*
X187782252Y-65833124D01*
X187780283Y-65827073D01*
X187764939Y-65778736D01*
X187752718Y-65738176D01*
X187744817Y-65709494D01*
X187742434Y-65696787D01*
X187742533Y-65696493D01*
X187751068Y-65684932D01*
X187771069Y-65661473D01*
X187799690Y-65629372D01*
X187834086Y-65591886D01*
X187923805Y-65495356D01*
X188065622Y-65528097D01*
G37*
G36*
X187379365Y-65383199D02*
G01*
X187506715Y-65415356D01*
X187543521Y-65530773D01*
X187556601Y-65573008D01*
X187568307Y-65613556D01*
X187575815Y-65642936D01*
X187577906Y-65656682D01*
X187577308Y-65657999D01*
X187566677Y-65671827D01*
X187545726Y-65695884D01*
X187518137Y-65726222D01*
X187487592Y-65758889D01*
X187457773Y-65789937D01*
X187432362Y-65815415D01*
X187415042Y-65831375D01*
X187405872Y-65834259D01*
X187380241Y-65833215D01*
X187337883Y-65826230D01*
X187277072Y-65813077D01*
X187152017Y-65784182D01*
X187113722Y-65662584D01*
X187075427Y-65540987D01*
X187163721Y-65446015D01*
X187252015Y-65351042D01*
X187379365Y-65383199D01*
G37*
G36*
X186690383Y-65243183D02*
G01*
X186807016Y-65270110D01*
X186842236Y-65382863D01*
X186877457Y-65495616D01*
X186797507Y-65578909D01*
X186717557Y-65662202D01*
X186599916Y-65635043D01*
X186482274Y-65607883D01*
X186446929Y-65497971D01*
X186411584Y-65388060D01*
X186492667Y-65302158D01*
X186573751Y-65216257D01*
X186690383Y-65243183D01*
G37*
G36*
X186000298Y-65116542D02*
G01*
X186105724Y-65140974D01*
X186134018Y-65235825D01*
X186162312Y-65330674D01*
X186090883Y-65404992D01*
X186019454Y-65479309D01*
X185919789Y-65456300D01*
X185820126Y-65433290D01*
X185790744Y-65338979D01*
X185783817Y-65316373D01*
X185772642Y-65278001D01*
X185765280Y-65250024D01*
X185763060Y-65237320D01*
X185764863Y-65234247D01*
X185777932Y-65218151D01*
X185800720Y-65192449D01*
X185829814Y-65161042D01*
X185894871Y-65092110D01*
X186000298Y-65116542D01*
G37*
G36*
X192140686Y-66680975D02*
G01*
X192152022Y-66701927D01*
X192147607Y-66724371D01*
X192140685Y-66730740D01*
X192119885Y-66734666D01*
X192098867Y-66727694D01*
X192087786Y-66711938D01*
X192088980Y-66693842D01*
X192101780Y-66675206D01*
X192122693Y-66671119D01*
X192140686Y-66680975D01*
G37*
G36*
X185287610Y-65107805D02*
G01*
X185296680Y-65121443D01*
X185292648Y-65136779D01*
X185287800Y-65140231D01*
X185268272Y-65142959D01*
X185257732Y-65133146D01*
X185259597Y-65117261D01*
X185273084Y-65105470D01*
X185287610Y-65107805D01*
G37*
G36*
X182159406Y-69326208D02*
G01*
X182171027Y-69343218D01*
X182164720Y-69368069D01*
X182150490Y-69381425D01*
X182131642Y-69382033D01*
X182117470Y-69369293D01*
X182115268Y-69346399D01*
X182122422Y-69330081D01*
X182141179Y-69321494D01*
X182159406Y-69326208D01*
G37*
%TD*%
M02*
